<svg width="49" height="50" viewBox="0 0 49 50" fill="none" xmlns="http://www.w3.org/2000/svg">
<mask id="path-1-outside-1_5079_1825" maskUnits="userSpaceOnUse" x="-0.799805" y="-0.799805" width="50" height="51" fill="black">
<rect fill="white" x="-0.799805" y="-0.799805" width="50" height="51"/>
<path d="M18.5686 29.8188C18.5264 30.3003 18.6931 30.7544 19.039 31.0902C20.4651 32.4968 22.3553 33.2698 24.3531 33.2698C26.3509 33.2698 28.2411 32.4968 29.6672 31.0902C30.0132 30.7502 30.1798 30.3004 30.1376 29.8188C29.8676 26.6445 27.4922 24.429 24.3531 24.429C21.2203 24.429 18.8386 26.6466 18.5686 29.8188ZM24.3532 25.6244C26.8805 25.6244 28.7285 27.3499 28.95 29.9223C28.9606 30.0511 28.9226 30.1504 28.8319 30.2412C27.6273 31.426 26.0387 32.0744 24.3553 32.0744C22.6697 32.0744 21.0833 31.426 19.8786 30.2412C19.7858 30.1483 19.75 30.0511 19.7605 29.9223C19.9778 27.3541 21.8259 25.6244 24.3532 25.6244ZM27.3931 20.4163C27.3931 18.7394 26.0324 17.3772 24.3574 17.3772C22.6823 17.3772 21.3217 18.7394 21.3217 20.4163C21.3217 22.0932 22.6823 23.4555 24.3574 23.4555C26.0261 23.4555 27.3931 22.0932 27.3931 20.4163ZM22.5115 20.4163C22.5115 19.4005 23.3384 18.5725 24.3532 18.5725C25.3679 18.5725 26.1949 19.4004 26.1949 20.4163C26.1949 21.4322 25.3679 22.2601 24.3532 22.2601C23.3363 22.2601 22.5115 21.4343 22.5115 20.4163ZM24.3532 1.44438C27.3298 1.44438 30.235 1.99137 32.9876 3.06005L32.5552 4.17306C29.9414 3.15721 27.182 2.63768 24.3511 2.63768C21.5221 2.63768 18.7604 3.15089 16.1471 4.17306L15.7146 3.06005C18.4719 1.98504 21.3764 1.44438 24.3532 1.44438ZM32.5556 46.4715L32.9881 47.5845C30.2329 48.6553 27.3282 49.2002 24.3536 49.2002C21.377 49.2002 18.4718 48.6595 15.7191 47.5845L16.1516 46.4715C18.7654 47.4874 21.5248 48.0069 24.3556 48.0069C27.1825 48.0069 29.9417 47.4873 32.5556 46.4715ZM0.757431 28.8237C0.590774 27.6663 0.504278 26.4878 0.504278 25.3199C0.504278 23.9745 0.618198 22.6166 0.843927 21.286L2.02109 21.4867C1.80591 22.7517 1.69622 24.038 1.69622 25.3199C1.69622 26.4287 1.77638 27.548 1.93882 28.6505L0.757431 28.8237ZM46.7656 28.6505C46.9281 27.5523 47.0083 26.4287 47.0083 25.3199C47.0083 24.0379 46.9007 22.7517 46.6834 21.4867L47.8605 21.286C48.0884 22.6166 48.2002 23.9725 48.2002 25.3199C48.2002 26.4878 48.1137 27.6663 47.947 28.8237L46.7656 28.6505ZM42.3967 16.0908C44.3945 16.0908 46.2847 15.3178 47.7108 13.9113C48.0567 13.5713 48.2234 13.1214 48.1812 12.6399C47.9112 9.46557 45.5358 7.25009 42.3966 7.25009C39.2596 7.25009 36.8821 9.46768 36.612 12.6399C36.5698 13.1214 36.7365 13.5755 37.0825 13.9113C38.5065 15.3179 40.3968 16.0908 42.3967 16.0908ZM42.3967 8.44745C44.924 8.44745 46.772 10.1729 46.9935 12.7453C47.0041 12.8741 46.9661 12.9734 46.8754 13.0642C45.6708 14.249 44.0822 14.8974 42.3988 14.8974C40.7132 14.8974 39.1268 14.249 37.9221 13.0642C37.8293 12.9713 37.7935 12.8741 37.804 12.7453C38.0213 10.1771 39.8694 8.44745 42.3967 8.44745ZM42.3967 6.27846C44.0717 6.27846 45.4324 4.91625 45.4324 3.23933C45.4324 1.5624 44.0717 0.200195 42.3967 0.200195C40.7216 0.200195 39.3609 1.5624 39.3609 3.23933C39.3609 4.91625 40.7216 6.27846 42.3967 6.27846ZM42.3967 1.39133C43.4114 1.39133 44.2384 2.2192 44.2384 3.23511C44.2384 4.25097 43.4114 5.07889 42.3967 5.07889C41.3819 5.07889 40.555 4.25102 40.555 3.23511C40.555 2.21926 41.3798 1.39133 42.3967 1.39133ZM5.99126 16.0909C7.98905 16.0909 9.87925 15.318 11.3053 13.9114C11.6513 13.5714 11.818 13.1216 11.7758 12.64C11.5057 9.46568 9.13035 7.2502 5.9912 7.2502C2.85421 7.2502 0.476648 9.46779 0.206619 12.64C0.164427 13.1215 0.331086 13.5756 0.677059 13.9114C2.10103 15.318 3.98715 16.0909 5.99126 16.0909ZM5.99126 8.44755C8.51857 8.44755 10.3666 10.173 10.5881 12.7454C10.5986 12.8742 10.5607 12.9735 10.4699 13.0643C9.26534 14.2491 7.67681 14.8975 5.99334 14.8975C4.30776 14.8975 2.72133 14.2491 1.51673 13.0643C1.4239 12.9714 1.38804 12.8742 1.39859 12.7454C1.61166 10.1773 3.45762 8.44755 5.99126 8.44755ZM5.99126 6.27857C7.66631 6.27857 9.02699 4.91636 9.02699 3.23944C9.02699 1.56251 7.66631 0.200303 5.99126 0.200303C4.31621 0.200303 2.95553 1.56251 2.95553 3.23944C2.95553 4.91636 4.312 6.27857 5.99126 6.27857ZM5.99126 1.39144C7.00598 1.39144 7.83297 2.21931 7.83297 3.23522C7.83297 4.25107 7.00603 5.07899 5.99126 5.07899C4.97649 5.07899 4.14955 4.25113 4.14955 3.23522C4.14322 2.21936 4.97017 1.39144 5.99126 1.39144ZM42.3967 35.2847C39.2597 35.2847 36.8821 37.5023 36.6121 40.6744C36.5699 41.156 36.7366 41.6101 37.0825 41.9459C38.5086 43.3525 40.3988 44.1254 42.3966 44.1254C44.3944 44.1254 46.2846 43.3524 47.7107 41.9459C48.0567 41.6058 48.2233 41.156 48.1811 40.6744C47.909 37.5023 45.5337 35.2847 42.3967 35.2847ZM46.8733 41.0968C45.6687 42.2816 44.0802 42.93 42.3967 42.93C40.7111 42.93 39.1247 42.2816 37.9201 41.0968C37.8272 41.0039 37.7914 40.9067 37.8019 40.7779C38.0171 38.2097 39.8651 36.48 42.3988 36.48C44.9261 36.48 46.7741 38.2055 46.9956 40.7779C47.0019 40.9088 46.964 41.006 46.8733 41.0968ZM39.3611 31.2675C39.3611 32.9444 40.7217 34.3066 42.3968 34.3066C44.0718 34.3066 45.4325 32.9444 45.4325 31.2675C45.4325 29.5906 44.0718 28.2284 42.3968 28.2284C40.7217 28.2305 39.3611 29.5927 39.3611 31.2675ZM44.2384 31.2675C44.2384 32.2834 43.4115 33.1113 42.3967 33.1113C41.382 33.1113 40.555 32.2834 40.555 31.2675C40.555 30.2517 41.382 29.4237 42.3967 29.4237C43.4115 29.4237 44.2384 30.2516 44.2384 31.2675ZM6.31005 35.2845C3.17306 35.2845 0.795505 37.5021 0.525475 40.6743C0.483283 41.1558 0.649943 41.6099 0.995916 41.9457C2.422 43.3523 4.31221 44.1252 6.30999 44.1252C8.30778 44.1252 10.198 43.3522 11.6241 41.9457C11.97 41.6057 12.1367 41.1558 12.0945 40.6743C11.8224 37.5021 9.4471 35.2845 6.31005 35.2845ZM10.7867 41.0966C9.58206 42.2815 7.99353 42.9298 6.31005 42.9298C4.62447 42.9298 3.03805 42.2815 1.83345 41.0966C1.74062 41.0037 1.70476 40.9066 1.71531 40.7777C1.93049 38.2096 3.7785 36.4799 6.31213 36.4799C8.84577 36.4799 10.6875 38.2054 10.909 40.7777C10.9153 40.9087 10.8774 41.0058 10.7867 41.0966ZM3.27443 31.2674C3.27443 32.9443 4.63511 34.3065 6.31016 34.3065C7.98521 34.3065 9.34589 32.9443 9.34589 31.2674C9.34589 29.5904 7.98521 28.2282 6.31016 28.2282C4.63511 28.2303 3.27443 29.5925 3.27443 31.2674ZM8.15609 31.2674C8.15609 32.2832 7.32915 33.1111 6.31437 33.1111C5.2996 33.1111 4.47266 32.2833 4.47266 31.2674C4.47266 30.2515 5.2996 29.4236 6.31437 29.4236C7.3312 29.4236 8.15609 30.2514 8.15609 31.2674Z"/>
</mask>
<path d="M18.5686 29.8188C18.5264 30.3003 18.6931 30.7544 19.039 31.0902C20.4651 32.4968 22.3553 33.2698 24.3531 33.2698C26.3509 33.2698 28.2411 32.4968 29.6672 31.0902C30.0132 30.7502 30.1798 30.3004 30.1376 29.8188C29.8676 26.6445 27.4922 24.429 24.3531 24.429C21.2203 24.429 18.8386 26.6466 18.5686 29.8188ZM24.3532 25.6244C26.8805 25.6244 28.7285 27.3499 28.95 29.9223C28.9606 30.0511 28.9226 30.1504 28.8319 30.2412C27.6273 31.426 26.0387 32.0744 24.3553 32.0744C22.6697 32.0744 21.0833 31.426 19.8786 30.2412C19.7858 30.1483 19.75 30.0511 19.7605 29.9223C19.9778 27.3541 21.8259 25.6244 24.3532 25.6244ZM27.3931 20.4163C27.3931 18.7394 26.0324 17.3772 24.3574 17.3772C22.6823 17.3772 21.3217 18.7394 21.3217 20.4163C21.3217 22.0932 22.6823 23.4555 24.3574 23.4555C26.0261 23.4555 27.3931 22.0932 27.3931 20.4163ZM22.5115 20.4163C22.5115 19.4005 23.3384 18.5725 24.3532 18.5725C25.3679 18.5725 26.1949 19.4004 26.1949 20.4163C26.1949 21.4322 25.3679 22.2601 24.3532 22.2601C23.3363 22.2601 22.5115 21.4343 22.5115 20.4163ZM24.3532 1.44438C27.3298 1.44438 30.235 1.99137 32.9876 3.06005L32.5552 4.17306C29.9414 3.15721 27.182 2.63768 24.3511 2.63768C21.5221 2.63768 18.7604 3.15089 16.1471 4.17306L15.7146 3.06005C18.4719 1.98504 21.3764 1.44438 24.3532 1.44438ZM32.5556 46.4715L32.9881 47.5845C30.2329 48.6553 27.3282 49.2002 24.3536 49.2002C21.377 49.2002 18.4718 48.6595 15.7191 47.5845L16.1516 46.4715C18.7654 47.4874 21.5248 48.0069 24.3556 48.0069C27.1825 48.0069 29.9417 47.4873 32.5556 46.4715ZM0.757431 28.8237C0.590774 27.6663 0.504278 26.4878 0.504278 25.3199C0.504278 23.9745 0.618198 22.6166 0.843927 21.286L2.02109 21.4867C1.80591 22.7517 1.69622 24.038 1.69622 25.3199C1.69622 26.4287 1.77638 27.548 1.93882 28.6505L0.757431 28.8237ZM46.7656 28.6505C46.9281 27.5523 47.0083 26.4287 47.0083 25.3199C47.0083 24.0379 46.9007 22.7517 46.6834 21.4867L47.8605 21.286C48.0884 22.6166 48.2002 23.9725 48.2002 25.3199C48.2002 26.4878 48.1137 27.6663 47.947 28.8237L46.7656 28.6505ZM42.3967 16.0908C44.3945 16.0908 46.2847 15.3178 47.7108 13.9113C48.0567 13.5713 48.2234 13.1214 48.1812 12.6399C47.9112 9.46557 45.5358 7.25009 42.3966 7.25009C39.2596 7.25009 36.8821 9.46768 36.612 12.6399C36.5698 13.1214 36.7365 13.5755 37.0825 13.9113C38.5065 15.3179 40.3968 16.0908 42.3967 16.0908ZM42.3967 8.44745C44.924 8.44745 46.772 10.1729 46.9935 12.7453C47.0041 12.8741 46.9661 12.9734 46.8754 13.0642C45.6708 14.249 44.0822 14.8974 42.3988 14.8974C40.7132 14.8974 39.1268 14.249 37.9221 13.0642C37.8293 12.9713 37.7935 12.8741 37.804 12.7453C38.0213 10.1771 39.8694 8.44745 42.3967 8.44745ZM42.3967 6.27846C44.0717 6.27846 45.4324 4.91625 45.4324 3.23933C45.4324 1.5624 44.0717 0.200195 42.3967 0.200195C40.7216 0.200195 39.3609 1.5624 39.3609 3.23933C39.3609 4.91625 40.7216 6.27846 42.3967 6.27846ZM42.3967 1.39133C43.4114 1.39133 44.2384 2.2192 44.2384 3.23511C44.2384 4.25097 43.4114 5.07889 42.3967 5.07889C41.3819 5.07889 40.555 4.25102 40.555 3.23511C40.555 2.21926 41.3798 1.39133 42.3967 1.39133ZM5.99126 16.0909C7.98905 16.0909 9.87925 15.318 11.3053 13.9114C11.6513 13.5714 11.818 13.1216 11.7758 12.64C11.5057 9.46568 9.13035 7.2502 5.9912 7.2502C2.85421 7.2502 0.476648 9.46779 0.206619 12.64C0.164427 13.1215 0.331086 13.5756 0.677059 13.9114C2.10103 15.318 3.98715 16.0909 5.99126 16.0909ZM5.99126 8.44755C8.51857 8.44755 10.3666 10.173 10.5881 12.7454C10.5986 12.8742 10.5607 12.9735 10.4699 13.0643C9.26534 14.2491 7.67681 14.8975 5.99334 14.8975C4.30776 14.8975 2.72133 14.2491 1.51673 13.0643C1.4239 12.9714 1.38804 12.8742 1.39859 12.7454C1.61166 10.1773 3.45762 8.44755 5.99126 8.44755ZM5.99126 6.27857C7.66631 6.27857 9.02699 4.91636 9.02699 3.23944C9.02699 1.56251 7.66631 0.200303 5.99126 0.200303C4.31621 0.200303 2.95553 1.56251 2.95553 3.23944C2.95553 4.91636 4.312 6.27857 5.99126 6.27857ZM5.99126 1.39144C7.00598 1.39144 7.83297 2.21931 7.83297 3.23522C7.83297 4.25107 7.00603 5.07899 5.99126 5.07899C4.97649 5.07899 4.14955 4.25113 4.14955 3.23522C4.14322 2.21936 4.97017 1.39144 5.99126 1.39144ZM42.3967 35.2847C39.2597 35.2847 36.8821 37.5023 36.6121 40.6744C36.5699 41.156 36.7366 41.6101 37.0825 41.9459C38.5086 43.3525 40.3988 44.1254 42.3966 44.1254C44.3944 44.1254 46.2846 43.3524 47.7107 41.9459C48.0567 41.6058 48.2233 41.156 48.1811 40.6744C47.909 37.5023 45.5337 35.2847 42.3967 35.2847ZM46.8733 41.0968C45.6687 42.2816 44.0802 42.93 42.3967 42.93C40.7111 42.93 39.1247 42.2816 37.9201 41.0968C37.8272 41.0039 37.7914 40.9067 37.8019 40.7779C38.0171 38.2097 39.8651 36.48 42.3988 36.48C44.9261 36.48 46.7741 38.2055 46.9956 40.7779C47.0019 40.9088 46.964 41.006 46.8733 41.0968ZM39.3611 31.2675C39.3611 32.9444 40.7217 34.3066 42.3968 34.3066C44.0718 34.3066 45.4325 32.9444 45.4325 31.2675C45.4325 29.5906 44.0718 28.2284 42.3968 28.2284C40.7217 28.2305 39.3611 29.5927 39.3611 31.2675ZM44.2384 31.2675C44.2384 32.2834 43.4115 33.1113 42.3967 33.1113C41.382 33.1113 40.555 32.2834 40.555 31.2675C40.555 30.2517 41.382 29.4237 42.3967 29.4237C43.4115 29.4237 44.2384 30.2516 44.2384 31.2675ZM6.31005 35.2845C3.17306 35.2845 0.795505 37.5021 0.525475 40.6743C0.483283 41.1558 0.649943 41.6099 0.995916 41.9457C2.422 43.3523 4.31221 44.1252 6.30999 44.1252C8.30778 44.1252 10.198 43.3522 11.6241 41.9457C11.97 41.6057 12.1367 41.1558 12.0945 40.6743C11.8224 37.5021 9.4471 35.2845 6.31005 35.2845ZM10.7867 41.0966C9.58206 42.2815 7.99353 42.9298 6.31005 42.9298C4.62447 42.9298 3.03805 42.2815 1.83345 41.0966C1.74062 41.0037 1.70476 40.9066 1.71531 40.7777C1.93049 38.2096 3.7785 36.4799 6.31213 36.4799C8.84577 36.4799 10.6875 38.2054 10.909 40.7777C10.9153 40.9087 10.8774 41.0058 10.7867 41.0966ZM3.27443 31.2674C3.27443 32.9443 4.63511 34.3065 6.31016 34.3065C7.98521 34.3065 9.34589 32.9443 9.34589 31.2674C9.34589 29.5904 7.98521 28.2282 6.31016 28.2282C4.63511 28.2303 3.27443 29.5925 3.27443 31.2674ZM8.15609 31.2674C8.15609 32.2832 7.32915 33.1111 6.31437 33.1111C5.2996 33.1111 4.47266 32.2833 4.47266 31.2674C4.47266 30.2515 5.2996 29.4236 6.31437 29.4236C7.3312 29.4236 8.15609 30.2514 8.15609 31.2674Z" fill="#199CA3"/>
<path d="M18.5686 29.8188C18.5264 30.3003 18.6931 30.7544 19.039 31.0902C20.4651 32.4968 22.3553 33.2698 24.3531 33.2698C26.3509 33.2698 28.2411 32.4968 29.6672 31.0902C30.0132 30.7502 30.1798 30.3004 30.1376 29.8188C29.8676 26.6445 27.4922 24.429 24.3531 24.429C21.2203 24.429 18.8386 26.6466 18.5686 29.8188ZM24.3532 25.6244C26.8805 25.6244 28.7285 27.3499 28.95 29.9223C28.9606 30.0511 28.9226 30.1504 28.8319 30.2412C27.6273 31.426 26.0387 32.0744 24.3553 32.0744C22.6697 32.0744 21.0833 31.426 19.8786 30.2412C19.7858 30.1483 19.75 30.0511 19.7605 29.9223C19.9778 27.3541 21.8259 25.6244 24.3532 25.6244ZM27.3931 20.4163C27.3931 18.7394 26.0324 17.3772 24.3574 17.3772C22.6823 17.3772 21.3217 18.7394 21.3217 20.4163C21.3217 22.0932 22.6823 23.4555 24.3574 23.4555C26.0261 23.4555 27.3931 22.0932 27.3931 20.4163ZM22.5115 20.4163C22.5115 19.4005 23.3384 18.5725 24.3532 18.5725C25.3679 18.5725 26.1949 19.4004 26.1949 20.4163C26.1949 21.4322 25.3679 22.2601 24.3532 22.2601C23.3363 22.2601 22.5115 21.4343 22.5115 20.4163ZM24.3532 1.44438C27.3298 1.44438 30.235 1.99137 32.9876 3.06005L32.5552 4.17306C29.9414 3.15721 27.182 2.63768 24.3511 2.63768C21.5221 2.63768 18.7604 3.15089 16.1471 4.17306L15.7146 3.06005C18.4719 1.98504 21.3764 1.44438 24.3532 1.44438ZM32.5556 46.4715L32.9881 47.5845C30.2329 48.6553 27.3282 49.2002 24.3536 49.2002C21.377 49.2002 18.4718 48.6595 15.7191 47.5845L16.1516 46.4715C18.7654 47.4874 21.5248 48.0069 24.3556 48.0069C27.1825 48.0069 29.9417 47.4873 32.5556 46.4715ZM0.757431 28.8237C0.590774 27.6663 0.504278 26.4878 0.504278 25.3199C0.504278 23.9745 0.618198 22.6166 0.843927 21.286L2.02109 21.4867C1.80591 22.7517 1.69622 24.038 1.69622 25.3199C1.69622 26.4287 1.77638 27.548 1.93882 28.6505L0.757431 28.8237ZM46.7656 28.6505C46.9281 27.5523 47.0083 26.4287 47.0083 25.3199C47.0083 24.0379 46.9007 22.7517 46.6834 21.4867L47.8605 21.286C48.0884 22.6166 48.2002 23.9725 48.2002 25.3199C48.2002 26.4878 48.1137 27.6663 47.947 28.8237L46.7656 28.6505ZM42.3967 16.0908C44.3945 16.0908 46.2847 15.3178 47.7108 13.9113C48.0567 13.5713 48.2234 13.1214 48.1812 12.6399C47.9112 9.46557 45.5358 7.25009 42.3966 7.25009C39.2596 7.25009 36.8821 9.46768 36.612 12.6399C36.5698 13.1214 36.7365 13.5755 37.0825 13.9113C38.5065 15.3179 40.3968 16.0908 42.3967 16.0908ZM42.3967 8.44745C44.924 8.44745 46.772 10.1729 46.9935 12.7453C47.0041 12.8741 46.9661 12.9734 46.8754 13.0642C45.6708 14.249 44.0822 14.8974 42.3988 14.8974C40.7132 14.8974 39.1268 14.249 37.9221 13.0642C37.8293 12.9713 37.7935 12.8741 37.804 12.7453C38.0213 10.1771 39.8694 8.44745 42.3967 8.44745ZM42.3967 6.27846C44.0717 6.27846 45.4324 4.91625 45.4324 3.23933C45.4324 1.5624 44.0717 0.200195 42.3967 0.200195C40.7216 0.200195 39.3609 1.5624 39.3609 3.23933C39.3609 4.91625 40.7216 6.27846 42.3967 6.27846ZM42.3967 1.39133C43.4114 1.39133 44.2384 2.2192 44.2384 3.23511C44.2384 4.25097 43.4114 5.07889 42.3967 5.07889C41.3819 5.07889 40.555 4.25102 40.555 3.23511C40.555 2.21926 41.3798 1.39133 42.3967 1.39133ZM5.99126 16.0909C7.98905 16.0909 9.87925 15.318 11.3053 13.9114C11.6513 13.5714 11.818 13.1216 11.7758 12.64C11.5057 9.46568 9.13035 7.2502 5.9912 7.2502C2.85421 7.2502 0.476648 9.46779 0.206619 12.64C0.164427 13.1215 0.331086 13.5756 0.677059 13.9114C2.10103 15.318 3.98715 16.0909 5.99126 16.0909ZM5.99126 8.44755C8.51857 8.44755 10.3666 10.173 10.5881 12.7454C10.5986 12.8742 10.5607 12.9735 10.4699 13.0643C9.26534 14.2491 7.67681 14.8975 5.99334 14.8975C4.30776 14.8975 2.72133 14.2491 1.51673 13.0643C1.4239 12.9714 1.38804 12.8742 1.39859 12.7454C1.61166 10.1773 3.45762 8.44755 5.99126 8.44755ZM5.99126 6.27857C7.66631 6.27857 9.02699 4.91636 9.02699 3.23944C9.02699 1.56251 7.66631 0.200303 5.99126 0.200303C4.31621 0.200303 2.95553 1.56251 2.95553 3.23944C2.95553 4.91636 4.312 6.27857 5.99126 6.27857ZM5.99126 1.39144C7.00598 1.39144 7.83297 2.21931 7.83297 3.23522C7.83297 4.25107 7.00603 5.07899 5.99126 5.07899C4.97649 5.07899 4.14955 4.25113 4.14955 3.23522C4.14322 2.21936 4.97017 1.39144 5.99126 1.39144ZM42.3967 35.2847C39.2597 35.2847 36.8821 37.5023 36.6121 40.6744C36.5699 41.156 36.7366 41.6101 37.0825 41.9459C38.5086 43.3525 40.3988 44.1254 42.3966 44.1254C44.3944 44.1254 46.2846 43.3524 47.7107 41.9459C48.0567 41.6058 48.2233 41.156 48.1811 40.6744C47.909 37.5023 45.5337 35.2847 42.3967 35.2847ZM46.8733 41.0968C45.6687 42.2816 44.0802 42.93 42.3967 42.93C40.7111 42.93 39.1247 42.2816 37.9201 41.0968C37.8272 41.0039 37.7914 40.9067 37.8019 40.7779C38.0171 38.2097 39.8651 36.48 42.3988 36.48C44.9261 36.48 46.7741 38.2055 46.9956 40.7779C47.0019 40.9088 46.964 41.006 46.8733 41.0968ZM39.3611 31.2675C39.3611 32.9444 40.7217 34.3066 42.3968 34.3066C44.0718 34.3066 45.4325 32.9444 45.4325 31.2675C45.4325 29.5906 44.0718 28.2284 42.3968 28.2284C40.7217 28.2305 39.3611 29.5927 39.3611 31.2675ZM44.2384 31.2675C44.2384 32.2834 43.4115 33.1113 42.3967 33.1113C41.382 33.1113 40.555 32.2834 40.555 31.2675C40.555 30.2517 41.382 29.4237 42.3967 29.4237C43.4115 29.4237 44.2384 30.2516 44.2384 31.2675ZM6.31005 35.2845C3.17306 35.2845 0.795505 37.5021 0.525475 40.6743C0.483283 41.1558 0.649943 41.6099 0.995916 41.9457C2.422 43.3523 4.31221 44.1252 6.30999 44.1252C8.30778 44.1252 10.198 43.3522 11.6241 41.9457C11.97 41.6057 12.1367 41.1558 12.0945 40.6743C11.8224 37.5021 9.4471 35.2845 6.31005 35.2845ZM10.7867 41.0966C9.58206 42.2815 7.99353 42.9298 6.31005 42.9298C4.62447 42.9298 3.03805 42.2815 1.83345 41.0966C1.74062 41.0037 1.70476 40.9066 1.71531 40.7777C1.93049 38.2096 3.7785 36.4799 6.31213 36.4799C8.84577 36.4799 10.6875 38.2054 10.909 40.7777C10.9153 40.9087 10.8774 41.0058 10.7867 41.0966ZM3.27443 31.2674C3.27443 32.9443 4.63511 34.3065 6.31016 34.3065C7.98521 34.3065 9.34589 32.9443 9.34589 31.2674C9.34589 29.5904 7.98521 28.2282 6.31016 28.2282C4.63511 28.2303 3.27443 29.5925 3.27443 31.2674ZM8.15609 31.2674C8.15609 32.2832 7.32915 33.1111 6.31437 33.1111C5.2996 33.1111 4.47266 32.2833 4.47266 31.2674C4.47266 30.2515 5.2996 29.4236 6.31437 29.4236C7.3312 29.4236 8.15609 30.2514 8.15609 31.2674Z" stroke="#199CA3" stroke-width="0.4" mask="url(#path-1-outside-1_5079_1825)"/>
</svg>
