<svg width="56" height="50" viewBox="0 0 56 50" fill="none" xmlns="http://www.w3.org/2000/svg">
<mask id="path-1-outside-1_5079_1831" maskUnits="userSpaceOnUse" x="-0.799805" y="-0.799805" width="57" height="51" fill="black">
<rect fill="white" x="-0.799805" y="-0.799805" width="57" height="51"/>
<path d="M38.7531 22.8749C38.7798 22.8749 38.8065 22.8749 38.8326 22.8749C39.0885 22.873 39.3202 22.7197 39.4252 22.4826C39.5302 22.2454 39.4892 21.9679 39.3209 21.7724C38.7258 21.0823 38.2245 20.321 37.8263 19.5017C42.2652 17.7893 45.0933 14.2717 45.0933 10.3827C45.0933 7.62639 43.7044 5.04734 41.1819 3.1211C38.7152 1.23711 35.4454 0.200195 31.9756 0.200195C30.5116 0.200195 29.0767 0.386891 27.7058 0.752082C26.3467 0.390044 24.905 0.200195 23.4266 0.200195C19.9562 0.200195 16.687 1.23774 14.2204 3.1211C11.6979 5.04734 10.309 7.62639 10.309 10.3827C10.309 14.2717 13.1377 17.7893 17.5759 19.5017C17.1771 20.321 16.6765 21.0823 16.0814 21.7724C15.9124 21.9679 15.8721 22.2454 15.977 22.4826C16.082 22.7197 16.3137 22.873 16.5696 22.8749C16.5963 22.8749 16.6224 22.8749 16.6491 22.8749C19.1127 22.8749 21.5389 22.0574 23.5154 20.5645C24.9627 20.5569 26.3734 20.3671 27.7058 20.0126C29.0494 20.3702 30.4544 20.5576 31.8887 20.5645C33.8652 22.0574 36.2915 22.8749 38.755 22.8749H38.7531ZM23.426 19.2349L23.2999 19.2337C23.1514 19.2318 23.0098 19.2816 22.8937 19.3731C21.4637 20.4995 19.7524 21.2179 17.9679 21.457C18.402 20.8023 18.771 20.1041 19.0704 19.3699C19.14 19.199 19.1363 19.006 19.0605 18.8376C18.9841 18.6692 18.8424 18.5411 18.6691 18.4837C14.3856 17.0633 11.6177 13.8832 11.6177 10.3827C11.6177 5.50146 16.915 1.52977 23.426 1.52977C29.937 1.52977 35.2342 5.50083 35.2342 10.3827C35.2342 15.2645 29.937 19.2356 23.426 19.2356V19.2349ZM32.6322 17.6436C35.1547 15.7174 36.5436 13.1383 36.5436 10.382C36.5436 7.62576 35.1547 5.04671 32.6322 3.12047C31.8775 2.54398 31.047 2.04823 30.1587 1.63573C30.7563 1.56635 31.3626 1.52914 31.9744 1.52914C38.4854 1.52914 43.7826 5.5002 43.7826 10.382C43.7826 13.8826 41.0148 17.0627 36.7312 18.4831C36.5579 18.5405 36.4163 18.6692 36.3399 18.8369C36.2635 19.0054 36.2598 19.1984 36.33 19.3693C36.6294 20.1034 36.9983 20.8017 37.4325 21.457C35.6479 21.2179 33.9366 20.4995 32.5067 19.3731C32.3918 19.2829 32.2508 19.2337 32.1055 19.2337H32.1005L31.9744 19.2349C31.3626 19.2349 30.7569 19.1977 30.1594 19.1283C31.047 18.7158 31.8775 18.2195 32.6322 17.6436ZM16.8802 35.2081C18.3263 33.9429 19.2443 32.0721 19.2443 29.9863C19.2443 26.1856 16.1988 23.0931 12.4557 23.0931C8.71257 23.0931 5.66703 26.1856 5.66703 29.9863C5.66703 32.0721 6.5851 33.9429 8.03116 35.2081C3.29171 36.3529 0.334987 39.2479 0.200195 43.002C0.200195 43.0102 0.200195 43.0184 0.200195 43.026V48.5354C0.200195 48.9025 0.493383 49.2002 0.854898 49.2002H24.0565C24.418 49.2002 24.7112 48.9025 24.7112 48.5354V43.026C24.7112 43.0178 24.7112 43.0096 24.7112 43.002C24.5764 39.2479 21.6197 36.3529 16.8802 35.2081ZM6.97705 29.9863C6.97705 26.9185 9.43498 24.4227 12.4563 24.4227C15.4776 24.4227 17.9356 26.9185 17.9356 29.9863C17.9356 33.0542 15.4776 35.55 12.4563 35.55C9.43498 35.55 6.97705 33.0542 6.97705 29.9863ZM23.4024 47.8706H1.5096V43.0386C1.66427 38.9603 5.76268 36.865 9.61822 36.2463C10.4823 36.6519 11.4426 36.8796 12.4551 36.8796C13.4676 36.8796 14.4285 36.6519 15.2925 36.2463C19.1487 36.8657 23.2471 38.9603 23.4018 43.0386L23.4024 47.8706ZM55.2002 43.002C55.0654 39.2479 52.1087 36.3529 47.3692 35.2081C48.8153 33.9429 49.7334 32.0721 49.7334 29.9863C49.7334 26.1856 46.6878 23.0931 42.9447 23.0931C39.2016 23.0931 36.156 26.1856 36.156 29.9863C36.156 32.0721 37.0741 33.9429 38.5202 35.2081C33.7807 36.3529 30.824 39.2479 30.6892 43.002C30.6892 43.0102 30.6892 43.0184 30.6892 43.026V48.5354C30.6892 48.9025 30.9824 49.2002 31.3439 49.2002H54.5455C54.907 49.2002 55.2002 48.9025 55.2002 48.5354V43.026C55.2002 43.0178 55.2002 43.0096 55.2002 43.002ZM37.4661 29.9863C37.4661 26.9185 39.924 24.4227 42.9453 24.4227C45.9666 24.4227 48.4246 26.9185 48.4246 29.9863C48.4246 33.0542 45.9666 35.55 42.9453 35.55C39.924 35.55 37.4661 33.0542 37.4661 29.9863ZM53.8914 47.8706H31.9992V43.0386C32.1539 38.9603 36.2523 36.865 40.1079 36.2463C40.9719 36.6519 41.9322 36.8796 42.9447 36.8796C43.9572 36.8796 44.9181 36.6519 45.7822 36.2463C49.6383 36.8657 53.7367 38.9603 53.8914 43.0386V47.8706ZM30.3414 6.51378C30.3414 6.88087 30.0482 7.17857 29.6867 7.17857H17.1641C16.8026 7.17857 16.5094 6.88087 16.5094 6.51378C16.5094 6.1467 16.8026 5.849 17.1641 5.849H29.6867C30.0482 5.849 30.3414 6.1467 30.3414 6.51378ZM30.3414 10.382C30.3414 10.7491 30.0482 11.0468 29.6867 11.0468H17.1641C16.8026 11.0468 16.5094 10.7491 16.5094 10.382C16.5094 10.015 16.8026 9.71725 17.1641 9.71725H29.6867C30.0482 9.71725 30.3414 10.015 30.3414 10.382ZM30.3414 14.2503C30.3414 14.6174 30.0482 14.9151 29.6867 14.9151H17.1641C16.8026 14.9151 16.5094 14.6174 16.5094 14.2503C16.5094 13.8832 16.8026 13.5855 17.1641 13.5855H29.6867C30.0482 13.5855 30.3414 13.8832 30.3414 14.2503Z"/>
</mask>
<path d="M38.7531 22.8749C38.7798 22.8749 38.8065 22.8749 38.8326 22.8749C39.0885 22.873 39.3202 22.7197 39.4252 22.4826C39.5302 22.2454 39.4892 21.9679 39.3209 21.7724C38.7258 21.0823 38.2245 20.321 37.8263 19.5017C42.2652 17.7893 45.0933 14.2717 45.0933 10.3827C45.0933 7.62639 43.7044 5.04734 41.1819 3.1211C38.7152 1.23711 35.4454 0.200195 31.9756 0.200195C30.5116 0.200195 29.0767 0.386891 27.7058 0.752082C26.3467 0.390044 24.905 0.200195 23.4266 0.200195C19.9562 0.200195 16.687 1.23774 14.2204 3.1211C11.6979 5.04734 10.309 7.62639 10.309 10.3827C10.309 14.2717 13.1377 17.7893 17.5759 19.5017C17.1771 20.321 16.6765 21.0823 16.0814 21.7724C15.9124 21.9679 15.8721 22.2454 15.977 22.4826C16.082 22.7197 16.3137 22.873 16.5696 22.8749C16.5963 22.8749 16.6224 22.8749 16.6491 22.8749C19.1127 22.8749 21.5389 22.0574 23.5154 20.5645C24.9627 20.5569 26.3734 20.3671 27.7058 20.0126C29.0494 20.3702 30.4544 20.5576 31.8887 20.5645C33.8652 22.0574 36.2915 22.8749 38.755 22.8749H38.7531ZM23.426 19.2349L23.2999 19.2337C23.1514 19.2318 23.0098 19.2816 22.8937 19.3731C21.4637 20.4995 19.7524 21.2179 17.9679 21.457C18.402 20.8023 18.771 20.1041 19.0704 19.3699C19.14 19.199 19.1363 19.006 19.0605 18.8376C18.9841 18.6692 18.8424 18.5411 18.6691 18.4837C14.3856 17.0633 11.6177 13.8832 11.6177 10.3827C11.6177 5.50146 16.915 1.52977 23.426 1.52977C29.937 1.52977 35.2342 5.50083 35.2342 10.3827C35.2342 15.2645 29.937 19.2356 23.426 19.2356V19.2349ZM32.6322 17.6436C35.1547 15.7174 36.5436 13.1383 36.5436 10.382C36.5436 7.62576 35.1547 5.04671 32.6322 3.12047C31.8775 2.54398 31.047 2.04823 30.1587 1.63573C30.7563 1.56635 31.3626 1.52914 31.9744 1.52914C38.4854 1.52914 43.7826 5.5002 43.7826 10.382C43.7826 13.8826 41.0148 17.0627 36.7312 18.4831C36.5579 18.5405 36.4163 18.6692 36.3399 18.8369C36.2635 19.0054 36.2598 19.1984 36.33 19.3693C36.6294 20.1034 36.9983 20.8017 37.4325 21.457C35.6479 21.2179 33.9366 20.4995 32.5067 19.3731C32.3918 19.2829 32.2508 19.2337 32.1055 19.2337H32.1005L31.9744 19.2349C31.3626 19.2349 30.7569 19.1977 30.1594 19.1283C31.047 18.7158 31.8775 18.2195 32.6322 17.6436ZM16.8802 35.2081C18.3263 33.9429 19.2443 32.0721 19.2443 29.9863C19.2443 26.1856 16.1988 23.0931 12.4557 23.0931C8.71257 23.0931 5.66703 26.1856 5.66703 29.9863C5.66703 32.0721 6.5851 33.9429 8.03116 35.2081C3.29171 36.3529 0.334987 39.2479 0.200195 43.002C0.200195 43.0102 0.200195 43.0184 0.200195 43.026V48.5354C0.200195 48.9025 0.493383 49.2002 0.854898 49.2002H24.0565C24.418 49.2002 24.7112 48.9025 24.7112 48.5354V43.026C24.7112 43.0178 24.7112 43.0096 24.7112 43.002C24.5764 39.2479 21.6197 36.3529 16.8802 35.2081ZM6.97705 29.9863C6.97705 26.9185 9.43498 24.4227 12.4563 24.4227C15.4776 24.4227 17.9356 26.9185 17.9356 29.9863C17.9356 33.0542 15.4776 35.55 12.4563 35.55C9.43498 35.55 6.97705 33.0542 6.97705 29.9863ZM23.4024 47.8706H1.5096V43.0386C1.66427 38.9603 5.76268 36.865 9.61822 36.2463C10.4823 36.6519 11.4426 36.8796 12.4551 36.8796C13.4676 36.8796 14.4285 36.6519 15.2925 36.2463C19.1487 36.8657 23.2471 38.9603 23.4018 43.0386L23.4024 47.8706ZM55.2002 43.002C55.0654 39.2479 52.1087 36.3529 47.3692 35.2081C48.8153 33.9429 49.7334 32.0721 49.7334 29.9863C49.7334 26.1856 46.6878 23.0931 42.9447 23.0931C39.2016 23.0931 36.156 26.1856 36.156 29.9863C36.156 32.0721 37.0741 33.9429 38.5202 35.2081C33.7807 36.3529 30.824 39.2479 30.6892 43.002C30.6892 43.0102 30.6892 43.0184 30.6892 43.026V48.5354C30.6892 48.9025 30.9824 49.2002 31.3439 49.2002H54.5455C54.907 49.2002 55.2002 48.9025 55.2002 48.5354V43.026C55.2002 43.0178 55.2002 43.0096 55.2002 43.002ZM37.4661 29.9863C37.4661 26.9185 39.924 24.4227 42.9453 24.4227C45.9666 24.4227 48.4246 26.9185 48.4246 29.9863C48.4246 33.0542 45.9666 35.55 42.9453 35.55C39.924 35.55 37.4661 33.0542 37.4661 29.9863ZM53.8914 47.8706H31.9992V43.0386C32.1539 38.9603 36.2523 36.865 40.1079 36.2463C40.9719 36.6519 41.9322 36.8796 42.9447 36.8796C43.9572 36.8796 44.9181 36.6519 45.7822 36.2463C49.6383 36.8657 53.7367 38.9603 53.8914 43.0386V47.8706ZM30.3414 6.51378C30.3414 6.88087 30.0482 7.17857 29.6867 7.17857H17.1641C16.8026 7.17857 16.5094 6.88087 16.5094 6.51378C16.5094 6.1467 16.8026 5.849 17.1641 5.849H29.6867C30.0482 5.849 30.3414 6.1467 30.3414 6.51378ZM30.3414 10.382C30.3414 10.7491 30.0482 11.0468 29.6867 11.0468H17.1641C16.8026 11.0468 16.5094 10.7491 16.5094 10.382C16.5094 10.015 16.8026 9.71725 17.1641 9.71725H29.6867C30.0482 9.71725 30.3414 10.015 30.3414 10.382ZM30.3414 14.2503C30.3414 14.6174 30.0482 14.9151 29.6867 14.9151H17.1641C16.8026 14.9151 16.5094 14.6174 16.5094 14.2503C16.5094 13.8832 16.8026 13.5855 17.1641 13.5855H29.6867C30.0482 13.5855 30.3414 13.8832 30.3414 14.2503Z" fill="#199CA3"/>
<path d="M38.7531 22.8749C38.7798 22.8749 38.8065 22.8749 38.8326 22.8749C39.0885 22.873 39.3202 22.7197 39.4252 22.4826C39.5302 22.2454 39.4892 21.9679 39.3209 21.7724C38.7258 21.0823 38.2245 20.321 37.8263 19.5017C42.2652 17.7893 45.0933 14.2717 45.0933 10.3827C45.0933 7.62639 43.7044 5.04734 41.1819 3.1211C38.7152 1.23711 35.4454 0.200195 31.9756 0.200195C30.5116 0.200195 29.0767 0.386891 27.7058 0.752082C26.3467 0.390044 24.905 0.200195 23.4266 0.200195C19.9562 0.200195 16.687 1.23774 14.2204 3.1211C11.6979 5.04734 10.309 7.62639 10.309 10.3827C10.309 14.2717 13.1377 17.7893 17.5759 19.5017C17.1771 20.321 16.6765 21.0823 16.0814 21.7724C15.9124 21.9679 15.8721 22.2454 15.977 22.4826C16.082 22.7197 16.3137 22.873 16.5696 22.8749C16.5963 22.8749 16.6224 22.8749 16.6491 22.8749C19.1127 22.8749 21.5389 22.0574 23.5154 20.5645C24.9627 20.5569 26.3734 20.3671 27.7058 20.0126C29.0494 20.3702 30.4544 20.5576 31.8887 20.5645C33.8652 22.0574 36.2915 22.8749 38.755 22.8749H38.7531ZM23.426 19.2349L23.2999 19.2337C23.1514 19.2318 23.0098 19.2816 22.8937 19.3731C21.4637 20.4995 19.7524 21.2179 17.9679 21.457C18.402 20.8023 18.771 20.1041 19.0704 19.3699C19.14 19.199 19.1363 19.006 19.0605 18.8376C18.9841 18.6692 18.8424 18.5411 18.6691 18.4837C14.3856 17.0633 11.6177 13.8832 11.6177 10.3827C11.6177 5.50146 16.915 1.52977 23.426 1.52977C29.937 1.52977 35.2342 5.50083 35.2342 10.3827C35.2342 15.2645 29.937 19.2356 23.426 19.2356V19.2349ZM32.6322 17.6436C35.1547 15.7174 36.5436 13.1383 36.5436 10.382C36.5436 7.62576 35.1547 5.04671 32.6322 3.12047C31.8775 2.54398 31.047 2.04823 30.1587 1.63573C30.7563 1.56635 31.3626 1.52914 31.9744 1.52914C38.4854 1.52914 43.7826 5.5002 43.7826 10.382C43.7826 13.8826 41.0148 17.0627 36.7312 18.4831C36.5579 18.5405 36.4163 18.6692 36.3399 18.8369C36.2635 19.0054 36.2598 19.1984 36.33 19.3693C36.6294 20.1034 36.9983 20.8017 37.4325 21.457C35.6479 21.2179 33.9366 20.4995 32.5067 19.3731C32.3918 19.2829 32.2508 19.2337 32.1055 19.2337H32.1005L31.9744 19.2349C31.3626 19.2349 30.7569 19.1977 30.1594 19.1283C31.047 18.7158 31.8775 18.2195 32.6322 17.6436ZM16.8802 35.2081C18.3263 33.9429 19.2443 32.0721 19.2443 29.9863C19.2443 26.1856 16.1988 23.0931 12.4557 23.0931C8.71257 23.0931 5.66703 26.1856 5.66703 29.9863C5.66703 32.0721 6.5851 33.9429 8.03116 35.2081C3.29171 36.3529 0.334987 39.2479 0.200195 43.002C0.200195 43.0102 0.200195 43.0184 0.200195 43.026V48.5354C0.200195 48.9025 0.493383 49.2002 0.854898 49.2002H24.0565C24.418 49.2002 24.7112 48.9025 24.7112 48.5354V43.026C24.7112 43.0178 24.7112 43.0096 24.7112 43.002C24.5764 39.2479 21.6197 36.3529 16.8802 35.2081ZM6.97705 29.9863C6.97705 26.9185 9.43498 24.4227 12.4563 24.4227C15.4776 24.4227 17.9356 26.9185 17.9356 29.9863C17.9356 33.0542 15.4776 35.55 12.4563 35.55C9.43498 35.55 6.97705 33.0542 6.97705 29.9863ZM23.4024 47.8706H1.5096V43.0386C1.66427 38.9603 5.76268 36.865 9.61822 36.2463C10.4823 36.6519 11.4426 36.8796 12.4551 36.8796C13.4676 36.8796 14.4285 36.6519 15.2925 36.2463C19.1487 36.8657 23.2471 38.9603 23.4018 43.0386L23.4024 47.8706ZM55.2002 43.002C55.0654 39.2479 52.1087 36.3529 47.3692 35.2081C48.8153 33.9429 49.7334 32.0721 49.7334 29.9863C49.7334 26.1856 46.6878 23.0931 42.9447 23.0931C39.2016 23.0931 36.156 26.1856 36.156 29.9863C36.156 32.0721 37.0741 33.9429 38.5202 35.2081C33.7807 36.3529 30.824 39.2479 30.6892 43.002C30.6892 43.0102 30.6892 43.0184 30.6892 43.026V48.5354C30.6892 48.9025 30.9824 49.2002 31.3439 49.2002H54.5455C54.907 49.2002 55.2002 48.9025 55.2002 48.5354V43.026C55.2002 43.0178 55.2002 43.0096 55.2002 43.002ZM37.4661 29.9863C37.4661 26.9185 39.924 24.4227 42.9453 24.4227C45.9666 24.4227 48.4246 26.9185 48.4246 29.9863C48.4246 33.0542 45.9666 35.55 42.9453 35.55C39.924 35.55 37.4661 33.0542 37.4661 29.9863ZM53.8914 47.8706H31.9992V43.0386C32.1539 38.9603 36.2523 36.865 40.1079 36.2463C40.9719 36.6519 41.9322 36.8796 42.9447 36.8796C43.9572 36.8796 44.9181 36.6519 45.7822 36.2463C49.6383 36.8657 53.7367 38.9603 53.8914 43.0386V47.8706ZM30.3414 6.51378C30.3414 6.88087 30.0482 7.17857 29.6867 7.17857H17.1641C16.8026 7.17857 16.5094 6.88087 16.5094 6.51378C16.5094 6.1467 16.8026 5.849 17.1641 5.849H29.6867C30.0482 5.849 30.3414 6.1467 30.3414 6.51378ZM30.3414 10.382C30.3414 10.7491 30.0482 11.0468 29.6867 11.0468H17.1641C16.8026 11.0468 16.5094 10.7491 16.5094 10.382C16.5094 10.015 16.8026 9.71725 17.1641 9.71725H29.6867C30.0482 9.71725 30.3414 10.015 30.3414 10.382ZM30.3414 14.2503C30.3414 14.6174 30.0482 14.9151 29.6867 14.9151H17.1641C16.8026 14.9151 16.5094 14.6174 16.5094 14.2503C16.5094 13.8832 16.8026 13.5855 17.1641 13.5855H29.6867C30.0482 13.5855 30.3414 13.8832 30.3414 14.2503Z" stroke="#199CA3" stroke-width="0.4" mask="url(#path-1-outside-1_5079_1831)"/>
</svg>
