<svg width="62" height="49" viewBox="0 0 62 49" fill="none" xmlns="http://www.w3.org/2000/svg">
<path fill-rule="evenodd" clip-rule="evenodd" d="M47.3517 29.7517L47.4015 29.7105L46.0379 28.0329C45.0008 28.5747 43.9165 28.9845 42.8129 29.2622V41.418H47.3932C47.8109 41.418 48.1483 41.7535 48.1483 42.1687V43.0185C48.1732 47.5699 48.1815 49 42.0551 49H17.7899C16.1137 49 14.5898 48.318 13.4862 47.2207C12.3826 46.1234 11.6967 44.6081 11.6967 42.9416V11.1913H0.755075C0.337433 11.1913 0 10.8558 0 10.4405V7.84167C0 6.17509 0.685933 4.65982 1.78948 3.56252C2.89306 2.46522 4.41702 1.78323 6.09314 1.78323H32.0039C34.7117 0.325677 37.7431 -0.227125 40.6861 0.0836329C44.4892 0.485147 48.1399 2.33047 50.7342 5.52338C53.3286 8.71347 54.3741 12.6488 53.9703 16.4302C53.6577 19.3508 52.4822 22.1807 50.4825 24.5047L51.8046 26.13L51.8322 26.108C52.1558 25.844 52.6316 25.8935 52.8943 26.2125C52.9109 26.2318 52.9275 26.2538 52.9413 26.2758L61.0345 36.3356C62.2016 37.7849 62.21 39.3222 61.5932 40.4966C61.3553 40.9503 61.0234 41.3463 60.6251 41.6654C60.2296 41.9816 59.7677 42.2209 59.2698 42.3502C58.003 42.6857 56.5316 42.3447 55.3783 40.9118L47.2412 30.7971C46.984 30.4753 47.0336 30.0102 47.3517 29.7517ZM16.2771 35.4142H37.7625C38.1801 35.4142 38.5175 35.0787 38.5175 34.6634C38.5175 34.2482 38.1801 33.9127 37.7625 33.9127H16.2771C15.8594 33.9127 15.522 34.2482 15.522 34.6634C15.522 35.0787 15.8594 35.4142 16.2771 35.4142ZM16.2771 30.4641H28.1562C28.5739 30.4641 28.9113 30.1285 28.9113 29.7133C28.9113 29.298 28.5739 28.9625 28.1562 28.9625H16.2771C15.8594 28.9625 15.522 29.298 15.522 29.7133C15.522 30.1285 15.8594 30.4641 16.2771 30.4641ZM16.2771 25.5139H24.3008C24.7185 25.5139 25.0559 25.1784 25.0559 24.7631C25.0559 24.3479 24.7185 24.0123 24.3008 24.0123H16.2771C15.8594 24.0123 15.522 24.3479 15.522 24.7631C15.522 25.1784 15.8594 25.5139 16.2771 25.5139ZM16.2771 20.5637H22.1103C22.5279 20.5637 22.8654 20.2282 22.8654 19.813C22.8654 19.3977 22.5279 19.0622 22.1103 19.0622H16.2771C15.8594 19.0622 15.522 19.3977 15.522 19.813C15.522 20.2282 15.8594 20.5637 16.2771 20.5637ZM16.2771 15.6136H20.8463C21.2639 15.6136 21.6013 15.2781 21.6013 14.8628C21.6013 14.4475 21.2639 14.112 20.8463 14.112H16.2771C15.8594 14.112 15.522 14.4475 15.522 14.8628C15.522 15.2781 15.8594 15.6136 16.2771 15.6136ZM16.2771 10.6634H22.1103C22.5279 10.6634 22.8654 10.3279 22.8654 9.91263C22.8654 9.49737 22.5279 9.16186 22.1103 9.16186H16.2771C15.8594 9.16186 15.522 9.49737 15.522 9.91263C15.522 10.3279 15.8594 10.6634 16.2771 10.6634ZM43.286 11.527C44.0245 12.44 44.4671 13.6005 44.4671 14.8629C44.4671 16.1252 44.0245 17.2857 43.286 18.1988C43.5682 18.0888 43.853 17.9678 44.1351 17.8358C45.6425 17.1372 47.1637 16.1445 48.6988 14.8629C47.1637 13.5786 45.6425 12.5857 44.1351 11.89C43.8503 11.7579 43.5681 11.637 43.286 11.527ZM34.9331 18.1988C34.1945 17.2857 33.752 16.1252 33.752 14.8629C33.752 13.6005 34.1945 12.44 34.9331 11.527C34.6509 11.637 34.3661 11.758 34.084 11.89C32.5766 12.5885 31.0554 13.5813 29.5203 14.8629C31.0554 16.1444 32.5766 17.14 34.084 17.8358C34.3661 17.9678 34.651 18.0888 34.9331 18.1988ZM41.8284 12.1595C41.1341 11.4665 40.1716 11.0403 39.1095 11.0403C38.0475 11.0403 37.0877 11.4693 36.3907 12.1595C35.6938 12.8498 35.2651 13.8068 35.2651 14.8629C35.2651 15.9189 35.6965 16.8732 36.3907 17.5662C37.085 18.2592 38.0475 18.6855 39.1095 18.6855C40.1716 18.6855 41.1314 18.2564 41.8284 17.5662C42.5226 16.8759 42.954 15.9189 42.954 14.8629C42.954 13.8068 42.5226 12.8525 41.8284 12.1595ZM44.7684 19.1998C46.6299 18.339 48.4913 17.0768 50.3555 15.4239C50.668 15.1489 50.6957 14.6731 50.4163 14.3651C50.3942 14.3404 50.372 14.3184 50.3472 14.2964C48.4857 12.6463 46.6271 11.3868 44.7684 10.5287C42.8848 9.65689 41.0041 9.2004 39.1233 9.16463H39.0984C37.2176 9.19764 35.334 9.65691 33.4505 10.5287C31.589 11.3895 29.7276 12.6518 27.8634 14.3046C27.5509 14.5796 27.5232 15.0554 27.8026 15.3634C27.8247 15.3881 27.8469 15.4101 27.8717 15.4321C29.7332 17.0822 31.5918 18.3418 33.4505 19.1998C35.3341 20.0716 37.2148 20.5281 39.0984 20.5639H39.1233C41.0013 20.5281 42.8849 20.0716 44.7684 19.1998ZM47.349 27.2631L48.5687 28.7646L50.6376 27.0816L49.4372 25.6047C49.1385 25.888 48.826 26.1602 48.5024 26.4215C48.1262 26.724 47.7417 27.0018 47.349 27.2631ZM48.9366 23.9794L48.9449 23.9711C50.9805 21.8041 52.1726 19.087 52.4714 16.2733C52.8337 12.8742 51.8933 9.33475 49.5589 6.46338C47.2273 3.59503 43.947 1.93669 40.5255 1.57644C37.8398 1.29318 35.0657 1.81019 32.6016 3.16874C32.5767 3.18524 32.549 3.20174 32.5186 3.21274C31.8741 3.573 31.2518 3.99104 30.6599 4.46957C27.7752 6.78793 26.1073 10.0496 25.745 13.4516C25.3827 16.8507 26.3231 20.3901 28.6575 23.2615C30.9891 26.1298 34.2694 27.7882 37.6909 28.1484C39.0738 28.2942 40.4789 28.2282 41.8535 27.9449C41.8812 27.9367 41.9116 27.9312 41.942 27.9257C43.9362 27.4994 45.8613 26.6139 47.5567 25.2525C48.0518 24.8565 48.5134 24.4277 48.9366 23.9794ZM29.7163 3.3042L29.7356 3.29045H11.1215C11.6553 3.75523 12.1061 4.31073 12.4518 4.93225C12.9331 5.79855 13.2069 6.7913 13.2069 7.8446V42.9467C13.2069 44.198 13.7213 45.3366 14.5538 46.1616C15.3836 46.9867 16.5287 47.5009 17.7871 47.5009H18.8105C23.4212 47.5009 23.4156 46.4311 23.3963 43.0292C23.3935 42.5067 23.3908 42.4104 23.3908 42.1739C23.3908 41.7587 23.7282 41.4231 24.1459 41.4231L41.3 41.4204V29.5646C40.0499 29.7488 38.7831 29.7708 37.5329 29.6388C33.7299 29.2373 30.0792 27.392 27.4849 24.1991C24.8904 21.009 23.845 17.0736 24.2488 13.2923C24.6499 9.51361 26.5057 5.88379 29.7169 3.30352L29.7163 3.3042ZM42.0578 42.922H24.9064V43.0182C24.9175 45.1221 24.9258 46.5603 24.3256 47.4982H42.0519C46.6626 47.4982 46.657 46.4284 46.6377 43.0265V42.9247L42.0578 42.922ZM7.11642 3.29012H6.09306C4.83463 3.29012 3.68955 3.80164 2.85978 4.6294C2.03 5.45445 1.51283 6.593 1.51283 7.84427V9.6896H11.6997V7.84427C11.6997 7.05224 11.495 6.30421 11.1327 5.65517C10.7593 4.98139 10.2144 4.40939 9.55889 3.99408C9.1938 3.76308 8.80105 3.58432 8.38896 3.46606C7.99068 3.35056 7.56448 3.29012 7.11642 3.29012ZM52.2 27.7523L48.8838 30.4474L56.5535 39.982C57.2726 40.8758 58.1494 41.1013 58.8879 40.9033C59.1755 40.8263 59.4466 40.6861 59.6817 40.4991C59.9168 40.312 60.1131 40.0755 60.2542 39.806C60.6193 39.113 60.5944 38.1834 59.8614 37.2704L52.2 27.7523Z" fill="#199CA3"/>
</svg>
