<svg width="109" height="41" viewBox="0 0 109 41" fill="none" xmlns="http://www.w3.org/2000/svg">
<path d="M6.98279 14.6721H10.6343V34.6955H6.98279V14.6721Z" fill="white"/>
<path d="M24.1434 14.6721C25.5672 14.6721 26.8412 14.9581 27.9789 15.5232C29.1166 16.0883 30.0158 16.8712 30.6562 17.8857C31.3102 18.9001 31.6372 20.0439 31.6372 21.3307C31.6372 22.6175 31.3102 23.7613 30.6562 24.7757C30.0022 25.7902 29.1098 26.5732 27.9789 27.1382C26.8412 27.7033 25.5672 27.9893 24.1434 27.9893H19.0681V34.7228H15.4166V14.6721H24.1434ZM26.7594 23.7273C27.5361 23.1349 27.9244 22.3383 27.9244 21.3239C27.9244 20.3095 27.5361 19.5129 26.7594 18.9205C25.9828 18.3282 24.9609 18.0286 23.7006 18.0286H19.0681V24.6191H23.7006C24.9609 24.6055 25.9828 24.3128 26.7594 23.7204V23.7273Z" fill="white"/>
<path d="M43.4365 30.3518H33.5447L33.1973 27.5195L42.7075 14.6653H47.0539V27.2267H49.8266V30.345H47.0539V34.6887H43.4365V30.3518ZM43.4365 27.2335V18.6414L37.0736 27.2335H43.4365Z" fill="white"/>
<path d="M81.607 12.4457C80.2036 10.1173 78.3233 8.26538 75.9526 6.87647C75.1623 6.4135 74.3653 6.03904 73.541 5.73267C72.996 7.65263 73.6227 9.72918 75.1555 11.016C76.3545 12.0168 77.608 13.2219 78.1326 14.1206C79.1681 15.918 79.6858 17.8584 79.6858 19.9349C79.6858 22.0115 79.1613 23.9927 78.1326 25.7901C77.0903 27.5875 75.7073 29.0309 73.9702 30.093C72.233 31.1687 70.3595 31.6998 68.343 31.6998C66.3265 31.6998 64.4463 31.1687 62.6955 30.093C60.9446 29.0173 59.5481 27.5875 58.5126 25.7901C57.4703 23.9927 56.9593 22.0387 56.9593 19.9349C56.9593 17.8311 57.4839 15.918 58.5126 14.1206C59.0167 13.2491 60.2021 12.1053 61.333 11.1453C62.8862 9.81769 63.5198 7.7139 62.9816 5.74628C62.1709 6.05266 61.3738 6.43393 60.6108 6.88328C58.2401 8.27219 56.3462 10.1241 54.9224 12.4525C53.5122 14.781 52.8037 17.3001 52.8037 20.0166C52.8037 22.7332 53.5122 25.2591 54.9224 27.6011C56.3462 29.9432 58.2265 31.8087 60.6108 33.1908C62.9816 34.5729 65.5431 35.2674 68.2817 35.2674C71.0203 35.2674 73.5818 34.5729 75.9526 33.1908C78.3233 31.8087 80.2036 29.9432 81.607 27.6011C83.0103 25.2591 83.7052 22.7332 83.7052 20.0166C83.7052 17.3001 83.0103 14.7742 81.607 12.4457Z" fill="white"/>
<path d="M89.7683 34.1985C88.3173 33.647 87.0297 32.8368 85.9056 31.7951L88.0039 29.2012C90.0068 31.0122 92.2072 31.9109 94.5984 31.9109C96.9896 31.9109 96.7035 31.6522 97.3711 31.1552C98.0387 30.6581 98.3657 30.0182 98.3657 29.2624C98.3657 28.5067 98.2022 28.282 97.882 27.9348C97.5618 27.5944 97.085 27.3016 96.4514 27.0565C95.8178 26.8114 94.9049 26.5527 93.7196 26.2804C92.1663 25.9127 90.8856 25.5042 89.8978 25.0753C88.9031 24.6327 88.1197 24.0404 87.5475 23.2983C86.9752 22.5494 86.6891 21.569 86.6891 20.3639C86.6891 19.1588 86.9956 18.1852 87.6088 17.2593C88.2219 16.3401 89.0803 15.6116 90.1771 15.0942C91.2739 14.57 92.5206 14.3044 93.8967 14.3044C95.2728 14.3044 96.792 14.5427 98.0387 15.0193C99.2854 15.5027 100.43 16.1972 101.486 17.1027L99.5034 19.7784C98.6246 19.0226 97.7049 18.4371 96.7239 18.0286C95.7429 17.6201 94.7483 17.4159 93.7673 17.4159C92.7863 17.4159 91.9688 17.6746 91.3352 18.192C90.7016 18.7027 90.3814 19.329 90.3814 20.0439C90.3814 20.7588 90.7289 21.4124 91.4374 21.8141C92.1323 22.2158 93.3381 22.6038 95.0548 22.9987C97.3643 23.523 99.1015 24.2174 100.28 25.0821C101.445 25.9536 102.031 27.2267 102.031 28.9152C102.031 30.6037 101.731 31.1824 101.138 32.1015C100.546 33.0206 99.6737 33.7491 98.5428 34.2598C97.4051 34.7704 96.0563 35.0359 94.503 35.0359C92.8067 35.0291 91.233 34.75 89.7751 34.1985H89.7683Z" fill="white"/>
<path d="M61.9802 19.4583H61.2853C60.9855 19.4583 60.7539 19.6965 60.7539 19.9893C60.7539 20.2821 60.9923 20.5204 61.2853 20.5204H61.9802C62.2799 20.5204 62.5115 20.2821 62.5115 19.9893C62.5115 19.6965 62.2663 19.4583 61.9802 19.4583Z" fill="white"/>
<path d="M64.0989 15.0806L63.404 14.3861C63.1996 14.1818 62.859 14.1818 62.6546 14.3861C62.4502 14.5903 62.4502 14.9308 62.6546 15.135L63.3495 15.8295C63.4517 15.9316 63.5879 15.9861 63.731 15.9861C63.8741 15.9861 64.0103 15.9316 64.1125 15.8295C64.3101 15.6252 64.3101 15.2848 64.0989 15.0806Z" fill="white"/>
<path d="M68.2477 14.2431C68.5474 14.2431 68.7791 14.0048 68.7791 13.7121V13.0176C68.7791 12.7181 68.5406 12.4866 68.2477 12.4866C67.9547 12.4866 67.7163 12.7249 67.7163 13.0176V13.7121C67.7163 14.0116 67.9616 14.2431 68.2477 14.2431Z" fill="white"/>
<path d="M75.2237 19.4583H74.5288C74.2291 19.4583 73.9974 19.6965 73.9974 19.9893C73.9974 20.2821 74.2359 20.5204 74.5288 20.5204H75.2237C75.5234 20.5204 75.7551 20.2821 75.7551 19.9893C75.7551 19.6965 75.5166 19.4583 75.2237 19.4583Z" fill="white"/>
<path d="M69.651 26.4302H66.8579C66.5582 26.4302 66.3265 26.6685 66.3265 26.9612C66.3265 27.254 66.565 27.4923 66.8579 27.4923H69.651C69.9508 27.4923 70.1824 27.254 70.1824 26.9612C70.1824 26.6685 69.9372 26.4302 69.651 26.4302Z" fill="white"/>
<path d="M73.8544 14.3861C73.65 14.1818 73.3094 14.1818 73.105 14.3861L72.4101 15.0806C72.2057 15.2848 72.2057 15.6252 72.4101 15.8295C72.6145 16.0337 72.6486 15.9861 72.7916 15.9861C72.9347 15.9861 73.0709 15.9316 73.1731 15.8295L73.868 15.135C74.0724 14.9308 74.0724 14.5903 73.8544 14.3861Z" fill="white"/>
<path d="M68.2476 15.9724C66.0268 15.9724 64.2283 17.7698 64.2283 19.9893C64.2283 22.2089 65.039 22.808 66.3265 23.5161V24.8641C66.3265 25.1637 66.565 25.3952 66.8579 25.3952H69.651C69.9508 25.3952 70.1824 25.1569 70.1824 24.8641V23.5161C71.4631 22.8216 72.2806 21.4736 72.2806 19.9893C72.267 17.7698 70.4685 15.9724 68.2545 15.9724H68.2476Z" fill="white"/>
</svg>
