<svg width="54" height="59" viewBox="0 0 54 59" fill="none" xmlns="http://www.w3.org/2000/svg">
<path d="M53.9253 25.6454C53.8983 25.2628 53.6445 24.9374 53.2863 24.8277L51.0561 24.1427C50.9301 23.2292 50.7555 22.3295 50.5323 21.4574L52.3431 19.9566C52.6347 19.7141 52.7499 19.3122 52.6302 18.9462C52.2081 17.6584 51.7005 16.413 51.1218 15.245C50.9526 14.9057 50.5971 14.7168 50.2272 14.7453L47.916 14.9905C47.4579 14.2042 46.9602 13.4446 46.4301 12.7191L47.5371 10.6265C47.7153 10.29 47.6721 9.87609 47.4282 9.5857C46.5741 8.56797 45.6363 7.60832 44.6418 6.73163C44.3583 6.48181 43.9533 6.43756 43.6257 6.62009L41.5827 7.75397C40.8753 7.211 40.1328 6.70121 39.366 6.23291L39.6036 3.86558C39.6414 3.48577 39.4479 3.12164 39.1158 2.94925C37.9773 2.3565 36.7623 1.83749 35.5023 1.4033C35.1459 1.28069 34.7526 1.39777 34.5159 1.69737L33.0507 3.55215C32.1984 3.32445 31.3209 3.14561 30.429 3.01562L29.7594 0.731263C29.6514 0.364364 29.3337 0.103478 28.9611 0.0767446C27.5553 -0.0255815 26.4411 -0.0255815 25.0362 0.0767446C24.6627 0.103478 24.345 0.364364 24.2379 0.731263L23.5683 3.01562C22.6773 3.14561 21.7998 3.32445 20.9466 3.55215L19.4814 1.69737C19.2447 1.39777 18.8496 1.27977 18.495 1.4033C17.2359 1.83749 16.02 2.3565 14.8815 2.94925C14.5494 3.12256 14.3559 3.48577 14.3937 3.86558L14.6313 6.23291C13.8645 6.70213 13.122 7.21192 12.4146 7.75397L10.3716 6.62009C10.044 6.43848 9.6399 6.48273 9.3555 6.73163C8.361 7.60832 7.4241 8.56797 6.5691 9.5857C6.3252 9.87516 6.282 10.29 6.4602 10.6265L7.5672 12.7191C7.0371 13.4446 6.5385 14.2042 6.0813 14.9905L3.7701 14.7463C3.4011 14.7131 3.0447 14.9057 2.8755 15.2459C2.2968 16.4139 1.7892 17.6584 1.3671 18.9472C1.2474 19.3122 1.3626 19.7151 1.6542 19.9575L3.4668 21.4611C3.2418 22.3589 3.0654 23.2568 2.9421 24.1437L0.711 24.8286C0.3528 24.9383 0.0980999 25.2637 0.0719999 25.6463C0.0242999 26.3589 0 27.0171 0 27.6569C0 28.2966 0.0242999 28.9548 0.0746999 29.6684C0.1017 30.0509 0.3555 30.3763 0.7137 30.486L2.9439 31.171C3.0699 32.0845 3.2445 32.9843 3.4677 33.8563L1.6569 35.3571C1.3653 35.5996 1.2501 36.0015 1.3698 36.3675C1.7919 37.6553 2.2995 38.9008 2.8782 40.0687C3.0474 40.4089 3.4074 40.5997 3.7728 40.5684L6.0849 40.3241C6.1542 40.4403 6.228 40.5564 6.3 40.6726V58.0781C6.3 58.5879 6.7032 59 7.2 59H46.8C47.2968 59 47.7 58.5879 47.7 58.0781V40.6726C47.772 40.5564 47.8458 40.4412 47.9151 40.3232L50.2272 40.5675C50.5935 40.5951 50.9526 40.4071 51.1218 40.0678C51.7005 38.8998 52.2081 37.6553 52.6302 36.3666C52.7499 36.0015 52.6347 35.5987 52.3431 35.3562L50.5323 33.8554C50.7546 32.9834 50.9301 32.0836 51.0561 31.1701L53.2863 30.4851C53.6445 30.3754 53.8992 30.05 53.9253 29.6674C53.9757 28.9548 54 28.2966 54 27.6569C54 27.0171 53.9757 26.3589 53.9253 25.6454ZM45.9 57.1563H8.1V26.735H9.9V54.3907C9.9 54.9005 10.3032 55.3126 10.8 55.3126H43.2C43.6968 55.3126 44.1 54.9005 44.1 54.3907V26.735H45.9V57.1563ZM11.7 53.4689V23.9694H26.1V53.4689H11.7ZM27.9 23.9694H42.3V53.4689H27.9V23.9694ZM13.6413 22.1257C15.8274 16.5632 21.0492 12.9072 27 12.9072C32.9508 12.9072 38.1726 16.5632 40.3587 22.1257H13.6413ZM52.1685 28.9041L49.9797 29.5762C49.635 29.6822 49.3857 29.9873 49.3443 30.3533C49.2048 31.5849 48.9699 32.7898 48.645 33.9356C48.5442 34.2924 48.6621 34.6768 48.9429 34.91L50.7195 36.3832C50.4414 37.1686 50.13 37.9337 49.7889 38.6684L47.7 38.4472V25.8131C47.7 25.3034 47.2968 24.8913 46.8 24.8913H44.1V23.0476C44.1 22.5378 43.6968 22.1257 43.2 22.1257H42.2703C39.9816 15.4847 33.9354 11.0634 27 11.0634C20.0646 11.0634 14.0184 15.4847 11.7297 22.1257H10.8C10.3032 22.1257 9.9 22.5378 9.9 23.0476V24.8913H7.2C6.7032 24.8913 6.3 25.3034 6.3 25.8131V38.4472L4.212 38.6666C3.8709 37.9319 3.5595 37.1667 3.2814 36.3813L5.058 34.9082C5.3388 34.675 5.4567 34.2905 5.3559 33.9338C5.031 32.7879 4.7952 31.5831 4.6566 30.3515C4.6152 29.9864 4.3659 29.6803 4.0212 29.5743L1.8324 28.9023C1.8108 28.4718 1.8 28.0606 1.8 27.6569C1.8 27.2531 1.8108 26.841 1.8315 26.4096L4.0203 25.7376C4.365 25.6315 4.6143 25.3264 4.6557 24.9604C4.7889 23.7832 5.0247 22.5756 5.3568 21.3716C5.4549 21.0158 5.337 20.636 5.0571 20.4037L3.2805 18.9306C3.5586 18.1451 3.87 17.38 4.2111 16.6453L6.4773 16.884C6.8337 16.9154 7.1766 16.7402 7.3521 16.4213C7.9443 15.3519 8.6148 14.3268 9.3465 13.3736C9.5688 13.0851 9.6021 12.6877 9.4302 12.3642L8.3439 10.3121C8.8884 9.6954 9.4653 9.10449 10.0674 8.54585L12.0708 9.65853C12.3858 9.83368 12.7728 9.79957 13.0563 9.57279C13.9851 8.82425 14.9859 8.13654 16.0308 7.52996C16.3413 7.34927 16.5186 6.99805 16.4817 6.63299L16.2504 4.31544C16.9668 3.96606 17.7138 3.6471 18.4815 3.36224L19.9188 5.18199C20.1465 5.46961 20.5209 5.59222 20.8692 5.48712C21.9906 5.15525 23.1678 4.91373 24.3675 4.77084C24.7239 4.72843 25.0227 4.47308 25.1262 4.12001L25.7823 1.87805C26.631 1.83473 27.3681 1.83473 28.2168 1.87805L28.8729 4.12001C28.9764 4.47308 29.2743 4.72843 29.6316 4.77084C30.8313 4.91373 32.0085 5.15525 33.1299 5.48712C33.4764 5.59222 33.8526 5.46961 34.0803 5.18199L35.5176 3.36224C36.2853 3.64802 37.0323 3.96606 37.7487 4.31544L37.5165 6.63668C37.4796 7.00173 37.6569 7.35204 37.9674 7.53365C39.0123 8.14023 40.0131 8.82793 40.9419 9.57648C41.2236 9.80326 41.6106 9.83737 41.9274 9.66221L43.9308 8.54953C44.5329 9.10818 45.1098 9.69909 45.6543 10.3158L44.568 12.3679C44.397 12.6914 44.4294 13.0878 44.6517 13.3773C45.3825 14.3296 46.0539 15.3556 46.6461 16.425C46.8225 16.7439 47.1717 16.9181 47.5209 16.8877L49.7871 16.649C50.1282 17.3837 50.4396 18.1488 50.7177 18.9343L48.9411 20.4074C48.6603 20.6406 48.5424 21.025 48.6432 21.3818C48.9681 22.5277 49.2039 23.7325 49.3425 24.9641C49.3839 25.3292 49.6332 25.6352 49.9779 25.7412L52.1667 26.4133C52.1892 26.841 52.2 27.2531 52.2 27.6569C52.2 28.0606 52.1892 28.4718 52.1685 28.9041Z" fill="#199CA3"/>
<path d="M40.5 27.6572H29.7V29.5009H40.5V27.6572Z" fill="#199CA3"/>
<path d="M40.5 31.3442H29.7V33.188H40.5V31.3442Z" fill="#199CA3"/>
<path d="M40.5 35.0317H31.5V36.8755H40.5V35.0317Z" fill="#199CA3"/>
<path d="M40.5 38.7192H29.7V40.563H40.5V38.7192Z" fill="#199CA3"/>
<path d="M40.5 42.4067H29.7V44.2505H40.5V42.4067Z" fill="#199CA3"/>
<path d="M40.5 46.0942H29.7V47.938H40.5V46.0942Z" fill="#199CA3"/>
<path d="M40.5 49.7817H29.7V51.6255H40.5V49.7817Z" fill="#199CA3"/>
<path d="M24.3 27.6572H15.3V29.5009H24.3V27.6572Z" fill="#199CA3"/>
<path d="M24.3 31.3442H13.5V33.188H24.3V31.3442Z" fill="#199CA3"/>
<path d="M24.3 35.0317H13.5V36.8755H24.3V35.0317Z" fill="#199CA3"/>
<path d="M24.3 38.7192H13.5V40.563H24.3V38.7192Z" fill="#199CA3"/>
<path d="M24.3 42.4067H13.5V44.2505H24.3V42.4067Z" fill="#199CA3"/>
<path d="M24.3 46.0942H13.5V47.938H24.3V46.0942Z" fill="#199CA3"/>
<path d="M24.3 49.7817H13.5V51.6255H24.3V49.7817Z" fill="#199CA3"/>
</svg>
