<svg width="59" height="58" viewBox="0 0 59 58" fill="none" xmlns="http://www.w3.org/2000/svg">
<path fill-rule="evenodd" clip-rule="evenodd" d="M11.4955 28.4891C11.3779 28.2833 11.2652 28.0775 11.1526 27.8668C10.398 26.4312 9.76104 24.9417 9.40827 23.3542C9.18778 22.3743 9.24168 21.2082 8.80071 20.2919C8.37934 19.41 7.49741 18.6995 6.79676 18.0479C5.89523 17.21 5.03778 16.3232 4.19014 15.4315C3.3278 14.5201 2.50957 13.5696 1.65703 12.6485C1.57373 12.5554 1.26014 12.183 1.16705 12.0654C0.74078 11.8841 0.471307 11.4285 0.539902 10.9483C0.623197 10.3701 1.16216 9.97325 1.73542 10.0565C1.9804 10.0908 2.28907 10.228 2.57325 10.4877C2.81823 10.7131 3.08282 11.0806 3.20531 11.2129C4.05295 12.1291 4.86139 13.0747 5.71883 13.9763C6.53708 14.8386 7.36022 15.6912 8.23236 16.4996C9.1143 17.3227 10.1677 18.2684 10.7018 19.3806C11.2113 20.4389 11.2113 21.7618 11.4661 22.8887C11.7797 24.2949 12.3481 25.613 13.0193 26.882C15.2291 31.0712 18.9479 34.4225 22.6226 37.5044C22.5688 36.8675 22.6324 36.2207 22.9166 35.6719C23.093 35.329 23.3086 35.0644 23.5585 34.8782C23.1469 34.4813 22.7402 34.0845 22.3385 33.6778C20.5746 31.8943 18.8401 29.8953 17.9974 27.4846C17.7916 26.9016 17.5613 26.0539 17.6054 25.2994C17.6495 24.5938 17.9092 23.9569 18.453 23.5012C18.7078 23.2905 18.9871 23.1533 19.286 23.0749C19.3252 22.6291 19.4036 22.1881 19.531 21.7471C20.0307 20.0322 21.5251 18.3909 23.5389 18.9984C23.6712 19.0425 23.8035 19.0866 23.9357 19.1405C23.9406 19.1209 23.9504 19.0964 23.9553 19.0768C24.3179 17.9254 25.2489 17.2345 26.4052 17.0337C28.0662 16.7397 29.6438 17.5971 30.9717 18.5525C31.0353 18.3517 31.104 18.1557 31.1921 17.9597C31.5057 17.259 31.9565 16.6123 32.5591 16.2252C31.4959 15.2012 30.418 14.1919 29.2813 13.2413C28.2964 12.4182 27.3018 11.5558 26.1308 11.0022C25.6849 10.7866 25.2587 10.6592 24.7638 10.6984C24.2346 10.7376 23.7643 10.8748 23.2939 10.9483C22.6373 11.0463 21.9759 11.0561 21.2311 10.7915C20.3786 10.4877 19.2517 9.72827 18.0562 8.71405C15.5083 6.5582 12.5441 3.26073 11.226 1.74673C10.8439 1.31066 10.888 0.644312 11.3289 0.262139C11.765 -0.124934 12.4314 -0.0759394 12.8135 0.36013C14.0923 1.82513 16.9537 5.01481 19.4232 7.10696C20.3786 7.9154 21.2507 8.56215 21.9318 8.80224C22.407 8.96883 22.8137 8.89533 23.2351 8.81694C23.6663 8.73364 24.1121 8.63565 24.5923 8.59645C25.4742 8.52296 26.2435 8.71894 27.0323 9.09132C27.8653 9.48819 28.6247 10.0125 29.3548 10.5759C29.5557 10.3799 29.781 10.2133 30.0064 10.0565C31.2117 9.2481 32.6228 8.75324 34.0339 8.45926C35.4009 8.17998 36.8365 8.09179 38.1447 7.57732C38.62 7.39604 39.3109 6.77868 40.0948 6.02903C42.1821 4.03487 44.7005 1.01669 45.161 0.414029C45.5138 -0.0465384 46.1802 -0.134732 46.6408 0.218043C47.1013 0.570818 47.1895 1.23227 46.8367 1.69774C46.3566 2.3249 43.7304 5.47047 41.5549 7.55283C40.5113 8.54746 39.5411 9.2971 38.914 9.54209C37.4931 10.1006 35.9448 10.2182 34.4602 10.5269C33.3137 10.7621 32.1623 11.1492 31.1872 11.8057C31.1284 11.8498 31.0647 11.889 31.0011 11.9331C32.7208 13.403 34.323 14.9954 35.9497 16.5682C36.2584 16.7544 36.5622 16.9602 36.8414 17.1611C38.3358 18.2145 39.6489 19.4786 40.9424 20.7623C42.7602 22.5556 44.6956 24.4321 46.4154 26.4655C47.0817 25.2357 47.7089 23.9863 47.949 22.5997C48.0665 21.9137 47.8657 21.1543 47.8118 20.4242C47.7579 19.6942 47.8118 18.9935 48.1058 18.3566C48.5467 17.4207 49.3307 16.6466 50.0705 15.941C51.1631 14.8925 52.344 13.942 53.5199 12.9865C54.6125 12.0997 55.7149 11.2227 56.8026 10.3211C57.2485 9.95365 57.9149 10.0125 58.2872 10.4632C58.6596 10.9091 58.5959 11.5754 58.15 11.9478C57.0574 12.8494 55.9501 13.7313 54.8477 14.623C53.7208 15.5442 52.584 16.4555 51.5306 17.4648C50.9769 17.994 50.3498 18.5477 50.0215 19.2532C49.8255 19.6697 49.8941 20.1498 49.948 20.6398C50.0362 21.4237 50.1538 22.2273 50.0264 22.9573C49.6981 24.8682 48.7525 26.5684 47.8314 28.2539C49.7912 30.9095 51.2562 33.8395 51.5845 37.1908C51.6776 37.279 51.7903 37.3917 51.8197 37.426C52.2558 37.9111 52.6918 38.4011 53.1181 38.9008C54.882 40.9685 56.7389 42.9479 58.6547 44.8735C59.0663 45.2851 59.0663 45.9563 58.6547 46.3679C58.2431 46.7795 57.5719 46.7746 57.1603 46.363C55.2053 44.4031 53.3092 42.3796 51.511 40.2678C51.1043 39.7926 50.6879 39.3222 50.2714 38.8567C50.2714 38.8567 50.2518 38.8322 50.242 38.8273C50.1538 38.7391 49.8549 38.4598 49.752 38.3129C49.5805 38.0728 49.5217 37.8425 49.507 37.6759C49.0269 31.228 43.8039 26.5537 39.4628 22.2616C38.2476 21.0612 37.0227 19.8706 35.6263 18.8808C35.4597 18.7632 35.2883 18.6407 35.1119 18.5232C34.9502 18.4742 34.7983 18.3909 34.6709 18.2684C34.6611 18.2586 34.6513 18.2488 34.6415 18.239C34.4161 18.1214 34.1809 18.0283 33.9359 17.9744C33.7498 17.9352 33.6175 18.0381 33.5146 18.1557C33.348 18.3468 33.2255 18.5819 33.1177 18.8171C33.005 19.0719 32.9315 19.3365 32.8629 19.6011C32.8482 19.6599 32.8286 19.7138 32.8188 19.7726C32.8286 19.6991 32.8139 19.4786 32.8139 19.4786C32.8139 19.4786 32.7404 19.6354 32.613 19.8363C34.8963 21.7324 36.9737 23.8638 38.8699 26.147C39.2374 26.5978 39.1786 27.2641 38.7278 27.6316C38.2819 28.004 37.6156 27.9452 37.2432 27.4944C35.1755 25.0005 32.8874 22.6977 30.3298 20.7084C29.7712 20.2723 29.1441 19.7922 28.4728 19.4541C27.9339 19.1846 27.3655 19.0082 26.7727 19.1111C26.4052 19.1748 26.0818 19.3512 25.9691 19.7089C25.9348 19.8167 25.9201 19.9196 25.9348 20.0273C25.9348 20.042 25.9397 20.0763 25.9397 20.0763C25.9397 20.0763 25.925 20.0322 25.9201 20.0077C25.8809 19.9147 25.6996 19.6697 25.6996 19.6697C25.6996 19.6697 26.0671 20.2723 26.0769 20.4046C26.0769 20.4389 26.0769 20.4732 26.0769 20.5075C26.9441 21.2327 27.7428 22.0705 28.4679 22.7516C31.1627 25.2847 33.7596 27.9109 36.1996 30.689C36.5867 31.1251 36.5426 31.7914 36.1065 32.1785C35.6704 32.5607 35.0041 32.5166 34.617 32.0805C32.2211 29.3563 29.6732 26.7742 27.0225 24.29C25.8515 23.1925 24.5237 21.5021 22.9264 21.0171C22.5492 20.9044 22.265 21.1053 22.0494 21.365C21.8191 21.6442 21.6525 21.997 21.5545 22.34C21.4516 22.6879 21.3977 23.0455 21.3732 23.413C22.0249 23.7315 22.6373 24.1921 23.0244 24.4762C23.2204 24.6232 23.4164 24.7702 23.6075 24.9221C26.6747 27.3866 29.4381 30.3362 32.1035 33.227C32.5003 33.6533 32.471 34.3196 32.0447 34.7165C31.6184 35.1085 30.9472 35.084 30.5552 34.6577C27.9584 31.8404 25.2734 28.9692 22.2846 26.5684C22.118 26.4312 21.9465 26.2989 21.7701 26.1715C21.4516 25.9363 20.942 25.5346 20.4031 25.2798C20.2512 25.2112 20.0944 25.1524 19.9474 25.1279C19.8935 25.1181 19.8445 25.0936 19.8053 25.123C19.6682 25.2357 19.7024 25.4317 19.7122 25.613C19.7367 26.0343 19.8788 26.4704 19.9915 26.7889C20.7314 28.9006 22.2944 30.6302 23.8377 32.1981C24.4796 32.8448 25.1411 33.4622 25.778 34.109C25.9838 34.3147 26.1798 34.5254 26.3709 34.741L26.4003 34.7753C26.4346 34.8047 26.4836 34.8635 26.5424 34.9223C26.7286 35.0154 26.9098 35.1183 27.0666 35.2212C29.051 36.5 30.8688 38.3325 32.3975 40.1159C32.7796 40.5569 32.7257 41.2233 32.2848 41.6054C31.8438 41.9827 31.1774 41.9337 30.7953 41.4878C29.394 39.8563 27.7428 38.1659 25.925 36.9949C25.7976 36.9116 25.6555 36.8283 25.5036 36.7597C25.4448 36.7352 25.386 36.7107 25.3272 36.6813C25.2587 36.6568 25.1901 36.6323 25.1215 36.6176C24.999 36.5833 24.8569 36.5049 24.7932 36.6372C24.6854 36.843 24.6903 37.083 24.7099 37.3231C24.7442 37.6857 24.8471 38.0434 24.95 38.3521C25.5232 40.0669 26.7041 41.5466 27.9927 42.7813C28.561 43.3252 29.1686 43.8299 29.781 44.3296C29.9917 44.5011 30.2122 44.6726 30.4278 44.8441C30.4964 44.8931 30.5601 44.947 30.6238 45.0009C30.6238 45.0009 30.6973 45.0646 30.7806 45.1479C30.8492 45.192 30.9961 45.29 31.0451 45.3292C31.1921 45.4565 31.3391 45.5742 31.4959 45.6868C31.9761 46.0298 32.4955 46.3287 33.0344 46.5639C33.9212 46.9558 34.9012 47.1665 35.8664 47.0881C36.6455 47.0244 37.4196 46.7697 38.2035 46.7746C40.6828 46.7795 42.378 48.6168 43.8479 50.3513C45.4844 52.2818 47.1503 54.1877 48.7721 56.1231C49.1494 56.569 49.0906 57.2353 48.6447 57.6126C48.1988 57.985 47.5325 57.9262 47.1601 57.4803C45.5334 55.5449 43.8724 53.6439 42.2409 51.7134C41.648 51.0128 41.0257 50.268 40.3006 49.6996C39.6979 49.2293 39.0218 48.8863 38.1986 48.8814C37.4735 48.8814 36.7581 49.1313 36.0379 49.1901C34.7199 49.2979 33.3872 49.0284 32.1819 48.4943C31.5155 48.2004 30.8737 47.8329 30.2808 47.4115C30.0848 47.2743 29.9084 47.1273 29.732 46.9804C29.7222 46.9706 29.6977 46.951 29.6781 46.9314C29.6438 46.902 29.5948 46.8579 29.5458 46.8138L29.5312 46.804C29.443 46.9118 29.3352 47.0048 29.2078 47.0734C27.3802 48.0632 25.5575 49.1411 23.485 49.4988C22.7549 49.6213 21.9563 49.5086 21.1674 49.4204C20.6824 49.3665 20.1973 49.293 19.7808 49.489C19.0753 49.8221 18.5216 50.4444 17.9925 50.9981C16.9831 52.0515 16.0718 53.1882 15.1556 54.32C14.2589 55.4176 13.3819 56.5298 12.4754 57.6175C12.1031 58.0683 11.4367 58.1271 10.9909 57.7596C10.545 57.3872 10.4813 56.7209 10.8537 56.2701C11.7503 55.1873 12.6273 54.0848 13.5191 52.9922C14.4696 51.8163 15.4202 50.6355 16.4687 49.5429C17.1742 48.803 17.9484 48.0191 18.8891 47.5781C19.5212 47.2841 20.2267 47.2253 20.9519 47.2792C21.6819 47.3331 22.4463 47.5389 23.1273 47.4213C24.8226 47.1273 26.317 46.2552 27.8065 45.437C27.3704 45.0695 26.9441 44.6971 26.5326 44.3051C25.6555 43.4624 24.8324 42.5217 24.1562 41.4878C24.0778 41.4486 23.9994 41.3996 23.9308 41.3408C20.0111 38.0532 15.6406 34.5891 12.6469 30.3019C12.6273 30.3068 12.6126 30.3068 12.593 30.3117C12.4951 30.4146 12.4167 30.542 12.3383 30.6596C11.6768 31.6346 11.2946 32.7861 11.0546 33.9326C10.7508 35.4123 10.6283 36.9655 10.0746 38.3863C9.82964 39.0135 9.07999 39.9836 8.08046 41.0224C6.00301 43.1978 2.85743 45.824 2.22537 46.3091C1.75991 46.6619 1.09846 46.5737 0.745687 46.1131C0.392912 45.6476 0.481092 44.9862 0.941659 44.6334C1.54922 44.1679 4.56252 41.6495 6.55668 39.5672C7.30633 38.7832 7.92367 38.0875 8.10986 37.6171C8.61942 36.304 8.70762 34.8733 8.9918 33.5063C9.28088 32.0903 9.77575 30.6792 10.5891 29.4788C10.8341 29.1113 11.1232 28.7487 11.4906 28.494L11.4955 28.4891Z" fill="#199CA3"/>
</svg>
