<svg width="58" height="58" viewBox="0 0 58 58" fill="none" xmlns="http://www.w3.org/2000/svg">
<path d="M0.00183829 57.0099C0.190651 49.2306 3.49373 42.0265 8.6761 36.9589C8.70567 36.9295 8.73524 36.9 8.76482 36.8706C8.76709 36.8683 8.76937 36.8661 8.77164 36.8638C13.7172 32.0702 20.5644 28.962 27.9715 28.697C27.9351 28.2258 27.8896 27.7161 27.8441 27.4125C27.7395 26.7443 27.6075 26.1915 27.4437 25.6772C27.1252 24.6714 26.7567 24.0167 26.3518 23.4911C25.6284 22.5465 25.0597 22.3811 25.0597 22.3811C24.98 22.3561 24.9072 22.3222 24.839 22.2791C20.2347 22.9316 16.6632 22.0662 14.1678 20.3467C11.4926 18.5027 9.79557 15.5826 8.84015 12.7373C6.92931 7.04433 7.51167 0.875693 7.51167 0.875693C7.55262 0.456591 7.85972 0.109993 8.27375 0.0216091C8.68777 -0.0667744 9.11089 0.12129 9.32019 0.488285C11.4767 4.28738 12.3002 5.25473 20.0688 7.88954C22.073 8.5193 23.6153 9.72228 24.5798 11.0928C25.549 12.4679 26.1085 14.1511 26.3792 15.6304C26.816 18.0068 26.6317 20.2179 26.5385 21.0221C26.9388 21.2985 27.4256 21.713 27.892 22.3179C28.2696 22.8095 28.6746 23.4891 29.0135 24.3228C29.3479 23.4733 29.7324 22.8117 30.1122 22.3179C30.6855 21.5703 31.1564 21.2101 31.4658 21.0357C31.3725 20.2451 31.1837 18.0205 31.6227 15.6305C31.8934 14.1511 32.4531 12.4702 33.4221 11.0929C34.3866 9.72228 35.9313 8.51935 37.9331 7.88959C45.7129 5.25264 46.5253 4.28988 48.6818 0.488343C48.891 0.121348 49.3141 -0.0666816 49.7282 0.0216671C50.1422 0.110016 50.4516 0.454358 50.4903 0.875751C50.4903 0.875751 51.0749 7.04694 49.1618 12.7374C48.2064 15.5827 46.5116 18.5028 43.8341 20.3468C41.3159 22.0821 37.7036 22.9475 33.0401 22.2633C32.6716 22.4944 32.1006 22.9067 31.6502 23.4935C30.9086 24.4586 30.1692 25.9718 30.0032 28.6994C37.4667 28.9599 44.3665 32.1088 49.3259 36.9613C49.9378 37.5593 50.5225 38.1869 51.0798 38.8416C51.1276 38.8869 51.1708 38.939 51.2072 38.9934C55.2973 43.8708 57.8362 50.2228 57.9998 57.0146C58.0044 57.2728 57.9043 57.5243 57.7223 57.71C57.5403 57.8958 57.2901 58 57.0308 58H0.969232C0.709901 58 0.459666 57.8958 0.277679 57.71C0.095691 57.5243 -0.00440519 57.2751 0.000148869 57.0146L0.00183829 57.0099ZM56.0313 56.0607C55.7356 50.0867 53.6587 44.8991 49.976 40.4997L45.1396 40.5404C44.6278 40.4951 44.2593 40.7375 43.8225 41.177C43.3857 41.6165 43.1446 41.9858 43.1947 42.4955V42.5023C43.1446 43.0097 43.3835 43.3767 43.8202 43.8117C44.257 44.2466 44.6232 44.4868 45.1351 44.4369L46.0041 44.4392C46.9595 44.4913 48.0605 44.9852 48.7248 45.6444C49.3913 46.3036 49.8895 47.3978 49.9487 48.3493V48.3584C49.9032 49.3121 49.4164 50.4086 48.7567 51.0678C48.097 51.727 46.9982 52.2186 46.0405 52.2685L41.5977 52.2617C40.9062 52.2096 40.3579 52.538 39.7824 53.1066C39.2068 53.6752 38.877 54.2212 38.9247 54.9099L38.9202 56.0585L56.0313 56.0607ZM47.9691 38.3365C43.0327 33.5066 36.4605 30.6116 29.0063 30.6116H28.9995C22.4934 30.6116 16.6564 32.8181 11.9951 36.5903L19.8477 36.5789C20.7212 36.6288 21.7404 37.0773 22.3455 37.6754C22.9506 38.2734 23.4078 39.2861 23.4625 40.156V40.19C23.4124 40.6294 23.6194 40.9262 24.0061 41.3091C24.3929 41.6919 24.6932 41.8958 25.1322 41.8437L28.9312 41.8369C29.8934 41.8867 31.0013 42.3783 31.6723 43.0421C32.3434 43.7058 32.8439 44.8046 32.8985 45.7628V45.8331C32.8507 46.7936 32.3571 47.8946 31.6906 48.5583C31.0241 49.2221 29.9162 49.7115 28.9539 49.759L18.9676 49.7092C18.7265 49.6571 18.6264 49.7613 18.3875 49.9946C18.151 50.2279 18.044 50.3254 18.0941 50.5678V50.7218C18.0418 50.9619 18.1441 51.0571 18.3784 51.2927C18.6127 51.526 18.7083 51.6302 18.9494 51.5781H21.9454C23.0441 51.628 24.2884 52.1921 25.0597 52.96C25.8308 53.728 26.395 54.9649 26.4473 56.0614V56.0659H36.9799L36.9844 54.9106C37.039 53.7914 37.6214 52.5296 38.413 51.7458C39.2047 50.9619 40.4741 50.3888 41.5978 50.339L46.0406 50.3458C46.5616 50.3979 46.9369 50.1555 47.3782 49.7137C47.8196 49.272 48.0607 48.8982 48.0061 48.3771V48.3681C48.0539 47.847 47.8036 47.4664 47.3555 47.0202C46.905 46.5739 46.5229 46.327 45.9997 46.3768L45.1307 46.3745C44.1866 46.3224 43.1015 45.8331 42.4463 45.1829C41.7935 44.5305 41.3044 43.4476 41.2543 42.5075V42.5007C41.3044 41.5605 41.7912 40.4776 42.4441 39.8229C43.097 39.1682 44.1798 38.6744 45.1239 38.6155L48.2199 38.5883C48.1358 38.5045 48.0539 38.4229 47.9697 38.3391L47.9691 38.3365ZM1.97196 56.0607H24.5087V56.0562C24.5611 55.3925 24.2426 54.8736 23.6898 54.3209C23.137 53.7704 22.6138 53.4532 21.9473 53.5054H18.9513C18.2757 53.4533 17.4545 53.0999 17.004 52.649C16.5536 52.1982 16.2033 51.3781 16.1555 50.7053V50.5512C16.2101 49.8784 16.5696 49.0651 17.0245 48.6166C17.4795 48.1681 18.3007 47.8192 18.9764 47.7716L28.9627 47.8215C29.4905 47.8758 29.8704 47.6312 30.3185 47.1871C30.7666 46.7408 31.0123 46.3625 30.9577 45.837V45.7667C31.0055 45.2389 30.7553 44.856 30.3026 44.4075C29.8499 43.9589 29.4632 43.712 28.9331 43.7641L25.1341 43.7709C24.2606 43.721 23.2415 43.2725 22.6363 42.6744C22.0312 42.0764 21.574 41.0637 21.5194 40.1938V40.1598C21.5694 39.7203 21.3624 39.4236 20.9757 39.0407C20.589 38.6579 20.2887 38.454 19.8496 38.5061L9.84234 38.5219C5.02424 43.3155 2.30776 49.1651 1.97115 56.0583L1.97196 56.0607ZM42.7326 18.7564C45.0665 17.148 46.4292 14.7851 47.3232 12.123C48.5516 8.46435 48.6904 7.05752 48.6744 5.83407C47.628 8.0066 45.3031 12.0232 41.5906 14.1934C40.2803 14.9093 39.0587 15.7928 37.9736 16.6967C38.0009 16.6989 38.0259 16.7012 38.0487 16.7012C38.5105 16.7193 38.9222 16.6853 39.3271 16.6264C40.1074 16.5109 40.6329 16.3251 40.6329 16.3251C41.1379 16.1462 41.693 16.4067 41.8727 16.9096C42.0524 17.4125 41.7908 17.9653 41.2858 18.1442C41.2858 18.1442 40.5783 18.3957 39.6092 18.5384C39.1406 18.6064 38.5514 18.6562 37.9714 18.6336C37.3958 18.6109 36.3972 18.3504 36.3972 18.3504C36.3244 18.3481 36.2516 18.3368 36.1833 18.3187C35.3576 19.1252 34.6683 19.8841 34.1496 20.4867C37.9486 20.976 40.5236 20.2783 42.7301 18.7582L42.7326 18.7564ZM38.5605 9.71738C36.8794 10.1659 35.8216 11.0472 35.0094 12.2026C34.2018 13.3511 33.7787 14.6288 33.5307 15.979C33.3305 17.0709 33.2623 18.0065 33.2509 18.7269C34.2587 17.5557 35.9034 15.8249 38.0349 14.2256C38.0167 13.9062 38.0121 13.3489 38.1191 12.7395C38.1987 12.2841 38.3738 11.6906 38.6514 11.1922C38.9244 10.7028 39.6592 10.1501 39.6592 10.1501C39.8616 9.87143 40.1983 9.71964 40.5418 9.75589C40.8853 9.79214 41.1833 10.0073 41.322 10.3245C41.4608 10.6394 41.4198 11.0041 41.2151 11.2805C41.2151 11.2805 40.7465 11.6203 40.6237 11.7517C40.5031 11.8786 40.4349 11.976 40.3484 12.1323C40.2142 12.3724 40.1346 12.5922 40.0777 12.8414C40.2642 12.7281 40.4531 12.6171 40.6441 12.5084C43.3466 11.0812 45.1733 8.485 46.2539 6.48448C44.9913 7.29774 42.9031 8.17902 38.5627 9.71947L38.5605 9.71738ZM10.6798 12.1232C11.5738 14.785 12.9364 17.1479 15.2704 18.7566C17.4679 20.2699 20.0271 20.9677 23.7967 20.4919C23.319 19.9165 22.6457 19.1508 21.8062 18.3194C19.4586 19.0013 17.3657 18.145 17.3657 18.145C16.8607 18.3239 16.3057 18.0611 16.1259 17.5582C15.9462 17.0553 16.2101 16.5026 16.7151 16.3236C16.7151 16.3236 18.485 16.8809 20.0819 16.7382C19.0036 15.8297 17.7683 14.9326 16.4125 14.1919C12.1563 11.7067 10.0136 7.13741 9.35141 5.48805C9.30591 6.80876 9.32866 8.10006 10.6776 12.1232L10.6798 12.1232ZM24.4724 15.9767C24.2244 14.6288 23.8013 13.3488 22.9937 12.2002C22.1816 11.0471 21.1716 10.1795 19.4905 9.73095C14.9499 8.12253 12.8615 7.22767 11.6106 6.38269C12.823 8.4963 14.7476 11.1265 17.3636 12.5063C17.6525 12.6717 17.9392 12.8416 18.219 13.0183C18.0097 12.3296 17.6457 11.6885 17.0088 11.4507C16.547 11.1811 16.3923 10.5875 16.6653 10.1277C16.936 9.66781 17.532 9.51376 17.9938 9.78562C20.0662 11.342 19.4793 13.5485 19.4793 13.5485C19.7318 13.6957 19.891 13.9381 19.9411 14.2032C22.0112 15.755 23.6877 17.4654 24.7819 18.6977C24.7774 18.0611 24.7046 17.2184 24.4748 15.977L24.4724 15.9767Z" fill="#199CA3"/>
</svg>
