<svg width="51" height="57" viewBox="0 0 51 57" fill="none" xmlns="http://www.w3.org/2000/svg">
<path d="M25.1593 8.30566C15.9113 8.30566 8.38663 15.756 8.38663 24.9113C8.38663 29.3724 10.1501 33.5599 13.3482 36.7034C15.3383 38.6557 16.8387 41.0568 17.6887 43.6442C17.8429 44.1154 18.3551 44.3735 18.8311 44.2209C19.3072 44.0683 19.5678 43.5612 19.4136 43.0899C18.4753 40.231 16.8184 37.5831 14.6243 35.431C11.7707 32.6283 10.1977 28.8941 10.1977 24.9154C10.1977 16.7493 16.9088 10.105 25.1571 10.105C33.4053 10.105 40.1164 16.7493 40.1164 24.9154C40.1164 28.894 38.5457 32.6305 35.6898 35.431C33.4957 37.5853 31.8411 40.2333 30.9005 43.0899C30.7463 43.5611 31.007 44.0682 31.483 44.2209C31.5759 44.2501 31.6711 44.2658 31.764 44.2658C32.1448 44.2658 32.5006 44.0256 32.6253 43.6464C33.4753 41.0591 34.9758 38.6602 36.9659 36.7057C40.1663 33.564 41.9275 29.3766 41.9275 24.9158C41.9275 15.7599 34.4022 8.31022 25.1548 8.31022L25.1593 8.30566Z" fill="#199CA3"/>
<path d="M26.5194 28.4767V43.3118C26.5194 43.8077 26.9251 44.2094 27.426 44.2094C27.9269 44.2094 28.3326 43.8077 28.3326 43.3118V29.374H29.2846C29.9691 29.374 30.5879 28.9993 30.8984 28.3979C31.2089 27.7965 31.1545 27.0806 30.7556 26.5331L26.9704 21.3203C26.5511 20.7435 25.8734 20.3979 25.1571 20.3979C24.8058 20.3979 24.4545 20.481 24.1372 20.6425C23.8244 20.8019 23.5501 21.0352 23.3438 21.3202L19.5609 26.5331C19.162 27.0829 19.1076 27.7965 19.4181 28.4001C19.7287 29.0015 20.3475 29.3763 21.0319 29.3763H21.9839V43.3141C21.9839 43.81 22.3896 44.2117 22.8905 44.2117C23.3914 44.2117 23.7971 43.81 23.7971 43.3141V28.4789C23.7971 27.983 23.3914 27.5813 22.8905 27.5813H21.0319L24.8171 22.3685C24.8579 22.3146 24.9078 22.2697 24.9644 22.2428C25.1503 22.1486 25.3815 22.2069 25.4993 22.3685L29.2845 27.5813H27.4259C26.925 27.5813 26.5193 27.983 26.5193 28.4789L26.5194 28.4767Z" fill="#199CA3"/>
<path d="M50.3182 24.9108C50.3182 23.6205 49.432 22.5299 48.2329 22.2046C47.7343 17.9768 46.0774 14.0161 43.4051 10.6704C43.6431 10.2597 43.7791 9.78619 43.7791 9.27905C43.7791 7.73292 42.5075 6.47403 40.9458 6.47403C40.4358 6.47403 39.9553 6.60867 39.5428 6.84429C36.1633 4.20081 32.1626 2.56047 27.8926 2.06677C27.5639 0.877445 26.4647 0 25.1591 0C23.8558 0 22.7543 0.877388 22.4256 2.06677C18.1553 2.56046 14.1548 4.20311 10.7754 6.84429C10.3606 6.60867 9.88235 6.47403 9.37237 6.47403C7.81069 6.47403 6.53914 7.73292 6.53914 9.27905C6.53914 9.78396 6.67514 10.2597 6.91312 10.6704C4.24306 14.0162 2.58396 17.977 2.08529 22.2046C0.884007 22.5299 0 23.6183 0 24.9108C0 26.2011 0.886212 27.2917 2.08756 27.6171C2.58621 31.8426 4.24306 35.8033 6.91312 39.1513C6.67513 39.562 6.53914 40.0355 6.53914 40.5426C6.53914 42.0887 7.81069 43.3476 9.37237 43.3476C10.934 43.3476 12.2056 42.0887 12.2056 40.5426C12.2056 38.9965 10.934 37.7376 9.37237 37.7376C8.98251 37.7376 8.6108 37.8161 8.27083 37.9575C5.86826 34.9168 4.37 31.3333 3.90087 27.509C4.93673 27.0917 5.66656 26.0841 5.66656 24.9105C5.66656 23.7369 4.93446 22.7293 3.89861 22.3119C4.36779 18.4881 5.86826 14.9041 8.27089 11.8658C8.60861 12.0071 8.98262 12.0857 9.37243 12.0857C10.9341 12.0857 12.2057 10.8268 12.2057 9.28067C12.2057 8.89469 12.1263 8.52444 11.9835 8.19009C15.0548 5.81368 18.6744 4.32811 22.5371 3.86135C22.9587 4.88689 23.9764 5.6117 25.1618 5.6117C26.3472 5.6117 27.3649 4.88689 27.7865 3.86135C31.6487 4.32811 35.2687 5.81139 38.34 8.19009C38.1972 8.5267 38.1179 8.89474 38.1179 9.28067C38.1179 10.8268 39.3894 12.0857 40.9511 12.0857C41.341 12.0857 41.7127 12.0071 42.0526 11.8658C44.4552 14.9042 45.9557 18.4877 46.4249 22.3119C45.3891 22.7293 44.657 23.7369 44.657 24.9105C44.657 26.0841 45.3891 27.0895 46.4227 27.509C45.9535 31.3328 44.453 34.9145 42.0527 37.9575C41.715 37.8161 41.341 37.7376 40.9512 37.7376C39.3895 37.7376 38.1179 38.9965 38.1179 40.5426C38.1179 42.0887 39.3895 43.3476 40.9512 43.3476C42.5128 43.3476 43.7844 42.0887 43.7844 40.5426C43.7844 40.0377 43.6484 39.562 43.4104 39.1513C46.0805 35.8032 47.7373 31.8446 48.236 27.6171C49.4373 27.2917 50.3235 26.2034 50.3235 24.9108H50.3182ZM47.485 25.9206C46.9229 25.9206 46.465 25.4673 46.465 24.9108C46.465 24.3543 46.9229 23.901 47.485 23.901C48.0471 23.901 48.5049 24.3543 48.5049 24.9108C48.5049 25.4673 48.0471 25.9206 47.485 25.9206ZM2.8332 23.901C3.39531 23.901 3.85316 24.3543 3.85316 24.9108C3.85316 25.4673 3.39531 25.9206 2.8332 25.9206C2.27109 25.9206 1.81324 25.4673 1.81324 24.9108C1.81324 24.3543 2.27109 23.901 2.8332 23.901ZM10.3921 40.5405C10.3921 41.0971 9.93423 41.5503 9.37212 41.5503C8.81001 41.5503 8.35216 41.0971 8.35216 40.5405C8.35216 39.984 8.81001 39.5307 9.37212 39.5307C9.93423 39.5307 10.3921 39.984 10.3921 40.5405ZM9.37212 10.2913C8.81001 10.2913 8.35216 9.83797 8.35216 9.28146C8.35216 8.72495 8.81001 8.27166 9.37212 8.27166C9.93423 8.27166 10.3921 8.72495 10.3921 9.28146C10.3921 9.83797 9.93423 10.2913 9.37212 10.2913ZM25.1589 3.81699C24.5968 3.81699 24.139 3.3637 24.139 2.80719C24.139 2.25067 24.5968 1.79738 25.1589 1.79738C25.721 1.79738 26.1789 2.25067 26.1789 2.80719C26.1789 3.3637 25.721 3.81699 25.1589 3.81699ZM39.9256 9.28117C39.9256 8.72466 40.3835 8.27137 40.9456 8.27137C41.5077 8.27137 41.9655 8.72466 41.9655 9.28117C41.9655 9.83769 41.5077 10.291 40.9456 10.291C40.3835 10.291 39.9256 9.83769 39.9256 9.28117ZM40.9456 41.5503C40.3835 41.5503 39.9256 41.097 39.9256 40.5405C39.9256 39.984 40.3835 39.5307 40.9456 39.5307C41.5077 39.5307 41.9655 39.984 41.9655 40.5405C41.9655 41.097 41.5077 41.5503 40.9456 41.5503Z" fill="#199CA3"/>
<path d="M31.0522 46.229H19.2662C18.2667 46.229 17.453 47.0346 17.453 48.0242V49.8194C17.453 50.8091 18.2667 51.6147 19.2662 51.6147H19.7196V54.3075C19.7196 55.793 20.939 57.0003 22.4395 57.0003H27.8793C29.3798 57.0003 30.5992 55.793 30.5992 54.3075V51.6147H31.0525C32.0521 51.6147 32.8658 50.8091 32.8658 49.8194V48.0242C32.8658 47.0346 32.0518 46.229 31.0522 46.229ZM28.7857 54.3072C28.7857 54.8031 28.3799 55.2048 27.879 55.2048H22.4392C21.9383 55.2048 21.5326 54.8031 21.5326 54.3072V51.6144H28.7857V54.3072ZM31.0522 49.8192H19.2662V48.0239H31.0522V49.8192Z" fill="#199CA3"/>
</svg>
