<svg width="59" height="58" viewBox="0 0 59 58" fill="none" xmlns="http://www.w3.org/2000/svg">
<path fill-rule="evenodd" clip-rule="evenodd" d="M56.4174 16.6975C56.3063 17.9605 56.2236 19.3889 56.1435 20.9014C55.8307 26.605 55.4379 33.7042 53.2074 37.6277C51.9384 39.8608 50.4265 41.139 48.669 42.6183C47.6377 43.4866 46.578 44.3803 45.5029 45.5313C42.2619 49.0018 41.7269 50.7205 41.6674 54.4583C41.6519 54.9802 41.2151 55.4055 40.6801 55.4055L30.0422 55.408V48.2045C30.0422 45.9103 30.9985 43.9369 32.8077 42.4932L41.4997 35.5596C42.1303 35.0529 43.0659 35.1496 43.5776 35.7735C43.8309 36.0765 43.942 36.4533 43.8955 36.8429C43.8593 37.2325 43.6655 37.5813 43.3605 37.8232L35.7516 43.8935C35.3743 44.1939 35.3148 44.7388 35.6172 45.1106C35.7956 45.3219 36.0463 45.4314 36.2995 45.4314C36.4985 45.4314 36.6924 45.3678 36.8552 45.2379L44.4641 39.1676C45.1309 38.6329 45.5547 37.8716 45.6426 37.0211C45.7098 36.4456 45.6142 35.8753 45.3764 35.3635L48.4029 32.4429C49.7598 31.1341 50.6126 29.6776 51.0727 27.8622L54.0036 16.3174C54.138 15.7979 54.5903 15.4466 55.1305 15.4466H55.2494C55.5828 15.4466 55.8877 15.579 56.11 15.8158C56.3349 16.0602 56.4382 16.3709 56.4176 16.6968L56.4174 16.6975ZM28.2844 55.4085H17.6412C17.1062 55.4085 16.6694 54.9833 16.6617 54.4613C16.6022 50.7234 16.0621 49.0021 12.8262 45.5343C11.7433 44.3834 10.6836 43.4872 9.6601 42.6214C7.90265 41.142 6.38293 39.8638 5.1139 37.6307C2.8886 33.7044 2.49578 26.6055 2.17786 20.9018C2.09515 19.3894 2.01504 17.9635 1.91165 16.698C1.88322 16.3721 1.99436 16.0614 2.21663 15.822C2.4389 15.5852 2.74387 15.4528 3.0773 15.4528H3.18843C3.7286 15.4528 4.18864 15.8017 4.32302 16.3236L7.25389 27.8684C7.71394 29.6839 8.55911 31.1403 9.91594 32.4491L12.9502 35.3697C12.7124 35.8815 12.6168 36.4493 12.6762 37.0273C12.7718 37.8778 13.1879 38.6391 13.8625 39.1738L21.4714 45.2441C21.6342 45.374 21.8281 45.4376 22.0193 45.4376C22.2778 45.4376 22.5311 45.3282 22.7016 45.1168C23.0144 44.7451 22.9549 44.2002 22.575 43.8997L14.9555 37.8294C14.3249 37.3227 14.2292 36.4035 14.741 35.7771C14.9865 35.4767 15.3406 35.2883 15.736 35.2475C16.1289 35.2068 16.5217 35.3188 16.8267 35.5607L25.5187 42.4944C27.3279 43.9355 28.2841 45.9115 28.2841 48.2056L28.2844 55.4085ZM14.3846 7.80378C10.6086 11.4474 8.07316 16.4609 7.58956 22.0778L8.94646 27.4505C9.31088 28.8713 9.9544 30.0222 10.9779 31.0559C11.5646 29.3525 12.831 27.9648 14.4644 27.2086C13.671 26.4701 13.1747 25.4211 13.1747 24.2625C13.1747 22.6711 14.1104 21.2911 15.4672 20.6265C15.9505 16.8733 17.1963 13.2881 19.1166 10.0445C17.434 9.44611 15.8475 8.69752 14.3846 7.80378ZM23.3658 33.9564V38.5524L26.6223 41.147C27.7337 42.0332 28.5866 43.0848 29.1577 44.2636C29.7366 43.0847 30.5818 42.0331 31.7009 41.147L34.9497 38.5524V33.9564C34.9497 30.8092 32.3548 28.2477 29.1578 28.2477C25.971 28.2477 23.3658 30.8092 23.3658 33.9564ZM28.2841 11.7298C25.71 11.6585 23.1952 11.269 20.8301 10.5942C19.0286 13.5402 17.8268 16.7943 17.2996 20.2063C19.5611 20.2139 21.4013 22.0294 21.4013 24.2625C21.4013 25.421 20.905 26.4675 20.1116 27.2059C21.2824 27.7483 22.2774 28.6191 22.9598 29.7166C23.7532 28.5937 24.8594 27.6923 26.1413 27.1372C25.1618 26.3021 24.5389 25.0697 24.5389 23.6947C24.5389 21.4795 26.1568 19.6309 28.2839 19.226L28.2841 11.7298ZM20.0652 8.54446C18.5532 8.02757 17.0982 7.37825 15.7413 6.59402C18.7161 4.15978 22.306 2.50983 26.1906 1.9471C23.7895 3.86189 21.7271 6.08995 20.0652 8.54446ZM28.2841 2.54295C25.7409 4.3992 23.5674 6.60934 21.8254 9.07441C23.9163 9.62695 26.0976 9.93504 28.2841 9.99873V2.54295ZM32.1248 1.94712C36.0119 2.50985 39.602 4.15726 42.5741 6.59405C41.2172 7.38082 39.7698 8.03012 38.2579 8.54449C36.5909 6.08991 34.5284 3.86185 32.1248 1.94712ZM30.0417 9.99869C32.2308 9.93249 34.4095 9.62439 36.4952 9.07437C34.7584 6.61217 32.5875 4.40196 30.0417 2.54291V9.99869ZM26.2966 23.6978C26.2966 25.2536 27.5786 26.5191 29.1603 26.5191C30.7394 26.5191 32.0239 25.2536 32.0239 23.6978C32.0239 22.1421 30.742 20.8791 29.1603 20.8791C27.5786 20.8766 26.2966 22.1421 26.2966 23.6978ZM36.9166 24.2631C36.9166 22.0325 38.7568 20.2146 41.0183 20.2069C40.4988 16.7949 39.2892 13.5405 37.4956 10.5948C35.123 11.2696 32.6082 11.6591 30.0415 11.7304V19.2292C32.1712 19.6341 33.7787 21.4827 33.7787 23.6979C33.7787 25.0729 33.1559 26.3053 32.1763 27.1405C33.466 27.6955 34.5644 28.5944 35.3579 29.7198C36.0402 28.6224 37.0353 27.7516 38.2061 27.2092C37.4152 26.4682 36.9166 25.4216 36.9166 24.2631ZM41.0338 26.5853C42.3313 26.5853 43.3935 25.5413 43.3935 24.2605C43.3935 22.9798 42.3338 21.9358 41.0338 21.9358C39.7364 21.9358 38.6742 22.9798 38.6742 24.2605C38.6742 25.5439 39.7364 26.5853 41.0338 26.5853ZM14.9354 24.2631C14.9354 25.5438 15.9873 26.5878 17.2951 26.5878C18.5925 26.5878 19.647 25.5438 19.647 24.2631C19.647 22.9823 18.5925 21.9384 17.2951 21.9384C15.9873 21.9384 14.9354 22.9798 14.9354 24.2631ZM14.0825 34.0459C14.5192 33.7608 15.0181 33.58 15.5505 33.524C16.4189 33.4348 17.2563 33.6793 17.9309 34.214L21.6087 37.1498V33.9569C21.6087 33.1752 21.7353 32.4214 21.9654 31.7111C21.327 29.6995 19.4429 28.3169 17.2925 28.3169C14.8372 28.3169 12.7748 30.112 12.4414 32.4648L14.0825 34.0459ZM44.2388 34.0485L45.8774 32.4673C45.544 30.1119 43.4893 28.3194 41.034 28.3194C38.8836 28.3194 36.9917 29.7045 36.3611 31.7135C36.5912 32.4214 36.71 33.1751 36.71 33.9593V37.1523L40.3956 34.2165C41.5224 33.3126 43.0886 33.2871 44.2388 34.0485ZM50.7363 22.0787C50.2478 16.4616 47.7098 11.4478 43.9412 7.80465C42.481 8.69585 40.894 9.44696 39.209 10.0454C41.1215 13.2893 42.3751 16.8721 42.8506 20.6274C44.2152 21.2894 45.1508 22.6695 45.1508 24.2634C45.1508 25.4219 44.6546 26.4685 43.8612 27.2094C45.4842 27.9631 46.761 29.3509 47.34 31.0568C48.3634 30.0205 49.0174 28.8695 49.3714 27.4513L50.7363 22.0787ZM57.4017 14.651C56.8538 14.0602 56.0655 13.7241 55.2513 13.7241H55.1325C53.7911 13.7241 52.6254 14.6229 52.2998 15.9063L51.7958 17.8949C50.669 13.523 48.3533 9.54546 45.0683 6.414C40.7288 2.2763 35.0788 0 29.1604 0C23.2418 0 17.5896 2.27637 13.2525 6.414C9.96763 9.54337 7.65962 13.523 6.53291 17.8949L6.02117 15.9063C5.70327 14.6204 4.5299 13.7241 3.18855 13.7241H3.07742C2.25294 13.7241 1.47498 14.0627 0.919337 14.651C0.371418 15.2417 0.0948653 16.0412 0.162088 16.8433C0.26547 18.0808 0.348175 19.499 0.428293 20.9988C0.753947 26.8806 1.15458 34.2012 3.58658 38.4741C5.00289 40.977 6.70873 42.4157 8.51786 43.9358C9.50516 44.7684 10.5287 45.6291 11.5289 46.7061C14.5761 49.9704 14.8526 51.2792 14.9043 54.4878C14.9276 55.9519 16.1578 57.141 17.6413 57.141H40.677C42.1683 57.141 43.3908 55.9519 43.4218 54.4878C43.4657 51.2795 43.7397 49.9707 46.7894 46.7042C47.7974 45.6271 48.8209 44.7664 49.8082 43.9338C51.6096 42.4137 53.3154 40.975 54.7394 38.4721C57.1638 34.1995 57.5721 26.8791 57.8977 20.9968C57.9804 19.4971 58.0528 18.0813 58.1639 16.8413C58.2337 16.0392 57.9522 15.2417 57.4017 14.651Z" fill="#199CA3"/>
</svg>
