<svg width="58" height="58" viewBox="0 0 58 58" fill="none" xmlns="http://www.w3.org/2000/svg">
<path fill-rule="evenodd" clip-rule="evenodd" d="M9.62143 35.7681C8.72094 34.8532 7.36513 34.5772 6.18794 35.0729C5.01075 35.5662 4.24356 36.7341 4.24356 38.0272C4.24356 39.3229 5.01075 40.4908 6.18794 40.984C7.36513 41.4798 8.72094 41.2038 9.62143 40.2889C10.8489 39.0392 10.8489 37.0178 9.62143 35.7681ZM9.62143 42.2312C11.8174 43.1486 13.2536 45.3209 13.2587 47.7334V48.1985C9.43527 49.3332 5.37039 49.3332 1.54474 48.1985V47.7078C1.54977 45.2954 2.98607 43.1231 5.18448 42.2056C6.56541 42.9595 8.22562 42.9595 9.60907 42.2056L9.62143 42.2312ZM7.40537 33.2688C9.22901 33.2765 10.8841 34.3601 11.6438 36.0442C12.406 37.7283 12.1368 39.709 10.9546 41.1196C13.3291 42.4357 14.8082 44.9607 14.8182 47.7077V48.7811C14.8157 49.1235 14.5969 49.4251 14.2774 49.5273C9.83275 50.9661 5.06134 50.9661 0.618789 49.5273C0.274177 49.4557 0.0201232 49.1567 0 48.8015V47.7282C0.0100616 44.9809 1.48911 42.456 3.86365 41.14C2.67635 39.7319 2.40222 37.7488 3.16188 36.0621C3.92405 34.378 5.57917 33.2944 7.40532 33.2892L7.40537 33.2688ZM52.8032 35.7682C51.9027 34.8533 50.5494 34.5773 49.3722 35.0731C48.1925 35.5663 47.4253 36.7342 47.4253 38.0273C47.4253 39.323 48.1925 40.4909 49.3722 40.9841C50.5494 41.4799 51.9027 41.2039 52.8032 40.289C54.0307 39.0393 54.0307 37.0179 52.8032 35.7682ZM52.8032 42.2313C55.0017 43.1487 56.4379 45.321 56.4404 47.7335V48.1986C52.6221 49.3308 48.5625 49.3308 44.7413 48.1986V47.708C44.7464 45.2955 46.1827 43.1232 48.3786 42.2057C49.762 42.9596 51.4222 42.9596 52.8031 42.2057L52.8032 42.2313ZM50.5947 33.269C52.4208 33.2741 54.076 34.3577 54.8356 36.0444C55.5978 37.731 55.3236 39.7117 54.1364 41.1198C56.5109 42.4359 57.99 44.9608 58 47.7079V48.7812C57.9975 49.1237 57.7786 49.4252 57.4592 49.5274C53.017 50.9662 48.2431 50.9662 43.8006 49.5274C43.4409 49.4738 43.1642 49.1696 43.1441 48.8016V47.7283C43.1516 44.9785 44.6332 42.4535 47.0077 41.1402C45.8255 39.7295 45.5563 37.7489 46.316 36.0648C47.0782 34.3806 48.7308 33.297 50.5569 33.2894L50.5947 33.269ZM31.2314 2.52004C30.3309 1.60516 28.9776 1.32914 27.8004 1.82492C26.6207 2.31815 25.8535 3.48608 25.8535 4.78172C25.8535 6.07488 26.6207 7.24275 27.8004 7.73597C28.9776 8.23176 30.3309 7.95576 31.2314 7.04085C32.4589 5.79114 32.4589 3.76975 31.2314 2.52004ZM31.2314 8.97803C33.4273 9.89546 34.8586 12.0678 34.8636 14.4803V14.9709C31.0427 16.1031 26.983 16.1031 23.1619 14.9709V14.4803C23.1468 12.0652 24.5705 9.8776 26.7614 8.94486C28.1474 9.69619 29.8076 9.69619 31.1935 8.94486L31.2314 8.97803ZM28.9776 0C30.8037 0.00766695 32.4589 1.08871 33.221 2.77539C33.9807 4.46206 33.7065 6.44269 32.5193 7.85079C34.8938 9.16946 36.3729 11.6919 36.3829 14.4389V15.5122C36.3804 15.8547 36.1641 16.1563 35.8421 16.2585C33.6235 16.9843 31.3093 17.3625 28.9777 17.3778C26.6686 17.3701 24.372 17.0072 22.1712 16.2968C21.8266 16.215 21.5826 15.9007 21.5851 15.5378V14.467C21.5927 11.7172 23.0743 9.19223 25.4488 7.87886C24.2514 6.47075 23.9697 4.48503 24.7294 2.79069C25.489 1.09891 27.1463 0.00765452 28.9776 0ZM14.8109 7.85079C14.6122 7.79968 14.4411 7.66935 14.338 7.49045C14.2323 7.30901 14.2022 7.09689 14.255 6.89244C14.3606 6.47333 14.7832 6.22035 15.1982 6.32766L19.1524 7.40099H19.1499C19.3486 7.45466 19.5171 7.585 19.6203 7.76644C19.7209 7.94789 19.746 8.16256 19.6907 8.3619L18.6343 12.3793H18.6368C18.5009 12.7626 18.096 12.9773 17.7086 12.8725C17.3212 12.7652 17.0772 12.3767 17.1477 11.9729L17.7916 9.61666V9.61921C13.9531 11.6918 10.7462 14.7943 8.51757 18.5894C6.28895 22.3819 5.12432 26.7241 5.15194 31.1428V31.3268C5.11673 31.7306 4.78218 32.0398 4.38224 32.0398C3.9823 32.0398 3.65027 31.7306 3.61254 31.3268C3.52199 26.2233 4.93816 21.2117 7.67742 16.9337C9.97146 13.361 13.1031 10.4195 16.7879 8.37502L14.8108 7.83324L14.8109 7.85079ZM50.1117 28.9498C49.9533 28.8067 49.8627 28.6048 49.8552 28.3901C49.8501 28.1754 49.9306 27.9659 50.0815 27.8151C50.2299 27.6618 50.4337 27.5774 50.645 27.5825C50.8563 27.5877 51.0575 27.6797 51.2009 27.8381L52.7328 29.3945V29.397C52.451 24.9988 50.9946 20.7644 48.522 17.1452C46.0468 13.5291 42.646 10.6642 38.6871 8.86523C38.2997 8.68634 38.1311 8.21866 38.3072 7.82513C38.4858 7.43157 38.9436 7.26034 39.331 7.43924C43.5719 9.37125 47.2064 12.4482 49.8452 16.3355C52.4814 20.22 54.0158 24.7692 54.2849 29.4816L55.9023 27.8384H55.8998C56.2066 27.5598 56.6745 27.5726 56.9663 27.8691C57.2555 28.1655 57.2656 28.6409 56.9889 28.9501L54.0912 31.889C53.9453 32.0372 53.7491 32.119 53.5428 32.119C53.3391 32.119 53.1403 32.0372 52.997 31.889L50.1068 28.9526L50.1117 28.9498ZM20.0403 50.5395C20.4529 50.4296 20.8755 50.6775 20.9861 51.0966C21.0968 51.5157 20.8503 51.9476 20.4378 52.0575L18.3324 52.6274C25.6296 56.3279 34.2848 55.9804 41.2702 51.7048C41.4388 51.5413 41.6727 51.4646 41.9016 51.4953C42.133 51.5259 42.3393 51.6614 42.46 51.8633C42.5833 52.0652 42.6084 52.3105 42.5305 52.5354C42.455 52.7577 42.2814 52.934 42.0626 53.0133C34.5768 57.5954 25.2976 57.9379 17.5021 53.923L18.0881 56.1618C18.1963 56.5783 17.9523 57.0051 17.5398 57.115C17.1298 57.2249 16.7097 56.977 16.6016 56.5604L15.5199 52.405C15.4872 52.0242 15.7337 51.6766 16.0985 51.5872L20.0401 50.5087L20.0403 50.5395ZM38.7526 41.04C35.6712 40.3986 32.4666 40.9199 29.7374 42.5069V44.2141C33.1886 42.3817 37.2458 42.3766 41.2627 43.2583V25.7831H39.6981V40.2757C39.6981 40.5159 39.5925 40.7408 39.4088 40.889C39.2227 41.0398 38.9815 41.0937 38.7526 41.04ZM28.2055 42.5069C26.9805 41.7633 25.6297 41.2547 24.2261 41.0017C22.5635 40.7078 20.8655 40.7078 19.2029 41.0017C18.974 41.0553 18.7325 40.9991 18.5464 40.8509C18.3628 40.7027 18.2571 40.4752 18.2571 40.235V25.783H16.6724V43.2582C20.6971 42.3739 24.7545 42.3817 28.2054 44.214L28.2055 42.5069ZM24.0576 20.263C23.2929 20.1378 22.5207 20.0714 21.746 20.0662C20.8078 20.0816 19.872 20.1659 18.9463 20.3218C18.5539 20.3678 18.2571 20.7051 18.2571 21.1064V24.214H15.9002C15.4751 24.214 15.133 24.5615 15.133 24.9934V44.273C15.1305 44.5234 15.2487 44.7586 15.4474 44.9068C15.6461 45.055 15.9027 45.0959 16.1366 45.0192C18.4256 44.3931 20.8027 44.1733 23.162 44.365C25.0687 44.526 26.9049 45.1675 28.5022 46.2357C28.7814 46.4504 29.1688 46.4504 29.448 46.2357C31.0403 45.1598 32.869 44.5056 34.7731 44.3318C37.1351 44.1401 39.5096 44.3624 41.7985 44.986C42.0299 45.0678 42.284 45.032 42.4877 44.8914C42.6889 44.7509 42.8122 44.5209 42.8223 44.273V24.9986C42.8223 24.7916 42.7418 24.5923 42.5959 24.4466C42.45 24.301 42.2538 24.2192 42.05 24.2217H39.6982V21.1141C39.6982 20.7129 39.4013 20.3756 39.009 20.327C38.0833 20.1711 37.1476 20.0842 36.2093 20.0664C35.4346 20.0587 34.6624 20.1098 33.8977 20.2222C31.0704 17.7433 26.8845 17.7433 24.0576 20.2222L24.0576 20.263ZM28.9777 21.4463C29.194 21.4258 29.4078 21.4999 29.5688 21.6482C29.7298 21.7964 29.8204 22.0085 29.8204 22.2283C29.8204 22.4481 29.7298 22.6602 29.5688 22.8084C29.4078 22.9566 29.194 23.0307 28.9777 23.0103C27.3452 23.0103 26.0222 24.3545 26.0222 26.0131C26.0222 26.4475 25.675 26.7976 25.2499 26.7976C24.8223 26.7976 24.4777 26.4475 24.4777 26.0131C24.4777 23.483 26.4951 21.4335 28.9853 21.4335L28.9777 21.4463ZM31.0051 35.2565C31.2063 35.282 31.3547 35.4558 31.3547 35.6602C31.3547 35.8647 31.2063 36.0359 31.0051 36.0615H26.9478H26.9503C26.749 36.0359 26.6006 35.8647 26.6006 35.6602C26.6006 35.4558 26.749 35.282 26.9503 35.2565H31.0051ZM27.9791 37.6255H29.9612L29.7172 38.4509H28.218L27.9791 37.6255ZM31.5987 37.5335L31.1535 39.0388C30.9548 39.624 30.419 40.0252 29.8078 40.0405H28.1275C27.476 40.0277 26.9126 39.5754 26.7491 38.934L26.3491 37.559H26.3517C25.7379 37.3622 25.2625 36.8664 25.0839 36.2378C24.9028 35.6117 25.0436 34.9344 25.4561 34.4336C25.2625 33.4726 25.2298 32.7596 24.4072 32.1182H24.4047C21.2152 29.6367 20.5008 25.0466 22.7823 21.689C21.7862 21.6277 20.7851 21.666 19.794 21.8066V39.3741C22.966 38.8936 26.2032 39.5197 28.9779 41.1528C31.7499 39.5223 34.9847 38.8962 38.1541 39.3741V21.7811C37.1655 21.6405 36.1644 21.5996 35.1658 21.6635C37.4523 25.0216 36.7379 29.6111 33.5434 32.0907C32.7184 32.7449 32.6882 33.4451 32.4995 34.4061V34.4086C32.912 34.9095 33.0504 35.5868 32.8693 36.2154C32.6882 36.8415 32.2126 37.3367 31.5987 37.5335ZM29.7902 31.2851L31.4126 29.5651C31.6842 29.2508 31.6641 28.7729 31.3648 28.4816C31.068 28.1903 30.5976 28.1903 30.2983 28.4791L28.9777 29.8795L27.6194 28.571C27.3175 28.2669 26.832 28.2669 26.5302 28.571C26.2334 28.8752 26.2334 29.3658 26.5302 29.67L28.2105 31.3132V33.695L26.8849 33.6924L26.7893 33.2094C26.6157 32.2664 26.1026 31.423 25.3455 30.848C23.308 29.2661 22.488 26.5393 23.3105 24.0708C24.133 21.6022 26.412 19.941 28.9777 19.941C31.5434 19.941 33.8223 21.6022 34.6449 24.0708C35.4674 26.5395 34.6474 29.2664 32.6099 30.848C32.2351 31.1343 31.9182 31.4869 31.6692 31.8881C31.3497 32.4427 31.146 33.0561 31.0705 33.6924H29.7826L29.7902 31.2851Z" fill="#199CA3"/>
</svg>
