<svg preserveAspectRatio="none" width="100%" height="100%" overflow="visible" style="display: block;" viewBox="0 0 78 78" fill="none" xmlns="http://www.w3.org/2000/svg">
<g id="Mask group">
<mask id="mask0_0_4" style="mask-type:alpha" maskUnits="userSpaceOnUse" x="0" y="0" width="78" height="78">
<circle id="Ellipse 37" cx="39" cy="39" r="39" fill="var(--fill-0, #D9D9D9)"/>
</mask>
<g mask="url(#mask0_0_4)">
<circle id="Ellipse 43" cx="39" cy="39.0006" r="40.4717" fill="var(--fill-0, white)"/>
<g id="Group 1000005939">
<path id="Vector" d="M15.0529 68.3217C14.864 68.551 14.7695 68.7578 14.7695 68.9467C14.7695 69.14 14.9 69.3199 15.1608 69.4817C15.831 69.8954 16.9599 70.4754 18.5521 71.2173C24.5924 74.041 30.9161 75.6192 37.5187 75.9564C37.7031 75.9654 37.847 75.799 37.8155 75.6191L37.5682 74.2343" stroke="var(--stroke-0, #8E94A0)" stroke-miterlimit="10"/>
<path id="Vector_2" d="M37.5684 74.2366L42.138 74.0298" stroke="var(--stroke-0, #FCDDCB)" stroke-miterlimit="10"/>
<path id="Vector_3" d="M42.1384 74.0267C42.008 74.6786 41.9765 75.2721 42.0485 75.8072C42.0665 75.9376 42.1789 76.0275 42.3093 76.0185C50.0498 75.4385 57.3405 73.2668 64.1905 69.5034C64.3794 69.4 64.4603 69.1662 64.3704 68.9683L63.7722 67.6599" stroke="var(--stroke-0, #8E94A0)" stroke-miterlimit="10"/>
<path id="Vector_4" d="M63.7716 67.6603C64.6486 65.3267 64.7296 63.0291 64.0189 60.763C63.5422 59.2432 62.5482 57.8404 61.7296 56.3791C60.007 53.2991 61.2214 50.4485 61.8061 47.0313C62.3818 43.686 60.8661 40.8174 59.2874 36.8067C58.9006 35.822 58.5183 34.2438 58.1405 32.0631C56.8856 24.8465 54.7582 15.782 47.2741 12.6795C41.2428 10.1796 35.2879 10.5303 29.4049 13.7362C25.6314 15.7865 23.8008 18.9294 22.4111 22.9311C21.57 25.3546 20.9808 27.8905 20.6345 30.5433C20.1847 34.01 19.2357 37.4497 17.783 40.8713C17.2702 42.0809 16.9104 43.5376 16.708 45.2462C16.4832 47.1572 17.0678 49.4728 17.3827 51.1229C17.9764 54.1894 17.0723 55.925 15.5297 58.5014C15.0034 59.3781 14.6301 60.192 14.4052 60.9473C13.6721 63.4113 13.888 65.8708 15.0529 68.3213" stroke="var(--stroke-0, #EBA89F)" stroke-miterlimit="10"/>
<path id="Vector_5" d="M63.7718 67.6639C62.8813 66.0767 61.5499 64.9122 59.7779 64.1658C58.3071 63.5453 56.8724 63.1407 55.4736 62.9563" stroke="var(--stroke-0, #7A3D40)" stroke-miterlimit="10"/>
<path id="Vector_6" d="M55.4744 62.954C53.3425 62.4324 51.3545 61.7715 49.506 60.9666C48.2961 60.4406 47.5585 59.5189 47.2976 58.2104C47.0592 57.0144 46.8568 55.8319 46.6904 54.6583" stroke="var(--stroke-0, #E8856A)" stroke-miterlimit="10"/>
<path id="Vector_7" d="M46.6904 54.6586L46.7309 51.0391C46.7354 50.8952 46.7804 50.7558 46.8658 50.6434L47.3741 49.969" stroke="var(--stroke-0, #E27659)" stroke-miterlimit="10"/>
<path id="Vector_8" d="M47.3731 49.9718C49.2577 48.3307 50.3371 45.8307 51.1827 43.5062C51.2276 43.3757 51.3176 43.2588 51.43 43.1734C51.8798 42.8452 52.37 43.016 52.8198 42.5844C54.4839 40.9747 56.4449 34.9137 54.277 33.1916C54.0342 33.0028 53.6789 33.1062 53.5799 33.3984L52.1991 37.4946C52.1677 37.5935 52.0687 37.652 51.9653 37.634C51.8663 37.616 51.7899 37.5306 51.7899 37.4271V33.7222C51.7899 33.5109 51.6144 33.3355 51.403 33.3355H44.0134C43.7975 33.3355 43.6131 33.1736 43.5861 32.9578L43.0014 27.9759C42.9834 27.841 42.8755 27.7421 42.7406 27.7376C42.6056 27.7376 42.4887 27.8365 42.4707 27.9669C42.3717 28.6189 42.0164 30.1207 41.4093 32.4767C41.3013 32.8993 40.919 33.1916 40.4827 33.1916H30.318C30.0662 33.1916 29.8413 33.0252 29.7693 32.787C29.1082 30.5703 28.8653 28.4075 29.0452 26.2943C29.0497 26.2358 29.0092 26.1774 28.9507 26.1684C28.8923 26.1549 28.8293 26.1864 28.8113 26.2448C28.0422 28.466 27.7454 30.7052 27.9298 32.9623C27.9702 33.4614 27.6374 33.6323 26.9403 33.4749C26.6209 33.4029 26.3286 33.6682 26.3691 33.992L26.7514 37.2518C26.7604 37.3282 26.7109 37.3957 26.6389 37.4136C26.5625 37.4316 26.4905 37.3912 26.4635 37.3192L25.1232 33.5109C24.9748 33.0882 24.4261 32.9938 24.1428 33.34C23.6885 33.8931 23.4591 34.5765 23.4546 35.3903C23.4321 37.9487 24.1742 40.2823 25.6764 42.4C25.8249 42.6069 26.0587 42.7417 26.3151 42.7642C26.7064 42.7957 27.0077 42.8722 27.2281 43.0025C27.381 43.0925 27.4935 43.2364 27.5475 43.4027C28.483 46.4287 30.0572 48.9916 32.2745 51.0824" stroke="var(--stroke-0, #E8856A)" stroke-miterlimit="10"/>
<path id="Vector_9" d="M32.275 51.0782L32.0771 55.4757" stroke="var(--stroke-0, #E27659)" stroke-miterlimit="10"/>
<path id="Vector_10" d="M32.0766 55.4772C31.8921 57.4555 31.8247 59.5238 30.2595 60.45C28.7888 61.3179 26.9807 61.9788 24.8398 62.4284C24.5475 62.4914 24.3811 62.6622 24.3496 62.9455" stroke="var(--stroke-0, #E8856A)" stroke-miterlimit="10"/>
<path id="Vector_11" d="M24.3494 62.945C24.2505 62.7562 24.0795 62.6932 23.8367 62.7562C22.6628 63.0484 21.1291 63.5385 19.2356 64.2174C17.0992 64.9863 15.7049 66.3577 15.0527 68.3226" stroke="var(--stroke-0, #7A3D40)" stroke-miterlimit="10"/>
<path id="Vector_12" d="M46.69 54.6602C46.6091 54.35 46.5102 54.1117 46.3977 53.9453C46.3257 53.8419 46.1908 53.8149 46.0829 53.8779C43.1414 55.609 41.1669 56.7151 40.1595 57.1872C38.7876 57.8302 37.3574 57.8212 35.8777 57.1557C34.6408 56.5982 33.3769 56.0406 32.0771 55.4786" stroke="var(--stroke-0, #F3AB85)" stroke-miterlimit="10"/>
<path id="Vector_13" d="M55.4734 62.9557C51.6549 66.4809 47.4316 69.1472 42.8125 70.9547C42.6506 71.0176 42.5336 71.166 42.5111 71.3414L42.1378 74.0302M37.5682 74.237L37.2938 71.5392C37.2623 71.2469 37.0599 70.9952 36.7811 70.9097C31.9191 69.39 27.7768 66.7372 24.3496 62.9468" stroke="var(--stroke-0, #8B726C)" stroke-miterlimit="10"/>
<path id="Vector_14" d="M47.3731 49.969C43.5141 52.7837 40.3657 55.0228 36.1514 53.1748C34.6267 52.5049 33.3359 51.808 32.2744 51.0796" stroke="var(--stroke-0, #F3AB85)" stroke-miterlimit="10"/>
<path id="Vector_15" d="M63.7716 67.6603C62.881 66.0731 61.5497 64.9086 59.7776 64.1622C58.3069 63.5417 56.8721 63.137 55.4734 62.9527C53.3415 62.4311 51.3535 61.7702 49.505 60.9653C48.2951 60.4393 47.5575 59.5175 47.2966 58.2091C47.0582 57.0131 46.8558 55.8306 46.6894 54.657L46.7299 51.0375C46.7344 50.8936 46.7794 50.7542 46.8648 50.6418L47.3731 49.9674C49.2576 48.3262 50.337 45.8263 51.1826 43.5017C51.2276 43.3713 51.3175 43.2544 51.4299 43.1689C51.8797 42.8407 52.37 43.0116 52.8197 42.5799C54.4839 40.9703 56.4449 34.9093 54.277 33.1872C54.0341 32.9983 53.6788 33.1018 53.5798 33.394L52.1991 37.4901C52.1676 37.589 52.0686 37.6475 51.9652 37.6295C51.8662 37.6115 51.7898 37.5261 51.7898 37.4227V33.7177C51.7898 33.5064 51.6144 33.3311 51.403 33.3311H44.0133C43.7974 33.3311 43.613 33.1692 43.5861 32.9534L43.0013 27.9715C42.9834 27.8366 42.8754 27.7376 42.7405 27.7331C42.6055 27.7331 42.4886 27.8321 42.4706 27.9625C42.3717 28.6144 42.0164 30.1162 41.4092 32.4723C41.3012 32.8949 40.9189 33.1872 40.4827 33.1872H30.318C30.0661 33.1872 29.8412 33.0208 29.7692 32.7825C29.1081 30.5658 28.8652 28.4031 29.0451 26.2898C29.0496 26.2314 29.0091 26.1729 28.9507 26.1639C28.8922 26.1504 28.8292 26.1819 28.8112 26.2404C28.0421 28.4616 27.7453 30.7007 27.9297 32.9578C27.9702 33.4569 27.6373 33.6278 26.9402 33.4704C26.6209 33.3985 26.3285 33.6638 26.369 33.9875L26.7513 37.2473C26.7603 37.3238 26.7109 37.3912 26.6389 37.4092C26.5624 37.4272 26.4905 37.3867 26.4635 37.3148L25.1231 33.5064C24.9747 33.0838 24.426 32.9893 24.1427 33.3355C23.6884 33.8886 23.459 34.5721 23.4545 35.3859C23.432 37.9443 24.1742 40.2778 25.6764 42.3956C25.8248 42.6024 26.0587 42.7373 26.315 42.7598C26.7063 42.7913 27.0077 42.8677 27.228 42.9981C27.381 43.088 27.4934 43.2319 27.5474 43.3983C28.4829 46.4243 30.0571 48.9872 32.2744 51.078L32.0765 55.4754C31.8921 57.4537 31.8247 59.522 30.2595 60.4482C28.7888 61.316 26.9807 61.977 24.8398 62.4266C24.5475 62.4896 24.381 62.6604 24.3496 62.9437C24.2506 62.7548 24.0797 62.6919 23.8368 62.7548C22.6629 63.0471 21.1292 63.5372 19.2357 64.2161C17.0993 64.985 15.705 66.3564 15.0529 68.3213C13.888 65.8708 13.6721 63.4113 14.4052 60.9473C14.6301 60.192 15.0034 59.3781 15.5297 58.5014C17.0723 55.925 17.9764 54.1894 17.3827 51.1229C17.0678 49.4728 16.4832 47.1572 16.708 45.2462C16.9104 43.5376 17.2702 42.0809 17.783 40.8713C19.2357 37.4497 20.1847 34.01 20.6345 30.5433C20.9808 27.8905 21.57 25.3546 22.4111 22.9311C23.8008 18.9294 25.6314 15.7865 29.4049 13.7362C35.2879 10.5303 41.2428 10.1796 47.2741 12.6795C54.7582 15.782 56.8856 24.8465 58.1405 32.0631C58.5183 34.2438 58.9006 35.822 59.2874 36.8067C60.8661 40.8174 62.3818 43.686 61.8061 47.0313C61.2214 50.4485 60.007 53.2991 61.7296 56.3791C62.5482 57.8404 63.5422 59.2432 64.0189 60.763C64.7296 63.0291 64.6486 65.3267 63.7716 67.6603Z" fill="var(--fill-0, #A48A7A)"/>
<path id="Vector_16" d="M47.3731 49.9718C43.5141 52.7865 40.3658 55.0257 36.1515 53.1777C34.6268 52.5077 33.3359 51.8108 32.2745 51.0824C30.0572 48.9916 28.483 46.4288 27.5475 43.4027C27.4935 43.2364 27.381 43.0925 27.2281 43.0025C27.0077 42.8722 26.7064 42.7957 26.3151 42.7642C26.0587 42.7417 25.8249 42.6069 25.6764 42.4001C24.1742 40.2823 23.4321 37.9487 23.4546 35.3903C23.4591 34.5765 23.6885 33.8931 24.1428 33.34C24.4261 32.9938 24.9748 33.0882 25.1232 33.5109L26.4635 37.3192C26.4905 37.3912 26.5625 37.4316 26.6389 37.4136C26.7109 37.3957 26.7604 37.3282 26.7514 37.2518L26.3691 33.992C26.3286 33.6682 26.6209 33.4029 26.9403 33.4749C27.6374 33.6323 27.9702 33.4614 27.9298 32.9623C27.7454 30.7052 28.0422 28.466 28.8113 26.2448C28.8293 26.1864 28.8923 26.1549 28.9507 26.1684C29.0092 26.1774 29.0497 26.2358 29.0452 26.2943C28.8653 28.4075 29.1082 30.5703 29.7693 32.787C29.8413 33.0252 30.0662 33.1916 30.318 33.1916H40.4827C40.919 33.1916 41.3013 32.8993 41.4093 32.4767C42.0164 30.1207 42.3717 28.6189 42.4707 27.9669C42.4887 27.8365 42.6056 27.7376 42.7406 27.7376C42.8755 27.7421 42.9834 27.841 43.0014 27.9759L43.5861 32.9578C43.6131 33.1736 43.7975 33.3355 44.0134 33.3355H51.403C51.6144 33.3355 51.7899 33.5109 51.7899 33.7222V37.4271C51.7899 37.5306 51.8663 37.616 51.9653 37.634C52.0687 37.652 52.1677 37.5935 52.1991 37.4946L53.5799 33.3984C53.6789 33.1062 54.0342 33.0028 54.277 33.1916C56.4449 34.9137 54.4839 40.9747 52.8198 42.5844C52.37 43.016 51.8798 42.8452 51.43 43.1734C51.3176 43.2588 51.2276 43.3757 51.1827 43.5062C50.3371 45.8307 49.2577 48.3307 47.3731 49.9718Z" fill="var(--fill-0, #F9BA96)"/>
<path id="Vector_17" d="M47.3737 49.969L46.8654 50.6434C46.78 50.7558 46.735 50.8952 46.7305 51.0391L46.69 54.6586C46.6091 54.3484 46.5102 54.1101 46.3977 53.9437C46.3257 53.8403 46.1908 53.8133 46.0829 53.8763C43.1414 55.6073 41.1669 56.7134 40.1595 57.1855C38.7876 57.8285 37.3574 57.8195 35.8777 57.1541C34.6408 56.5965 33.3769 56.039 32.0771 55.477L32.275 51.0796C33.3365 51.808 34.6273 52.5049 36.152 53.1748C40.3664 55.0228 43.5147 52.7837 47.3737 49.969Z" fill="var(--fill-0, #EC9C74)"/>
<path id="Vector_18" d="M46.6895 54.6602C46.8559 55.8338 47.0583 57.0163 47.2967 58.2123C47.5575 59.5208 48.2951 60.4425 49.505 60.9686C51.3535 61.7734 53.3415 62.4344 55.4734 62.9559C51.6549 66.481 47.4316 69.1473 42.8125 70.9549C42.6506 71.0178 42.5336 71.1662 42.5111 71.3415L42.1378 74.0303L37.5682 74.2371L37.2938 71.5394C37.2623 71.2471 37.0599 70.9953 36.7811 70.9099C31.9191 69.3901 27.7768 66.7373 24.3496 62.9469C24.3811 62.6637 24.5475 62.4928 24.8398 62.4299C26.9807 61.9802 28.7888 61.3193 30.2595 60.4515C31.8247 59.5253 31.8921 57.457 32.0766 55.4786C33.3764 56.0406 34.6402 56.5982 35.8771 57.1557C37.3568 57.8212 38.7871 57.8302 40.1589 57.1872C41.1663 56.7151 43.1408 55.609 46.0823 53.8779C46.1902 53.8149 46.3251 53.8419 46.3971 53.9453C46.5096 54.1117 46.6085 54.35 46.6895 54.6602Z" fill="var(--fill-0, #F9BA96)"/>
<path id="Vector_19" d="M24.3496 62.945C27.7768 66.7354 31.9191 69.3882 36.7811 70.908C37.0599 70.9934 37.2623 71.2452 37.2938 71.5374L37.5682 74.2352L37.8155 75.6201C37.847 75.7999 37.7031 75.9663 37.5187 75.9573C30.9161 75.6201 24.5924 74.0419 18.5521 71.2182C16.9599 70.4763 15.831 69.8963 15.1608 69.4826C14.9 69.3208 14.7695 69.1409 14.7695 68.9476C14.7695 68.7587 14.864 68.5519 15.0529 68.3226C15.705 66.3577 17.0993 64.9863 19.2357 64.2174C21.1292 63.5385 22.6629 63.0484 23.8368 62.7562C24.0797 62.6932 24.2506 62.7562 24.3496 62.945Z" fill="var(--fill-0, #7A5590)"/>
<path id="Vector_20" d="M63.7722 67.6639L64.3704 68.9724C64.4603 69.1702 64.3794 69.404 64.1905 69.5074C57.3405 73.2708 50.0498 75.4425 42.3093 76.0225C42.1789 76.0316 42.0665 75.9416 42.0485 75.8112C41.9765 75.2762 42.008 74.6827 42.1384 74.0307L42.5117 71.3419C42.5342 71.1666 42.6512 71.0182 42.8131 70.9552C47.4322 69.1477 51.6555 66.4814 55.474 62.9563C56.8728 63.1407 58.3075 63.5453 59.7783 64.1658C61.5503 64.9122 62.8816 66.0767 63.7722 67.6639Z" fill="var(--fill-0, #7A5590)"/>
</g>
</g>
</g>
</svg>
