<svg preserveAspectRatio="none" width="100%" height="100%" overflow="visible" style="display: block;" viewBox="0 0 78 78" fill="none" xmlns="http://www.w3.org/2000/svg">
<g id="Mask group">
<mask id="mask0_0_142" style="mask-type:alpha" maskUnits="userSpaceOnUse" x="0" y="0" width="78" height="78">
<circle id="Ellipse 37" cx="39" cy="39" r="39" fill="var(--fill-0, #D9D9D9)"/>
</mask>
<g mask="url(#mask0_0_142)">
<circle id="Ellipse 43" cx="39" cy="39" r="40.4717" fill="var(--fill-0, white)"/>
<g id="Group 1000005941">
<path id="Vector" d="M28.9085 53.0363C29.1259 54.0744 29.1082 55.1391 28.8553 56.2259C28.8153 56.3856 28.9041 56.5498 29.0549 56.6075C29.2812 56.6917 29.5253 56.7405 29.7827 56.745C30.1288 56.7538 30.3951 57.0511 30.3596 57.3927L30.0711 60.3916" stroke="var(--stroke-0, #F6CEBA)" stroke-miterlimit="10"/>
<path id="Vector_2" d="M30.0707 60.3919L29.4805 62.8584" stroke="var(--stroke-0, #FCDDCB)" stroke-miterlimit="10"/>
<path id="Vector_3" d="M29.4814 62.8584C28.869 60.3874 26.9032 62.5124 26.5216 63.5194C26.4062 63.8211 26.1621 64.0518 25.8559 64.1449C21.3962 65.5024 19.1109 66.1989 18.9955 66.2344C16.617 66.9797 14.7754 67.3701 13.7769 69.5483C13.1556 70.9102 12.7341 72.2454 12.5166 73.5541C12.4767 73.807 12.6142 74.0599 12.8539 74.1575C14.2872 74.7475 15.9336 75.2621 17.7973 75.7013C24.0055 77.1608 30.2802 77.9194 36.6259 77.9815" stroke="var(--stroke-0, #8E94A0)" stroke-miterlimit="10"/>
<path id="Vector_4" d="M36.626 77.9815L41.5206 78.0081" stroke="var(--stroke-0, #FCDDCB)" stroke-miterlimit="10"/>
<path id="Vector_5" d="M41.5205 78.0081C47.7375 77.8617 53.786 77.1475 59.6746 75.8565C61.6671 75.4173 63.4954 74.8584 65.155 74.1796C65.3148 74.1131 65.4079 73.9445 65.3813 73.7759C65.1239 72.1168 64.6136 70.5552 63.8459 69.0913C63.0427 67.5608 61.2145 66.8377 59.6746 66.3585C56.9854 65.5157 54.4871 64.7482 52.184 64.0562C51.7713 63.9275 51.4296 63.6303 51.2566 63.231C50.6841 61.9223 49.9208 61.39 48.9623 61.6251" stroke="var(--stroke-0, #8E94A0)" stroke-miterlimit="10"/>
<path id="Vector_6" d="M48.9624 61.6253C48.3411 60.5163 47.9994 59.3096 47.9417 58.0098C47.9373 57.8235 47.9817 57.6416 48.0793 57.4819C48.2302 57.2379 48.4609 56.9939 48.7671 56.7588C48.8958 56.6612 48.9846 56.5192 49.0112 56.3551C49.0777 55.9203 48.9801 55.4989 48.7183 55.0908" stroke="var(--stroke-0, #FCDDCB)" stroke-miterlimit="10"/>
<path id="Vector_7" d="M48.7188 55.0902C48.7632 54.9083 48.7454 54.7353 48.6611 54.5622" stroke="var(--stroke-0, #F6CEBA)" stroke-miterlimit="10"/>
<path id="Vector_8" d="M48.661 54.5623C48.4613 53.5109 48.6033 53.1428 49.0781 53.4666" stroke="var(--stroke-0, #FCDDCB)" stroke-miterlimit="10"/>
<path id="Vector_9" d="M49.0778 53.4668L50.0187 55.6539C50.1695 56.0088 50.5733 56.1907 50.9372 56.062L53.7595 55.0683C54.0834 54.953 54.1811 54.5404 53.937 54.2964L52.8365 53.1962C52.7566 53.1164 52.7477 52.9922 52.8143 52.9034C52.8853 52.8147 53.0051 52.7881 53.1027 52.8458L54.6958 53.7641C55.0198 53.9504 55.4191 53.9371 55.7298 53.7242L59.4573 51.16C59.6393 51.0358 59.728 50.8096 59.6836 50.5966L58.0018 42.6469C57.9708 42.5049 57.9175 42.3674 57.8421 42.2432L57.2341 41.2628C57.132 41.0986 57.1188 40.8901 57.2031 40.7083C59.8478 34.9855 56.5685 28.6506 54.221 23.2206C52.9297 20.2439 51.239 17.631 48.3856 16.1759C43.9924 13.9312 38.8093 13.2658 34.1543 14.8495C33.9812 14.9072 33.8038 14.9471 33.6218 14.9693C28.7804 15.4927 25.2792 18.4828 23.4243 22.8746C22.3105 25.5053 21.3209 27.9097 20.46 30.0835C19.5591 32.346 18.9113 36.7467 20.1139 39.4927C20.2869 39.892 20.4156 40.2203 20.4955 40.4731C20.5443 40.6284 20.5177 40.797 20.42 40.9256C19.9807 41.4979 19.7455 41.9016 19.7056 42.1412C19.1908 45.18 18.5785 47.9837 17.8729 50.5478C17.8152 50.7563 17.9039 50.9737 18.0903 51.0802L22.3016 53.5112C22.7719 53.7818 23.3622 53.702 23.7482 53.3205L24.9908 52.0739C25.1327 51.9319 25.3679 52.0739 25.3147 52.2646C25.1061 53.0277 24.6757 53.7552 24.0145 54.4473C23.8458 54.6291 23.9124 54.9264 24.1432 55.0107C25.3014 55.4454 27.3959 56.723 28.0837 54.8332C28.1769 54.5803 28.452 53.9814 28.9092 53.0365" stroke="var(--stroke-0, #FCD19D)" stroke-miterlimit="10"/>
<path id="Vector_10" d="M49.0776 53.4667L50.8926 47.6597C50.9946 47.3358 51.2565 47.0918 51.5848 47.0075C52.7519 46.7192 53.5951 45.9384 54.1054 44.6697C54.7222 43.1303 55.1482 41.8704 55.3834 40.8944C55.7828 39.222 55.592 38.1928 54.8021 36.8796C54.3139 36.0589 53.1513 36.3783 52.9116 37.27C52.601 38.419 52.286 39.4837 51.9709 40.4597C51.962 40.4863 51.931 40.504 51.9044 40.4996L51.7934 40.4907C51.6602 40.4774 51.5627 40.3621 51.5715 40.229C51.6736 38.4589 51.5449 36.7199 51.1943 35.0209C51.1411 34.7591 50.857 34.6216 50.6175 34.7325C46.029 36.8663 40.1714 35.0652 35.6762 32.8161C32.9958 31.4763 31.0389 28.9299 29.7076 26.4501C29.6277 26.3037 29.4103 26.317 29.3526 26.4767C28.9133 27.6523 28.4296 29.1428 28.3009 30.66C28.1634 32.2526 27.6663 34.076 26.8099 36.1299C26.3439 37.2434 26.304 38.6364 26.6856 40.3088C26.6989 40.3709 26.6634 40.4331 26.6013 40.4464L26.4859 40.4774C26.3927 40.4996 26.304 40.4464 26.2774 40.3532L25.3633 36.8131C25.2345 36.3029 24.6887 36.0146 24.1917 36.1965C23.322 36.5159 22.8605 37.2789 22.8028 38.4855C22.6874 40.9166 23.566 46.6482 26.7344 46.9588C27.0761 46.9942 27.3557 47.2515 27.4178 47.5931C27.7107 49.2523 28.2388 50.8316 29.002 52.3266" stroke="var(--stroke-0, #F9AF69)" stroke-miterlimit="10"/>
<path id="Vector_11" d="M29.0013 52.327L28.9082 53.0368" stroke="var(--stroke-0, #F3A058)" stroke-miterlimit="10"/>
<path id="Vector_12" d="M48.7171 55.0908C48.939 56.1466 48.5086 56.7766 47.4214 56.9851C47.3104 57.0073 47.2128 57.0605 47.1329 57.1404L45.0827 59.1854C45.0251 59.2431 44.9629 59.2875 44.8964 59.3274C42.1273 60.8446 40.5209 61.683 40.0772 61.8383C37.6498 62.7122 35.2225 62.6812 32.7862 61.7451C31.8366 61.377 30.9314 60.9289 30.0705 60.3921M48.6594 54.5629C48.5085 54.3544 48.3488 54.2257 48.1846 54.1725C48.0115 54.1148 47.834 54.1814 47.6521 54.3677C46.1345 55.9071 44.5192 57.127 42.8107 58.0231C38.4841 60.2856 35.1337 57.8723 31.6946 55.3392C31.3573 55.0908 31.0556 54.798 30.7893 54.4786L29.001 52.327" stroke="var(--stroke-0, #F3AB85)" stroke-miterlimit="10"/>
<path id="Vector_13" d="M48.9614 61.625C47.2795 64.6283 45.4114 67.5252 43.3568 70.3111C42.913 70.91 42.6245 71.5799 42.4914 72.3119C42.1542 74.1796 41.8302 76.0783 41.5196 78.008M36.625 77.9814L35.4046 72.0235C35.2715 71.3847 34.9919 70.7858 34.5881 70.2801C32.7465 67.9866 31.0469 65.5111 29.4805 62.8583" stroke="var(--stroke-0, #8B726C)" stroke-miterlimit="10"/>
<path id="Vector_14" d="M49.0778 53.4669L50.8928 47.6598C50.9949 47.336 51.2567 47.092 51.5851 47.0077C52.7522 46.7194 53.5953 45.9386 54.1056 44.6698C54.7225 43.1305 55.1485 41.8705 55.3836 40.8946C55.783 39.2221 55.5922 38.1929 54.8023 36.8798C54.3142 36.0591 53.1516 36.3785 52.9119 37.2702C52.6013 38.4192 52.2862 39.4839 51.9712 40.4598C51.9623 40.4865 51.9312 40.5042 51.9046 40.4998L51.7937 40.4909C51.6605 40.4776 51.5629 40.3622 51.5718 40.2291C51.6738 38.4591 51.5452 36.7201 51.1946 35.021C51.1413 34.7593 50.8573 34.6217 50.6177 34.7326C46.0292 36.8665 40.1717 35.0654 35.6764 32.8162C32.9961 31.4765 31.0391 28.9301 29.7079 26.4502C29.628 26.3038 29.4106 26.3172 29.3529 26.4768C28.9135 27.6524 28.4298 29.143 28.3012 30.6602C28.1636 32.2528 27.6666 34.0761 26.8102 36.1301C26.3442 37.2436 26.3043 38.6365 26.6859 40.309C26.6992 40.3711 26.6637 40.4332 26.6016 40.4465L26.4862 40.4776C26.393 40.4998 26.3043 40.4465 26.2777 40.3534L25.3635 36.8133C25.2348 36.3031 24.689 36.0147 24.192 36.1966C23.3222 36.516 22.8607 37.279 22.803 38.4857C22.6877 40.9167 23.5663 46.6484 26.7347 46.9589C27.0764 46.9944 27.356 47.2517 27.4181 47.5933C27.711 49.2524 28.239 50.8317 29.0023 52.3267L28.9092 53.0365C28.452 53.9815 28.1769 54.5803 28.0837 54.8332C27.3959 56.723 25.3014 55.4454 24.1432 55.0107C23.9124 54.9264 23.8458 54.6291 24.0145 54.4473C24.6757 53.7552 25.1061 53.0277 25.3147 52.2646C25.3679 52.0739 25.1327 51.9319 24.9908 52.0739L23.7482 53.3205C23.3622 53.702 22.7719 53.7818 22.3016 53.5112L18.0903 51.0802C17.9039 50.9737 17.8152 50.7563 17.8729 50.5478C18.5785 47.9837 19.1908 45.18 19.7056 42.1412C19.7455 41.9016 19.9807 41.4979 20.42 40.9256C20.5177 40.797 20.5443 40.6284 20.4955 40.4732C20.4156 40.2203 20.2869 39.892 20.1139 39.4927C18.9113 36.7467 19.5591 32.346 20.46 30.0835C21.3209 27.9097 22.3105 25.5053 23.4243 22.8746C25.2792 18.4828 28.7804 15.4927 33.6218 14.9693C33.8038 14.9471 33.9812 14.9072 34.1543 14.8495C38.8093 13.2658 43.9924 13.9312 48.3856 16.1759C51.239 17.631 52.9297 20.244 54.221 23.2207C56.5685 28.6506 59.8478 34.9855 57.2031 40.7083C57.1188 40.8901 57.132 41.0987 57.2341 41.2628L57.8421 42.2432C57.9175 42.3674 57.9708 42.5049 58.0018 42.6469L59.6836 50.5966C59.728 50.8096 59.6393 51.0358 59.4573 51.16L55.7298 53.7242C55.4191 53.9371 55.0198 53.9504 54.6958 53.7641L53.1027 52.8458C53.0051 52.7881 52.8853 52.8147 52.8143 52.9034C52.7477 52.9922 52.7566 53.1164 52.8365 53.1962L53.937 54.2964C54.1811 54.5404 54.0834 54.953 53.7595 55.0684L50.9372 56.062C50.5733 56.1907 50.1695 56.0088 50.0187 55.6539L49.0778 53.4669Z" fill="var(--fill-0, #F9A33B)"/>
<path id="Vector_15" d="M49.0776 53.4667C48.6028 53.1428 48.4608 53.511 48.6605 54.5624C48.5096 54.3539 48.3498 54.2253 48.1857 54.1721C48.0126 54.1144 47.8351 54.1809 47.6532 54.3672C46.1355 55.9066 44.5202 57.1266 42.8118 58.0227C38.4851 60.2852 35.1348 57.8718 31.6957 55.3388C31.3584 55.0904 31.0567 54.7976 30.7904 54.4781L29.002 52.3266C28.2388 50.8316 27.7107 49.2523 27.4178 47.5931C27.3557 47.2515 27.0761 46.9942 26.7344 46.9588C23.566 46.6482 22.6874 40.9166 22.8028 38.4855C22.8605 37.2789 23.322 36.5159 24.1917 36.1965C24.6887 36.0145 25.2345 36.3029 25.3633 36.8131L26.2774 40.3532C26.304 40.4464 26.3927 40.4996 26.4859 40.4774L26.6013 40.4464C26.6634 40.4331 26.6989 40.3709 26.6856 40.3088C26.304 38.6364 26.3439 37.2434 26.8099 36.1299C27.6663 34.0759 28.1634 32.2526 28.3009 30.66C28.4296 29.1428 28.9133 27.6523 29.3526 26.4767C29.4103 26.317 29.6277 26.3037 29.7076 26.4501C31.0389 28.9299 32.9958 31.4763 35.6762 32.8161C40.1714 35.0652 46.029 36.8663 50.6175 34.7325C50.857 34.6216 51.1411 34.7591 51.1943 35.0209C51.5449 36.7199 51.6736 38.4589 51.5715 40.229C51.5627 40.3621 51.6602 40.4774 51.7934 40.4907L51.9044 40.4996C51.931 40.504 51.962 40.4863 51.9709 40.4597C52.286 39.4837 52.601 38.419 52.9116 37.27C53.1513 36.3783 54.3139 36.0589 54.8021 36.8796C55.592 38.1928 55.7828 39.222 55.3834 40.8944C55.1482 41.8704 54.7222 43.1303 54.1054 44.6697C53.5951 45.9384 52.7519 46.7192 51.5848 47.0075C51.2565 47.0918 50.9946 47.3358 50.8926 47.6597L49.0776 53.4667Z" fill="var(--fill-0, #F9BA96)"/>
<path id="Vector_16" d="M48.6601 54.5629C48.7444 54.7359 48.7622 54.9089 48.7178 55.0908C48.9397 56.1466 48.5092 56.7766 47.422 56.9851C47.3111 57.0073 47.2135 57.0605 47.1336 57.1404L45.0834 59.1854C45.0258 59.2431 44.9636 59.2875 44.8971 59.3274C42.128 60.8446 40.5216 61.683 40.0779 61.8383C37.6505 62.7123 35.2231 62.6812 32.7869 61.7452C31.8373 61.377 30.9321 60.9289 30.0711 60.3921L30.3596 57.3932C30.3951 57.0516 30.1288 56.7544 29.7827 56.7455C29.5253 56.7411 29.2812 56.6923 29.0549 56.608C28.9041 56.5503 28.8153 56.3862 28.8553 56.2265C29.1082 55.1396 29.1259 54.0749 28.9085 53.0368L29.0017 52.327L30.79 54.4786C31.0563 54.798 31.358 55.0908 31.6953 55.3392C35.1344 57.8723 38.4848 60.2856 42.8114 58.0231C44.5199 57.127 46.1352 55.9071 47.6528 54.3677C47.8347 54.1814 48.0122 54.1148 48.1853 54.1725C48.3495 54.2257 48.5092 54.3544 48.6601 54.5629Z" fill="var(--fill-0, #EC9C74)"/>
<path id="Vector_17" d="M48.9614 61.6253C47.2795 64.6286 45.4114 67.5255 43.3568 70.3114C42.913 70.9103 42.6245 71.5802 42.4914 72.3122C42.1542 74.1799 41.8302 76.0786 41.5196 78.0083L36.625 77.9817L35.4046 72.0238C35.2715 71.385 34.9919 70.7861 34.5881 70.2804C32.7465 67.9869 31.0469 65.5114 29.4805 62.8586L30.0707 60.3921C30.9316 60.9288 31.8368 61.3769 32.7865 61.7451C35.2227 62.6811 37.65 62.7122 40.0774 61.8382C40.5211 61.683 42.1276 60.8445 44.8966 59.3273C44.9632 59.2874 45.0253 59.243 45.083 59.1854L47.1332 57.1403C47.213 57.0604 47.3106 57.0072 47.4216 56.985C48.5088 56.7765 48.9392 56.1466 48.7173 55.0908C48.9792 55.4989 49.0768 55.9203 49.0102 56.3551C48.9836 56.5192 48.8948 56.6612 48.7661 56.7588C48.46 56.9939 48.2292 57.2379 48.0783 57.4819C47.9807 57.6416 47.9363 57.8235 47.9407 58.0098C47.9984 59.3096 48.3401 60.5163 48.9614 61.6253Z" fill="var(--fill-0, #F9BA96)"/>
<path id="Vector_18" d="M41.5205 78.0081C41.8311 76.0784 42.1551 74.1796 42.4923 72.312C42.6255 71.58 42.9139 70.9101 43.3577 70.3112C45.4123 67.5253 47.2805 64.6284 48.9623 61.6251C49.9208 61.39 50.6841 61.9223 51.2566 63.231C51.4296 63.6303 51.7713 63.9275 52.184 64.0562C54.4871 64.7482 56.9854 65.5157 59.6746 66.3585C61.2145 66.8377 63.0427 67.5608 63.8459 69.0913C64.6136 70.5552 65.1239 72.1168 65.3813 73.7759C65.4079 73.9445 65.3148 74.1131 65.155 74.1796C63.4954 74.8584 61.6671 75.4173 59.6746 75.8565C53.786 77.1475 47.7375 77.8617 41.5205 78.0081Z" fill="var(--fill-0, #4B206D)"/>
<path id="Vector_19" d="M29.4814 62.8584C31.0479 65.5113 32.7475 67.9867 34.5891 70.2802C34.9929 70.7859 35.2725 71.3848 35.4056 72.0236L36.6259 77.9815C30.2802 77.9194 24.0055 77.1608 17.7973 75.7013C15.9336 75.2621 14.2872 74.7475 12.8539 74.1575C12.6142 74.0599 12.4767 73.807 12.5166 73.5541C12.7341 72.2454 13.1556 70.9102 13.7769 69.5483C14.7754 67.3701 16.617 66.9797 18.9955 66.2344C19.1109 66.1989 21.3962 65.5024 25.8559 64.1449C26.1621 64.0518 26.4062 63.8211 26.5216 63.5194C26.9032 62.5124 28.869 60.3874 29.4814 62.8584Z" fill="var(--fill-0, #4B206D)"/>
</g>
</g>
</g>
</svg>
