<svg preserveAspectRatio="none" width="100%" height="100%" overflow="visible" style="display: block;" viewBox="0 0 78 78" fill="none" xmlns="http://www.w3.org/2000/svg">
<g id="Mask group">
<mask id="mask0_0_66" style="mask-type:alpha" maskUnits="userSpaceOnUse" x="0" y="0" width="78" height="78">
<circle id="Ellipse 37" cx="39" cy="39" r="39" fill="var(--fill-0, #D9D9D9)"/>
</mask>
<g mask="url(#mask0_0_66)">
<circle id="Ellipse 43" cx="39" cy="39" r="40.4717" fill="var(--fill-0, white)"/>
<g id="Group 1000005940">
<path id="Vector" d="M32.1118 59.9158C32.1903 61.2079 32.0416 62.4958 31.6617 63.7837C31.2323 65.2409 29.9729 65.9551 28.5565 66.467C27.5201 66.8426 26.6736 67.1357 26.0088 67.3504" stroke="var(--stroke-0, #C0A69D)" stroke-miterlimit="10"/>
<path id="Vector_2" d="M26.009 67.3505L22.1895 68.6177" stroke="var(--stroke-0, #8E94A0)" stroke-miterlimit="10"/>
<path id="Vector_3" d="M22.1885 68.6177C19.9794 69.142 18.3525 70.3309 17.3036 72.1843C17.1921 72.3825 17.2748 72.6343 17.4853 72.7292L22.3826 74.9047" stroke="var(--stroke-0, #C0A69D)" stroke-miterlimit="10"/>
<path id="Vector_4" d="M22.3828 74.9048C25.55 76.0565 29.0887 76.8449 32.9991 77.2701C40.919 78.1287 48.4673 77.3527 55.6481 74.9461" stroke="var(--stroke-0, #8E94A0)" stroke-miterlimit="10"/>
<path id="Vector_5" d="M55.6474 74.9459L60.1854 72.9273C60.4249 72.82 60.5199 72.531 60.3878 72.304C59.31 70.4587 57.7244 69.2699 55.6309 68.7374" stroke="var(--stroke-0, #C0A69D)" stroke-miterlimit="10"/>
<path id="Vector_6" d="M55.6311 68.7377L50.6719 67.0163" stroke="var(--stroke-0, #8E94A0)" stroke-miterlimit="10"/>
<path id="Vector_7" d="M50.672 67.0162C49.6438 66.6736 48.5826 66.1865 47.4924 65.5631C46.7327 65.1297 46.2578 64.4486 46.072 63.5198C45.8119 62.2195 45.7128 61.0265 45.7747 59.9449" stroke="var(--stroke-0, #C0A69D)" stroke-miterlimit="10"/>
<path id="Vector_8" d="M45.7753 59.9446L47.0059 59.4162C47.1008 59.3749 47.204 59.3584 47.3073 59.3708C48.5337 59.5029 49.4586 59.0612 50.0822 58.0416C50.1606 57.9178 50.2803 57.8311 50.4208 57.798C51.4902 57.5586 52.2996 57.0797 52.8488 56.3656C52.9726 56.2088 53.1461 56.1014 53.3401 56.0684C54.1206 55.9281 54.5335 55.8661 54.996 55.2634C55.2644 54.9084 55.6154 54.6442 56.0448 54.4709C57.0028 54.0869 57.3744 53.4389 58.2251 52.8527C58.9312 52.3614 59.0633 51.507 58.8568 50.8011C58.8197 50.6772 58.8816 50.5451 59.0013 50.4915C60.5705 49.7897 61.6523 48.5348 61.0412 46.8052C60.9462 46.5409 61.0536 46.2437 61.2972 46.1034C63.1595 45.0218 63.4775 43.8495 62.2428 42.5905C62.0983 42.446 62.0735 42.2189 62.1768 42.0414C62.5442 41.4181 62.4369 40.6792 61.8547 39.8164C61.7638 39.6843 61.8092 39.5027 61.9496 39.4284C62.6805 39.0362 63.2421 38.3427 63.6344 37.3396C63.7128 37.1456 63.7211 36.9268 63.6591 36.7245C63.4733 36.1177 63.4073 35.6389 63.4568 35.2921C63.655 33.9423 62.8911 33.1621 61.706 32.8897C61.5532 32.8566 61.4748 32.6874 61.545 32.5511C61.995 31.6801 61.9372 30.9206 61.3715 30.2642C61.2724 30.1528 61.2683 29.9876 61.3633 29.8721C62.3378 28.6873 61.9372 26.2972 60.0873 26.289C59.9635 26.289 59.8767 26.161 59.9222 26.0413C60.2649 25.1537 60.1039 24.4685 59.4391 23.9855C59.2904 23.8782 59.1954 23.7131 59.1748 23.5314C59.022 22.1816 58.1796 21.5583 56.6435 21.6615C56.4619 21.6738 56.3173 21.517 56.3421 21.3395C56.5238 20.035 56.0283 19.1723 54.8556 18.7553C54.678 18.6893 54.5376 18.5489 54.4757 18.3673C54.038 17.0917 53.1048 17.2197 52.5762 16.2373C51.8908 14.9576 50.5364 14.9245 49.4215 15.7832C49.0374 16.0804 48.8227 16.2373 48.7856 16.2496C48.6658 16.2868 48.5419 16.2125 48.5213 16.0887C48.352 15.0979 47.7078 14.3343 46.5971 13.8017C46.4649 13.7357 46.3163 13.7027 46.1718 13.7068C45.6184 13.7192 45.0114 13.9091 44.3549 14.2765C44.2269 14.3466 44.0741 14.3384 43.9544 14.2558C43.24 13.7522 43.0583 13.3394 42.0508 13.4921C41.8113 13.5293 41.5718 13.4715 41.3323 13.3188C40.4527 12.7615 39.5773 12.8894 38.7102 13.7027C38.5698 13.8348 38.3427 13.8017 38.2436 13.6366C37.4879 12.4023 36.5919 12.1877 35.5595 12.9926C35.444 13.0835 35.2829 13.0959 35.159 13.0174C33.8005 12.1918 32.7517 12.3734 32.0126 13.5582C31.8845 13.7563 31.8267 14.1361 31.7317 14.3508C31.6822 14.4622 31.5501 14.5159 31.4386 14.4664C30.8605 14.2104 30.1668 14.1856 29.7414 14.681C29.5969 14.8503 29.5019 14.9493 29.4565 14.9741C29.3574 15.036 29.2294 15.0443 29.1221 14.9947C27.8544 14.4168 27.33 15.7336 27.268 16.6335C27.2515 16.906 26.9666 17.0835 26.7106 16.9844C25.1828 16.3776 24.2578 16.8028 23.9357 18.26C23.8862 18.4705 23.6673 18.5861 23.465 18.5118C22.5028 18.1485 21.8216 18.3962 21.421 19.259C21.3673 19.3787 21.3467 19.5108 21.3591 19.6429L21.4623 20.5221C21.4871 20.7409 21.3136 20.9349 21.0948 20.9267C19.6 20.8813 18.8361 21.4963 18.8031 22.7636C18.799 22.97 18.6833 23.1599 18.5016 23.2549C17.6262 23.7254 17.4817 24.4148 18.068 25.3271C18.1548 25.4633 18.1217 25.645 17.9896 25.7441C17.3165 26.2312 17.2381 27.0113 17.7501 28.0846C17.8244 28.2415 17.7377 28.4273 17.5684 28.4644C16.8665 28.6172 15.925 28.935 15.6937 29.5749C15.6689 29.6409 15.6607 29.7152 15.6689 29.7895L15.7804 30.7348C15.797 30.8999 15.7185 31.0609 15.574 31.1476C15.4749 31.2095 15.3634 31.2715 15.2437 31.3334C13.9636 32.0145 14.6655 33.1869 15.3221 34.0083C15.4294 34.1446 15.3882 34.3468 15.2313 34.4253C13.976 35.0692 13.6663 35.9154 14.3022 36.9681C14.4219 37.1662 14.4219 37.4139 14.3063 37.6121C13.4433 39.0817 14.6862 39.5192 15.4377 40.3985C15.5244 40.5017 15.5368 40.6503 15.4666 40.7659C15.4419 40.8113 15.2478 41.0053 14.8885 41.3521C13.786 42.4171 14.2609 43.7711 15.574 44.382C15.6813 44.4315 15.7227 44.5678 15.6607 44.671L15.3221 45.2324C15.2106 45.4223 15.1817 45.6493 15.2478 45.8598C15.2849 45.9795 15.3015 46.3717 15.2973 47.0446C15.2891 48.2871 15.8961 48.9146 17.1183 48.9187C17.267 48.9187 17.3909 49.0301 17.4115 49.1746C17.523 49.9878 17.9855 50.508 18.7989 50.735C18.9352 50.7722 19.0095 50.9167 18.9682 51.0487C18.291 53.1623 18.96 54.0663 21.2476 53.7113C21.3756 53.6907 21.4995 53.7526 21.5614 53.864C21.8959 54.4709 22.1106 55.0488 22.9158 55.1107C23.0768 55.1231 23.1925 55.2758 23.1594 55.4327C23.0066 56.1633 23.1388 56.7413 23.5641 57.1747C23.8779 57.4925 24.1794 57.8476 24.4684 58.2356C25.1828 59.1974 26.1614 59.2387 27.4084 58.3594C27.7512 58.12 28.0319 58.1117 28.2591 58.3347C28.8537 58.9209 29.3492 59.0571 29.9314 59.3213C30.047 59.3749 30.1709 59.4038 30.2989 59.3997C30.8729 59.3873 31.4799 59.5607 32.1117 59.9157" stroke="var(--stroke-0, #8E94A0)" stroke-miterlimit="10"/>
<path id="Vector_9" d="M45.7758 59.9448C45.3546 58.6569 45.3628 57.4019 45.8046 56.1759C45.8583 56.0273 45.9368 55.8911 46.0359 55.7673C47.4192 54.0583 48.4639 52.1511 49.17 50.0417C49.554 48.8983 50.5863 48.9891 51.2057 48.2089C52.2256 46.9251 52.622 44.9932 52.6592 43.3585C52.684 42.4503 51.6145 41.7527 51.1438 42.9168C50.9745 43.3337 50.83 43.6433 50.7102 43.8456C50.5285 44.1511 50.0578 44.0272 50.0495 43.6722C50.0289 42.7351 49.9835 42.1118 49.9174 41.794C49.8059 41.2615 49.2691 40.9642 49.1287 40.5514C49.0874 40.4317 49.0626 40.312 49.0502 40.1923L48.9801 39.4245C48.9677 39.2883 48.881 39.1727 48.7571 39.1231L46.614 38.2109C46.5562 38.1861 46.5066 38.1448 46.4736 38.087L45.9987 37.2697C45.8955 37.0922 45.6643 37.0468 45.5032 37.1706C43.5872 38.6608 42.5178 38.215 41.3987 36.2212C41.312 36.0643 41.1221 35.9983 40.9528 36.0643C40.193 36.3739 39.2474 36.6959 38.6032 36.0725C37.9632 35.4575 37.7815 34.6814 38.054 33.7526C38.1201 33.5215 37.9508 33.2944 37.7113 33.2903C36.9557 33.2861 36.3528 32.9477 35.9027 32.2831C35.8201 32.1633 35.6714 32.1055 35.5311 32.1468C33.8835 32.5926 32.397 33.4224 31.0632 34.636C29.8781 35.7175 30.9435 37.8394 28.499 38.0581C28.2925 38.0788 28.1604 38.2851 28.2264 38.4792C28.5361 39.3832 28.4453 40.1263 27.9621 40.7001C27.1487 41.6619 27.3345 42.3182 27.4914 43.5071C27.5327 43.8167 27.1982 44.0355 26.9257 43.8786C26.4756 43.6185 25.7984 43.6227 24.8941 43.891C24.7496 43.9364 24.6505 44.0768 24.6588 44.2295C24.7413 45.7156 25.4433 48.213 26.8266 48.8116C26.9133 48.8487 27.0042 48.8776 27.0991 48.8941C27.479 48.9684 27.735 49.0427 27.863 49.1171C27.9869 49.1872 28.0819 49.3028 28.1315 49.4432C28.9945 51.9736 30.2456 54.0954 31.8891 55.8085C32.1203 56.0562 32.2483 56.3823 32.2359 56.7167L32.1121 59.9159M50.673 67.0161C50.6318 69.014 50 70.5208 48.7777 71.5321C47.9684 72.205 46.424 72.8531 44.1447 73.4847C40.2343 74.5621 36.2454 74.3887 32.1781 72.9563C30.5801 72.3907 29.3372 71.6724 28.4412 70.8015C28.4205 70.7849 28.404 70.7643 28.3916 70.7437L26.009 67.3505M55.6323 68.7374C55.2069 70.8138 55.2152 72.882 55.6488 74.946M22.3835 74.9047C22.5941 72.8118 22.528 70.7189 22.1895 68.6177" stroke="var(--stroke-0, #4E3B3E)" stroke-miterlimit="10"/>
<path id="Vector_10" d="M45.7753 59.9446C45.3542 58.6566 45.3624 57.4017 45.8042 56.1757C45.8579 56.0271 45.9364 55.8909 46.0355 55.7671C47.4188 54.0581 48.4635 52.1509 49.1696 50.0415C49.5536 48.898 50.5859 48.9889 51.2053 48.2087C52.2252 46.9249 52.6216 44.993 52.6588 43.3583C52.6836 42.4501 51.6141 41.7525 51.1434 42.9166C50.9741 43.3335 50.8296 43.6431 50.7098 43.8454C50.5281 44.1509 50.0574 44.027 50.0491 43.672C50.0285 42.7349 49.9831 42.1116 49.917 41.7938C49.8055 41.2612 49.2687 40.964 49.1283 40.5512C49.087 40.4315 49.0622 40.3118 49.0498 40.1921L48.9797 39.4243C48.9672 39.288 48.8806 39.1725 48.7567 39.1229L46.6136 38.2107C46.5558 38.1859 46.5062 38.1446 46.4732 38.0868L45.9983 37.2695C45.8951 37.092 45.6639 37.0465 45.5028 37.1704C43.5868 38.6606 42.5174 38.2148 41.3983 36.221C41.3116 36.0641 41.1217 35.998 40.9524 36.0641C40.1926 36.3737 39.247 36.6957 38.6028 36.0723C37.9628 35.4573 37.7811 34.6812 38.0536 33.7524C38.1197 33.5212 37.9504 33.2942 37.7109 33.2901C36.9553 33.2859 36.3524 32.9474 35.9023 32.2828C35.8197 32.1631 35.671 32.1053 35.5307 32.1466C33.8831 32.5924 32.3966 33.4222 31.0628 34.6358C29.8777 35.7173 30.9431 37.8391 28.4986 38.0579C28.2921 38.0786 28.16 38.2849 28.226 38.479C28.5357 39.383 28.4449 40.1261 27.9617 40.6998C27.1483 41.6617 27.3341 42.318 27.491 43.5069C27.5323 43.8165 27.1978 44.0353 26.9253 43.8784C26.4752 43.6183 25.798 43.6225 24.8937 43.8908C24.7492 43.9362 24.6501 44.0765 24.6584 44.2293C24.7409 45.7153 25.4429 48.2128 26.8262 48.8114C26.9129 48.8485 27.0037 48.8774 27.0987 48.8939C27.4786 48.9682 27.7346 49.0425 27.8626 49.1168C27.9865 49.187 28.0815 49.3026 28.1311 49.4429C28.9941 51.9734 30.2452 54.0952 31.8887 55.8083C32.1199 56.056 32.2479 56.3821 32.2355 56.7165L32.1117 59.9157C31.4799 59.5607 30.8729 59.3873 30.2989 59.3997C30.1709 59.4038 30.047 59.3749 29.9314 59.3213C29.3492 59.0571 28.8537 58.9209 28.2591 58.3347C28.0319 58.1117 27.7512 58.12 27.4084 58.3594C26.1614 59.2387 25.1828 59.1974 24.4684 58.2356C24.1794 57.8476 23.8779 57.4926 23.5641 57.1747C23.1388 56.7413 23.0066 56.1633 23.1594 55.4327C23.1925 55.2758 23.0768 55.1231 22.9158 55.1107C22.1106 55.0488 21.8959 54.4709 21.5614 53.864C21.4995 53.7526 21.3756 53.6907 21.2476 53.7113C18.96 54.0663 18.291 53.1623 18.9682 51.0487C19.0095 50.9167 18.9352 50.7722 18.7989 50.735C17.9855 50.508 17.523 49.9878 17.4115 49.1746C17.3909 49.0301 17.267 48.9187 17.1183 48.9187C15.8961 48.9146 15.2891 48.2871 15.2973 47.0446C15.3015 46.3717 15.2849 45.9795 15.2478 45.8598C15.1817 45.6493 15.2106 45.4223 15.3221 45.2324L15.6607 44.671C15.7227 44.5678 15.6813 44.4315 15.574 44.382C14.2609 43.7711 13.786 42.4171 14.8885 41.3521C15.2478 41.0053 15.4419 40.8113 15.4666 40.7659C15.5368 40.6503 15.5244 40.5017 15.4377 40.3985C14.6862 39.5192 13.4433 39.0817 14.3063 37.6121C14.4219 37.4139 14.4219 37.1662 14.3022 36.9681C13.6663 35.9154 13.976 35.0692 15.2313 34.4253C15.3882 34.3468 15.4294 34.1445 15.3221 34.0083C14.6655 33.1869 13.9636 32.0145 15.2437 31.3334C15.3634 31.2715 15.4749 31.2095 15.574 31.1476C15.7185 31.0609 15.797 30.8999 15.7804 30.7348L15.6689 29.7895C15.6607 29.7152 15.6689 29.6409 15.6937 29.5749C15.925 28.935 16.8665 28.6172 17.5684 28.4644C17.7377 28.4273 17.8244 28.2415 17.7501 28.0846C17.2381 27.0113 17.3165 26.2312 17.9896 25.7441C18.1217 25.645 18.1548 25.4633 18.068 25.3271C17.4817 24.4148 17.6262 23.7254 18.5016 23.2549C18.6833 23.1599 18.799 22.97 18.8031 22.7636C18.8361 21.4963 19.6 20.8813 21.0948 20.9267C21.3136 20.9349 21.4871 20.7409 21.4623 20.5221L21.3591 19.6429C21.3467 19.5108 21.3673 19.3787 21.421 19.259C21.8216 18.3962 22.5028 18.1485 23.465 18.5118C23.6673 18.5861 23.8862 18.4705 23.9357 18.26C24.2578 16.8028 25.1828 16.3776 26.7106 16.9844C26.9666 17.0835 27.2515 16.906 27.268 16.6335C27.33 15.7336 27.8544 14.4168 29.1221 14.9947C29.2294 15.0443 29.3574 15.036 29.4565 14.9741C29.5019 14.9493 29.5969 14.8502 29.7414 14.681C30.1668 14.1856 30.8605 14.2104 31.4386 14.4664C31.5501 14.5159 31.6822 14.4622 31.7317 14.3508C31.8267 14.1361 31.8845 13.7563 32.0126 13.5582C32.7517 12.3734 33.8005 12.1918 35.159 13.0174C35.2829 13.0959 35.444 13.0835 35.5595 12.9926C36.5919 12.1877 37.4879 12.4023 38.2436 13.6366C38.3427 13.8017 38.5698 13.8348 38.7102 13.7027C39.5773 12.8894 40.4527 12.7615 41.3323 13.3187C41.5718 13.4715 41.8113 13.5293 42.0508 13.4921C43.0583 13.3394 43.24 13.7522 43.9544 14.2558C44.0741 14.3384 44.2269 14.3466 44.3549 14.2765C45.0114 13.9091 45.6184 13.7192 46.1718 13.7068C46.3163 13.7027 46.4649 13.7357 46.5971 13.8017C47.7078 14.3343 48.352 15.0979 48.5213 16.0887C48.5419 16.2125 48.6658 16.2868 48.7856 16.2496C48.8227 16.2373 49.0374 16.0804 49.4215 15.7832C50.5364 14.9245 51.8908 14.9576 52.5762 16.2373C53.1048 17.2197 54.038 17.0917 54.4757 18.3673C54.5376 18.5489 54.678 18.6893 54.8556 18.7553C56.0283 19.1723 56.5238 20.035 56.3421 21.3395C56.3173 21.517 56.4619 21.6738 56.6435 21.6615C58.1796 21.5583 59.022 22.1816 59.1748 23.5314C59.1954 23.7131 59.2904 23.8782 59.4391 23.9855C60.1039 24.4685 60.2649 25.1537 59.9222 26.0413C59.8767 26.161 59.9635 26.289 60.0873 26.289C61.9372 26.2972 62.3378 28.6873 61.3633 29.8721C61.2683 29.9876 61.2724 30.1528 61.3715 30.2642C61.9372 30.9206 61.995 31.6801 61.545 32.5511C61.4748 32.6874 61.5532 32.8566 61.706 32.8897C62.8911 33.1621 63.655 33.9423 63.4568 35.2921C63.4073 35.6389 63.4733 36.1177 63.6591 36.7245C63.7211 36.9268 63.7128 37.1456 63.6344 37.3396C63.2421 38.3427 62.6805 39.0362 61.9496 39.4284C61.8092 39.5027 61.7638 39.6843 61.8547 39.8164C62.4369 40.6792 62.5442 41.4181 62.1768 42.0414C62.0735 42.2189 62.0983 42.446 62.2428 42.5905C63.4775 43.8495 63.1595 45.0218 61.2972 46.1034C61.0536 46.2437 60.9462 46.5409 61.0412 46.8052C61.6523 48.5348 60.5705 49.7897 59.0013 50.4914C58.8816 50.5451 58.8197 50.6772 58.8568 50.801C59.0633 51.5069 58.9312 52.3614 58.2251 52.8527C57.3744 53.4389 57.0028 54.0869 56.0448 54.4709C55.6154 54.6442 55.2644 54.9084 54.996 55.2634C54.5335 55.8661 54.1206 55.928 53.3401 56.0684C53.1461 56.1014 52.9726 56.2088 52.8488 56.3656C52.2996 57.0797 51.4902 57.5586 50.4208 57.798C50.2803 57.8311 50.1606 57.9177 50.0822 58.0416C49.4586 59.0612 48.5337 59.5029 47.3073 59.3708C47.204 59.3584 47.1008 59.3749 47.0059 59.4162L45.7753 59.9446Z" fill="var(--fill-0, #1C2941)"/>
<path id="Vector_11" d="M45.7747 59.9448C45.7128 61.0263 45.8119 62.2193 46.072 63.5197C46.2578 64.4485 46.7327 65.1296 47.4924 65.563C48.5826 66.1864 49.6438 66.6735 50.672 67.0161C50.6307 69.014 49.9989 70.5208 48.7767 71.5321C47.9673 72.205 46.423 72.8531 44.1437 73.4847C40.2332 74.5621 36.2444 74.3887 32.177 72.9563C30.579 72.3907 29.3361 71.6724 28.4401 70.8015C28.4194 70.7849 28.4029 70.7643 28.3905 70.7437L26.008 67.3505C26.6728 67.1358 27.5193 66.8427 28.5557 66.4671C29.972 65.9552 31.2315 65.241 31.6609 63.7838C32.0408 62.4959 32.1894 61.208 32.111 59.9159L32.2349 56.7167C32.2472 56.3823 32.1192 56.0562 31.888 55.8085C30.2445 54.0954 28.9934 51.9736 28.1304 49.4431C28.0808 49.3028 27.9859 49.1872 27.862 49.117C27.734 49.0427 27.478 48.9684 27.0981 48.8941C27.0031 48.8776 26.9122 48.8487 26.8256 48.8116C25.4422 48.213 24.7403 45.7156 24.6577 44.2295C24.6494 44.0768 24.7485 43.9364 24.8931 43.891C25.7974 43.6227 26.4746 43.6186 26.9246 43.8786C27.1972 44.0355 27.5316 43.8167 27.4904 43.5071C27.3334 42.3182 27.1476 41.6619 27.9611 40.7C28.4442 40.1263 28.5351 39.3832 28.2254 38.4792C28.1593 38.2851 28.2914 38.0788 28.4979 38.0581C30.9424 37.8393 29.8771 35.7175 31.0622 34.636C32.3959 33.4224 33.8824 32.5926 35.53 32.1468C35.6704 32.1055 35.819 32.1633 35.9017 32.283C36.3517 32.9476 36.9546 33.2861 37.7103 33.2903C37.9498 33.2944 38.1191 33.5214 38.053 33.7526C37.7805 34.6814 37.9621 35.4575 38.6022 36.0725C39.2463 36.6959 40.1919 36.3739 40.9517 36.0643C41.121 35.9982 41.311 36.0643 41.3977 36.2212C42.5167 38.215 43.5862 38.6608 45.5022 37.1706C45.6632 37.0467 45.8944 37.0922 45.9977 37.2697L46.4726 38.087C46.5056 38.1448 46.5551 38.1861 46.6129 38.2109L48.756 39.1231C48.8799 39.1727 48.9666 39.2882 48.979 39.4245L49.0492 40.1923C49.0616 40.312 49.0864 40.4317 49.1276 40.5514C49.2681 40.9642 49.8048 41.2614 49.9163 41.794C49.9824 42.1118 50.0278 42.7351 50.0485 43.6722C50.0567 44.0272 50.5275 44.1511 50.7091 43.8456C50.8289 43.6433 50.9734 43.3337 51.1427 42.9168C51.6134 41.7527 52.6829 42.4503 52.6581 43.3585C52.621 44.9932 52.2246 46.9251 51.2046 48.2089C50.5853 48.9891 49.553 48.8983 49.1689 50.0417C48.4628 52.1511 47.4181 54.0583 46.0348 55.7673C45.9357 55.8911 45.8573 56.0273 45.8036 56.1759C45.3618 57.4019 45.3535 58.6569 45.7747 59.9448Z" fill="var(--fill-0, #804C3B)"/>
<path id="Vector_12" d="M50.673 67.0163L55.6323 68.7377C55.2069 70.814 55.2152 72.8822 55.6488 74.9462C48.468 77.3528 40.9197 78.1289 32.9998 77.2703C29.0895 76.8451 25.5507 76.0566 22.3835 74.9049C22.5941 72.812 22.528 70.7191 22.1895 68.6179L26.009 67.3507L28.3916 70.7439C28.404 70.7645 28.4205 70.7851 28.4412 70.8017C29.3372 71.6727 30.5801 72.3909 32.1781 72.9565C36.2454 74.3889 40.2343 74.5623 44.1447 73.4849C46.424 72.8533 47.9684 72.2052 48.7777 71.5323C50 70.521 50.6318 69.0142 50.673 67.0163Z" fill="var(--fill-0, #B5B70F)"/>
<path id="Vector_13" d="M22.1885 68.6177C22.5271 70.7189 22.5932 72.8118 22.3826 74.9047L17.4853 72.7292C17.2748 72.6343 17.1921 72.3825 17.3036 72.1843C18.3525 70.3309 19.9794 69.142 22.1885 68.6177Z" fill="var(--fill-0, #804C3B)"/>
<path id="Vector_14" d="M55.6488 74.9459C55.2152 72.8819 55.2069 70.8137 55.6322 68.7374C57.7258 69.2699 59.3114 70.4587 60.3892 72.304C60.5213 72.531 60.4263 72.82 60.1868 72.9273L55.6488 74.9459Z" fill="var(--fill-0, #804C3B)"/>
</g>
</g>
</g>
</svg>
