<svg preserveAspectRatio="none" width="100%" height="100%" overflow="visible" style="display: block;" viewBox="0 0 78 78" fill="none" xmlns="http://www.w3.org/2000/svg">
<g id="Mask group">
<mask id="mask0_0_28" style="mask-type:alpha" maskUnits="userSpaceOnUse" x="0" y="0" width="78" height="78">
<circle id="Ellipse 37" cx="39" cy="39" r="39" fill="var(--fill-0, #D9D9D9)"/>
</mask>
<g mask="url(#mask0_0_28)">
<circle id="Ellipse 43" cx="39" cy="39.0006" r="40.4717" fill="var(--fill-0, white)"/>
<g id="Group 1000005960">
<path id="Vector" d="M31.5035 54.7231C31.9262 55.2547 32.0808 56.1045 31.9672 57.2678" stroke="var(--stroke-0, #F6CEBA)" stroke-miterlimit="10"/>
<path id="Vector_2" d="M31.9669 57.2677C31.9487 59.308 31.8714 60.7894 31.7396 61.7028C31.6169 62.5617 31.2623 63.1206 30.6805 63.3796" stroke="var(--stroke-0, #FCDDCB)" stroke-miterlimit="10"/>
<path id="Vector_3" d="M30.6808 63.3797C26.9034 64.9519 21.826 66.5924 17.485 68.6146C15.3895 69.5916 14.2849 70.973 13.8168 73.0043C13.7577 73.2587 13.8804 73.5223 14.1167 73.6359C18.9759 76.008 24.0851 77.2894 29.4534 77.4802" stroke="var(--stroke-0, #8E94A0)" stroke-miterlimit="10"/>
<path id="Vector_4" d="M29.4532 77.4801C31.4942 77.7482 33.4942 77.9209 35.4624 78.0027C40.1762 78.1935 44.8763 78.0209 49.5673 77.4801" stroke="var(--stroke-0, #FCDDCB)" stroke-miterlimit="10"/>
<path id="Vector_5" d="M49.567 77.4801C55.0671 77.1212 60.2218 75.7443 65.031 73.3495C65.1582 73.2859 65.2219 73.1405 65.1855 72.9996C64.5355 70.6866 63.1127 69.0871 60.9172 68.2009C56.7853 66.5332 52.5625 64.9701 48.2579 63.5023" stroke="var(--stroke-0, #8E94A0)" stroke-miterlimit="10"/>
<path id="Vector_6" d="M48.2582 63.5021C47.4991 62.8795 47.1355 61.7662 47.1582 60.1529C47.1809 58.2853 47.0673 56.4404 46.8127 54.6227" stroke="var(--stroke-0, #FCDDCB)" stroke-miterlimit="10"/>
<path id="Vector_7" d="M46.8125 54.6228C49.7717 53.7413 52.2354 52.2826 54.2127 50.2513C59.6355 44.6802 59.9401 35.3419 58.0446 28.3211C56.6764 23.2589 53.7127 17.765 48.0626 16.888C47.8262 16.8516 47.5989 16.7516 47.408 16.6017C45.3579 14.9567 42.7306 14.0933 39.5214 14.007C33.6031 13.8525 27.4894 16.2699 24.3302 21.2549C20.6892 26.9988 19.3346 33.347 20.262 40.3041C21.2074 47.3976 24.9529 52.2053 31.5031 54.7228" stroke="var(--stroke-0, #8E94A0)" stroke-miterlimit="10"/>
<path id="Vector_8" d="M46.813 54.6229C49.0312 52.1782 50.5358 49.6289 51.3267 46.9796C51.4085 46.7024 51.6403 46.4979 51.9267 46.4434C52.2767 46.3752 52.604 46.2026 52.9131 45.9253C53.0495 45.8027 53.1495 45.6436 53.1995 45.4664C53.9404 42.7444 54.2041 39.9043 53.9813 36.9552C53.9677 36.7734 53.7177 36.7416 53.6586 36.9143L52.5586 40.1679C52.5358 40.2315 52.4722 40.2679 52.4085 40.2543C52.3449 40.2406 52.2994 40.1815 52.304 40.1179C52.7495 34.1969 52.0676 27.2397 47.0994 23.2863C46.9948 23.1999 46.8357 23.2363 46.7812 23.359C45.0311 27.1125 41.5901 29.7618 37.9582 31.7839C34.3809 33.7833 30.699 35.4238 26.9125 36.7098C26.5807 36.8234 26.3489 37.1369 26.3398 37.4914L26.2762 40.0043C26.2762 40.027 26.2625 40.0497 26.2443 40.0588L26.1443 40.127C26.058 40.186 25.9352 40.1361 25.917 40.0316C25.858 39.6453 25.7352 39.3863 25.5579 39.25C25.4352 39.1546 25.258 39.2227 25.2307 39.3772C24.9261 41.154 25.1489 43.1807 25.9034 45.4664C26.1125 46.098 26.9035 45.9936 27.2534 46.4116C27.3489 46.5298 27.4216 46.6615 27.4671 46.8069C28.1307 49.0199 29.2399 51.4966 30.9172 53.1279C31.3444 53.5414 31.7581 53.955 32.1627 54.3639" stroke="var(--stroke-0, #8B726C)" stroke-miterlimit="10"/>
<path id="Vector_9" d="M32.1626 54.3637C32.1308 54.6409 31.9125 54.759 31.5035 54.7227" stroke="var(--stroke-0, #84635B)" stroke-miterlimit="10"/>
<path id="Vector_10" d="M48.2582 63.5024C48.9809 68.1102 49.4173 72.7679 49.5673 77.4802M29.4532 77.4802C29.5714 72.7861 29.9805 68.0874 30.6805 63.3797" stroke="var(--stroke-0, #8B726C)" stroke-miterlimit="10"/>
<path id="Vector_11" d="M31.9675 57.2674L32.1675 58.8352C32.1856 58.9761 32.2674 59.1033 32.3856 59.1806C34.4948 60.5529 37.6221 61.8934 39.8767 60.98C42.2631 60.0121 44.345 58.7489 46.1132 57.1948C46.4723 56.8767 46.6814 56.4177 46.6814 55.936V55.109C46.6814 54.7909 46.3268 54.5955 46.0587 54.7681C43.3404 56.4813 40.6949 58.04 37.3994 57.1311C36.9266 56.9993 36.0539 56.5404 34.7857 55.7542C33.9357 55.2271 33.0629 54.7636 32.1629 54.3637" stroke="var(--stroke-0, #F3AB85)" stroke-miterlimit="10"/>
<path id="Vector_12" d="M46.8125 54.6228C49.0308 52.1781 50.5353 49.6288 51.3263 46.9795C51.4081 46.7023 51.6399 46.4978 51.9263 46.4433C52.2763 46.3751 52.6036 46.2025 52.9127 45.9252C53.049 45.8026 53.149 45.6435 53.199 45.4663C53.94 42.7443 54.2036 39.9042 53.9809 36.955C53.9673 36.7733 53.7172 36.7415 53.6581 36.9142L52.5581 40.1678C52.5354 40.2314 52.4718 40.2678 52.4081 40.2542C52.3445 40.2405 52.299 40.1814 52.3035 40.1178C52.749 34.1968 52.0672 27.2396 47.0989 23.2862C46.9944 23.1998 46.8353 23.2362 46.7807 23.3589C45.0306 27.1124 41.5897 29.7617 37.9578 31.7838C34.3805 33.7832 30.6985 35.4237 26.9121 36.7097C26.5802 36.8233 26.3484 37.1368 26.3393 37.4913L26.2757 40.0042C26.2757 40.0269 26.2621 40.0496 26.2439 40.0587L26.1439 40.1269C26.0575 40.1859 25.9348 40.136 25.9166 40.0315C25.8575 39.6452 25.7348 39.3862 25.5575 39.2499C25.4347 39.1545 25.2575 39.2226 25.2302 39.3771C24.9257 41.1539 25.1484 43.1806 25.903 45.4663C26.1121 46.0979 26.903 45.9935 27.253 46.4115C27.3485 46.5296 27.4212 46.6614 27.4666 46.8068C28.1303 49.0198 29.2394 51.4964 30.9167 53.1278C31.344 53.5413 31.7577 53.9548 32.1622 54.3638C32.1304 54.641 31.9122 54.7591 31.5031 54.7228C24.9529 52.2053 21.2074 47.3976 20.262 40.3041C19.3346 33.347 20.6892 26.9988 24.3302 21.2549C27.4894 16.2699 33.6031 13.8525 39.5214 14.007C42.7306 14.0933 45.3579 14.9567 47.408 16.6017C47.5989 16.7516 47.8262 16.8516 48.0626 16.888C53.7127 17.765 56.6764 23.2589 58.0446 28.3211C59.9401 35.3419 59.6355 44.6802 54.2127 50.2513C52.2354 52.2826 49.7717 53.7413 46.8125 54.6228Z" fill="var(--fill-0, #1C2941)"/>
<path id="Vector_13" d="M46.813 54.6229C47.0675 56.4406 47.1812 58.2855 47.1584 60.1532C47.1357 61.7664 47.4994 62.8797 48.2585 63.5023C48.9812 68.1101 49.4176 72.7678 49.5676 77.4801C44.8766 78.0209 40.1765 78.1936 35.4627 78.0028C33.4945 77.921 31.4945 77.7482 29.4535 77.4801C29.5717 72.786 29.9808 68.0873 30.6808 63.3796C31.2626 63.1205 31.6172 62.5616 31.7399 61.7028C31.8717 60.7894 31.949 59.308 31.9672 57.2676L32.1672 58.8354C32.1854 58.9763 32.2672 59.1035 32.3854 59.1808C34.4945 60.5531 37.6219 61.8936 39.8765 60.9802C42.2629 60.0123 44.3448 58.7491 46.113 57.195C46.472 56.8769 46.6812 56.4179 46.6812 55.9362V55.1092C46.6812 54.7911 46.3266 54.5957 46.0584 54.7683C43.3402 56.4815 40.6947 58.0402 37.3991 57.1313C36.9264 56.9995 36.0537 56.5406 34.7854 55.7544C33.9354 55.2273 33.0627 54.7638 32.1627 54.3639C31.7581 53.955 31.3444 53.5414 30.9172 53.1279C29.2399 51.4966 28.1307 49.0199 27.4671 46.8069C27.4216 46.6615 27.3489 46.5298 27.2534 46.4116C26.9035 45.9936 26.1125 46.098 25.9034 45.4664C25.1489 43.1807 24.9261 41.154 25.2307 39.3772C25.258 39.2227 25.4352 39.1546 25.5579 39.25C25.7352 39.3863 25.858 39.6453 25.917 40.0316C25.9352 40.1361 26.058 40.186 26.1443 40.127L26.2443 40.0588C26.2625 40.0497 26.2762 40.027 26.2762 40.0043L26.3398 37.4914C26.3489 37.1369 26.5807 36.8234 26.9125 36.7098C30.699 35.4238 34.3809 33.7833 37.9582 31.7839C41.5901 29.7618 45.0311 27.1125 46.7812 23.359C46.8357 23.2363 46.9948 23.1999 47.0994 23.2863C52.0676 27.2397 52.7495 34.1969 52.304 40.1179C52.2994 40.1815 52.3449 40.2406 52.4085 40.2543C52.4722 40.2679 52.5358 40.2315 52.5586 40.1679L53.6586 36.9143C53.7177 36.7416 53.9677 36.7734 53.9813 36.9552C54.2041 39.9043 53.9404 42.7444 53.1995 45.4664C53.1495 45.6436 53.0495 45.8027 52.9131 45.9253C52.604 46.2026 52.2767 46.3752 51.9267 46.4434C51.6403 46.4979 51.4085 46.7024 51.3267 46.9796C50.5358 49.6289 49.0312 52.1782 46.813 54.6229Z" fill="var(--fill-0, #F9BA96)"/>
<path id="Vector_14" d="M31.9672 57.2674C32.0808 56.1041 31.9262 55.2544 31.5035 54.7227C31.9125 54.759 32.1308 54.6409 32.1626 54.3637C33.0626 54.7636 33.9353 55.2271 34.7853 55.7542C36.0536 56.5404 36.9263 56.9993 37.399 57.1311C40.6946 58.04 43.3401 56.4813 46.0583 54.7681C46.3265 54.5955 46.6811 54.7909 46.6811 55.109V55.936C46.6811 56.4177 46.472 56.8767 46.1129 57.1948C44.3447 58.7489 42.2628 60.0121 39.8764 60.98C37.6218 61.8934 34.4944 60.5529 32.3853 59.1806C32.2671 59.1033 32.1853 58.9761 32.1671 58.8352L31.9672 57.2674Z" fill="var(--fill-0, #EC9C74)"/>
<path id="Vector_15" d="M30.6808 63.3797C29.9807 68.0874 29.5716 72.7861 29.4534 77.4802C24.0851 77.2894 18.9759 76.008 14.1167 73.6359C13.8804 73.5223 13.7577 73.2587 13.8168 73.0043C14.2849 70.973 15.3895 69.5916 17.485 68.6146C21.826 66.5924 26.9034 64.9519 30.6808 63.3797Z" fill="var(--fill-0, #195457)"/>
<path id="Vector_16" d="M49.567 77.4801C49.417 72.7678 48.9806 68.1101 48.2579 63.5023C52.5625 64.9701 56.7853 66.5332 60.9172 68.2009C63.1127 69.0871 64.5355 70.6866 65.1855 72.9996C65.2219 73.1405 65.1582 73.2859 65.031 73.3495C60.2218 75.7443 55.0671 77.1212 49.567 77.4801Z" fill="var(--fill-0, #195457)"/>
</g>
</g>
</g>
</svg>
