<svg preserveAspectRatio="none" width="100%" height="100%" overflow="visible" style="display: block;" viewBox="0 0 78 78" fill="none" xmlns="http://www.w3.org/2000/svg">
<g id="Mask group">
<mask id="mask0_0_84" style="mask-type:alpha" maskUnits="userSpaceOnUse" x="0" y="0" width="78" height="78">
<circle id="Ellipse 37" cx="39" cy="39" r="39" fill="var(--fill-0, #D9D9D9)"/>
</mask>
<g mask="url(#mask0_0_84)">
<circle id="Ellipse 43" cx="39" cy="39" r="40.4717" fill="var(--fill-0, white)"/>
<g id="Group 1000005944">
<path id="Vector" d="M19.2592 67.0501C15.7099 67.8371 13.7074 70.0598 13.2471 73.7276C13.2333 73.8243 13.2931 73.9209 13.3852 73.9485L19.1257 75.9366" stroke="var(--stroke-0, #EBA89F)" stroke-miterlimit="10"/>
<path id="Vector_2" d="M19.126 75.937L25.161 77.129" stroke="var(--stroke-0, #8E94A0)" stroke-miterlimit="10"/>
<path id="Vector_3" d="M25.1602 77.129C33.3312 78.146 41.6128 78.261 50.0002 77.4787C51.303 77.3545 52.5459 77.1842 53.729 76.9679" stroke="var(--stroke-0, #EBA89F)" stroke-miterlimit="10"/>
<path id="Vector_4" d="M53.7295 76.9677L59.829 75.8034" stroke="var(--stroke-0, #8E94A0)" stroke-miterlimit="10"/>
<path id="Vector_5" d="M59.8299 75.8032L64.6911 74.2063C65.0363 74.0912 65.2435 73.7369 65.1653 73.3825C64.4425 70.0276 62.5643 68.0074 59.5215 67.317" stroke="var(--stroke-0, #EBA89F)" stroke-miterlimit="10"/>
<path id="Vector_6" d="M59.5203 67.3173C59.2717 58.891 58.9909 50.4048 58.6779 41.8588C58.5305 37.9241 58.1208 34.2149 57.4441 30.7265C56.5004 25.83 54.5071 20.0958 50.8382 16.7594C45.0195 11.467 36.0336 11.3244 29.2206 15.1855C22.7574 18.8441 20.7825 26.8976 20.1841 33.6949C19.2772 44.0034 19.3002 53.4468 19.2588 67.0503" stroke="var(--stroke-0, #8E94A0)" stroke-miterlimit="10"/>
<path id="Vector_7" d="M59.5215 67.3173L59.8299 75.8034M53.7304 76.9677L53.2056 65.7664C53.201 65.6191 53.1366 65.4811 53.0261 65.3798C52.6256 65.0117 52.0916 64.8 51.4287 64.7401" stroke="var(--stroke-0, #7A3D40)" stroke-miterlimit="10"/>
<path id="Vector_8" d="M51.4283 64.7401C48.5696 64.013 46.9584 62.8394 46.742 59.6963C46.6177 57.8508 46.5671 56.2769 46.5993 54.9654" stroke="var(--stroke-0, #8B726C)" stroke-miterlimit="10"/>
<path id="Vector_9" d="M46.5995 54.9656C46.4384 53.875 46.6271 53.042 47.1749 52.4668" stroke="var(--stroke-0, #84635B)" stroke-miterlimit="10"/>
<path id="Vector_10" d="M47.1748 52.4663C49.1036 50.5748 50.4386 48.2876 51.1843 45.6046C51.2258 45.4665 51.3362 45.3561 51.479 45.3147C52.616 45.0064 53.4814 44.178 54.0845 42.825C54.9546 40.8783 56.0409 36.6813 54.3193 35.2317C54.0799 35.0292 53.7116 35.1212 53.5919 35.4111C53.2467 36.2717 52.86 37.4867 52.4365 39.0513C52.3858 39.24 52.1787 39.3367 52.0176 39.2493C51.9715 39.2262 51.9439 39.171 51.9393 39.0928C51.9071 38.766 51.9071 37.7766 51.9301 36.1245C51.9347 35.9588 51.8012 35.8207 51.6355 35.8161C50.2038 35.7747 48.9195 35.7747 47.787 35.8069C45.9871 35.8575 44.6981 35.8345 43.9294 35.7287C39.6574 35.1442 34.9343 31.9044 32.8996 28.1445C32.1032 26.6719 31.7027 25.931 31.6935 25.9264C31.6152 25.8573 31.4909 25.9218 31.5001 26.0276C31.7901 29.6126 34.4233 32.36 37.0564 34.2514C37.1577 34.3251 37.0841 34.4815 36.9644 34.4539C33.7604 33.7314 29.7877 31.3522 28.8486 28.0203C28.6138 27.1781 28.3514 26.2761 28.066 25.3189C28.0245 25.1854 27.8404 25.1854 27.799 25.3189C26.4133 29.7414 25.8747 34.2192 26.174 38.7476C26.1786 38.835 26.1187 38.9133 26.0313 38.9271C25.9484 38.9409 25.8655 38.8857 25.8425 38.8029C25.5985 37.8364 25.1336 35.6689 24.397 34.9877C24.1853 34.7899 23.8446 34.8221 23.6743 35.0568C21.8928 37.5005 23.3797 42.1071 24.9679 44.3483C25.3453 44.8867 25.8931 45.149 26.6067 45.1352C26.8277 45.1306 27.021 45.2779 27.0762 45.4896C27.891 48.6097 29.516 51.2835 31.9513 53.5109" stroke="var(--stroke-0, #8B726C)" stroke-miterlimit="10"/>
<path id="Vector_11" d="M31.9511 53.5113L31.8682 57.7267" stroke="var(--stroke-0, #84635B)" stroke-miterlimit="10"/>
<path id="Vector_12" d="M31.8688 57.7266C31.6938 59.167 31.5189 60.3175 31.3486 61.1827C30.9205 63.3456 29.2678 63.7322 27.5186 64.5284" stroke="var(--stroke-0, #8B726C)" stroke-miterlimit="10"/>
<path id="Vector_13" d="M27.518 64.5285C26.7953 64.5423 26.1047 64.8138 25.4419 65.3477C25.3268 65.4397 25.2623 65.5732 25.2623 65.7204L25.161 77.1289M19.126 75.9369L19.2595 67.0504" stroke="var(--stroke-0, #7A3D40)" stroke-miterlimit="10"/>
<path id="Vector_14" d="M51.4285 64.7402C51.5435 67.2943 51.364 69.1582 50.8806 70.3225C50.2592 71.8319 49.1268 72.8444 47.4787 73.3644C43.5934 74.5886 39.5839 74.9383 35.4454 74.4091C32.9504 74.0915 30.842 73.4196 29.1157 72.3887C28.149 71.8089 27.7393 71.114 27.5413 70.0464C27.1915 68.1779 27.1823 66.3371 27.5183 64.5285" stroke="var(--stroke-0, #E8856A)" stroke-miterlimit="10"/>
<path id="Vector_15" d="M46.5991 54.9656C46.3827 54.7677 46.1848 54.8092 46.0007 55.0945C45.6784 55.5869 45.4575 55.9091 45.3332 56.0517C44.4125 57.101 43.5609 57.8925 42.7783 58.431C40.5502 59.9634 38.8009 61.1186 36.2552 60.0969C35.063 59.6137 33.5991 58.8268 31.8682 57.7269M47.1745 52.4668C43.8233 54.9979 41.5722 56.7098 37.4981 56.0885C35.5463 55.7894 33.6957 54.9334 31.9511 53.5114" stroke="var(--stroke-0, #F3AB85)" stroke-miterlimit="10"/>
<path id="Vector_16" d="M59.521 67.3173L59.8294 75.8034L53.7299 76.9677L53.2051 65.7664C53.2005 65.6191 53.136 65.4811 53.0255 65.3798C52.625 65.0117 52.091 64.7999 51.4282 64.7401C48.5694 64.013 46.9582 62.8395 46.7419 59.6963C46.6176 57.8509 46.5669 56.277 46.5992 54.9654C46.4381 53.8747 46.6268 53.0418 47.1746 52.4665C49.1034 50.5751 50.4384 48.2879 51.1842 45.6049C51.2256 45.4668 51.3361 45.3564 51.4788 45.315C52.6159 45.0066 53.4813 44.1783 54.0843 42.8253C54.9544 40.8786 56.0408 36.6816 54.3191 35.2319C54.0797 35.0294 53.7114 35.1215 53.5918 35.4114C53.2465 36.272 52.8598 37.4869 52.4363 39.0516C52.3857 39.2403 52.1785 39.337 52.0174 39.2495C51.9714 39.2265 51.9437 39.1713 51.9392 39.093C51.9069 38.7663 51.9069 37.7769 51.9299 36.1247C51.9345 35.9591 51.801 35.821 51.6353 35.8164C50.2036 35.7749 48.9193 35.7749 47.7868 35.8072C45.9869 35.8578 44.698 35.8348 43.9292 35.7289C39.6572 35.1445 34.9341 31.9046 32.8994 28.1448C32.103 26.6721 31.7025 25.9312 31.6933 25.9266C31.615 25.8576 31.4908 25.922 31.5 26.0279C31.79 29.6129 34.4231 32.3603 37.0563 34.2517C37.1576 34.3253 37.0839 34.4818 36.9642 34.4542C33.7602 33.7317 29.7875 31.3524 28.8484 28.0206C28.6136 27.1784 28.3512 26.2764 28.0658 25.3191C28.0244 25.1857 27.8402 25.1857 27.7988 25.3191C26.4132 29.7417 25.8746 34.2195 26.1738 38.7479C26.1784 38.8353 26.1186 38.9135 26.0311 38.9274C25.9482 38.9411 25.8654 38.8859 25.8423 38.8031C25.5984 37.8367 25.1334 35.6691 24.3969 34.988C24.1851 34.7901 23.8445 34.8223 23.6741 35.057C21.8926 37.5007 23.3795 42.1073 24.9677 44.3485C25.3452 44.887 25.893 45.1493 26.6065 45.1355C26.8275 45.1309 27.0208 45.2782 27.0761 45.4898C27.8909 48.61 29.5159 51.2838 31.9511 53.5112L31.8682 57.7266C31.6933 59.1671 31.5184 60.3176 31.348 61.1828C30.9199 63.3457 29.2673 63.7323 27.518 64.5284C26.7953 64.5422 26.1047 64.8138 25.4419 65.3476C25.3268 65.4396 25.2623 65.5731 25.2623 65.7204L25.161 77.1288L19.126 75.9369L19.2595 67.0503C19.3009 53.4468 19.2779 44.0034 20.1848 33.6949C20.7832 26.8976 22.7581 18.8441 29.2213 15.1855C36.0343 11.3244 45.0202 11.467 50.8389 16.7594C54.5078 20.0958 56.5011 25.83 57.4448 30.7265C58.1215 34.2149 58.5312 37.9241 58.6785 41.8588C58.9916 50.4048 59.2724 58.891 59.521 67.3173Z" fill="var(--fill-0, #1C2941)"/>
<path id="Vector_17" d="M47.1748 52.4663C43.8235 54.9974 41.5724 56.7093 37.4984 56.088C35.5465 55.7889 33.696 54.933 31.9513 53.5109C29.516 51.2835 27.891 48.6097 27.0762 45.4896C27.021 45.2779 26.8277 45.1306 26.6067 45.1352C25.8931 45.149 25.3453 44.8867 24.9679 44.3483C23.3797 42.1071 21.8928 37.5005 23.6743 35.0568C23.8446 34.8221 24.1853 34.7899 24.397 34.9877C25.1336 35.6689 25.5985 37.8364 25.8425 38.8029C25.8655 38.8857 25.9484 38.9409 26.0313 38.9271C26.1187 38.9133 26.1786 38.8351 26.174 38.7476C25.8747 34.2192 26.4133 29.7414 27.799 25.3189C27.8404 25.1854 28.0245 25.1854 28.066 25.3189C28.3514 26.2761 28.6138 27.1781 28.8486 28.0203C29.7877 31.3522 33.7604 33.7314 36.9644 34.4539C37.0841 34.4815 37.1577 34.3251 37.0564 34.2514C34.4233 32.36 31.7901 29.6126 31.5001 26.0276C31.4909 25.9218 31.6152 25.8573 31.6935 25.9264C31.7027 25.931 32.1032 26.6719 32.8996 28.1445C34.9343 31.9044 39.6574 35.1442 43.9294 35.7287C44.6981 35.8345 45.9871 35.8575 47.787 35.8069C48.9195 35.7747 50.2038 35.7747 51.6355 35.8161C51.8012 35.8207 51.9347 35.9588 51.9301 36.1245C51.9071 37.7766 51.9071 38.766 51.9393 39.0928C51.9439 39.171 51.9715 39.2262 52.0176 39.2493C52.1787 39.3367 52.3858 39.24 52.4365 39.0513C52.86 37.4867 53.2467 36.2717 53.5919 35.4111C53.7116 35.1212 54.0799 35.0292 54.3193 35.2317C56.0409 36.6813 54.9546 40.8783 54.0845 42.825C53.4814 44.178 52.616 45.0064 51.479 45.3147C51.3362 45.3561 51.2258 45.4666 51.1843 45.6046C50.4386 48.2876 49.1036 50.5748 47.1748 52.4663Z" fill="var(--fill-0, #F9BA96)"/>
<path id="Vector_18" d="M47.1745 52.4668C46.6267 53.042 46.438 53.875 46.5991 54.9656C46.3827 54.7677 46.1848 54.8092 46.0007 55.0945C45.6784 55.5869 45.4575 55.9091 45.3332 56.0517C44.4125 57.101 43.5609 57.8925 42.7783 58.431C40.5502 59.9634 38.8009 61.1186 36.2552 60.0969C35.063 59.6137 33.5991 58.8268 31.8682 57.7269L31.9511 53.5114C33.6957 54.9334 35.5463 55.7894 37.4981 56.0885C41.5722 56.7098 43.8233 54.9979 47.1745 52.4668Z" fill="var(--fill-0, #EC9C74)"/>
<path id="Vector_19" d="M46.5995 54.9656C46.5673 56.2772 46.6179 57.8511 46.7422 59.6965C46.9586 62.8397 48.5697 64.0132 51.4285 64.7403C51.5435 67.2944 51.364 69.1583 50.8806 70.3226C50.2592 71.832 49.1268 72.8445 47.4787 73.3645C43.5934 74.5887 39.5839 74.9384 35.4454 74.4092C32.9504 74.0916 30.842 73.4197 29.1157 72.3889C28.149 71.809 27.7393 71.1141 27.5413 70.0465C27.1915 68.178 27.1823 66.3372 27.5183 64.5286C29.2676 63.7325 30.9202 63.3459 31.3484 61.1829C31.5187 60.3177 31.6936 59.1672 31.8685 57.7268C33.5994 58.8267 35.0633 59.6137 36.2556 60.0969C38.8013 61.1185 40.5506 59.9634 42.7786 58.4309C43.5612 57.8925 44.4128 57.1009 45.3335 56.0517C45.4578 55.909 45.6788 55.5869 46.001 55.0945C46.1852 54.8091 46.3831 54.7677 46.5995 54.9656Z" fill="var(--fill-0, #F9BA96)"/>
<path id="Vector_20" d="M27.5171 64.5285C27.1811 66.3371 27.1903 68.1779 27.5401 70.0464C27.7381 71.114 28.1478 71.8089 29.1145 72.3887C30.8408 73.4196 32.9492 74.0915 35.4442 74.4091C39.5827 74.9383 43.5922 74.5886 47.4775 73.3644C49.1256 72.8444 50.258 71.8319 50.8794 70.3225C51.3628 69.1582 51.5423 67.2943 51.4273 64.7402C52.0902 64.8 52.6242 65.0117 53.0247 65.3799C53.1351 65.4812 53.1996 65.6192 53.2042 65.7665L53.729 76.9678C52.5459 77.1841 51.303 77.3544 50.0002 77.4786C41.6128 78.2609 33.3312 78.1459 25.1602 77.1289L25.2614 65.7204C25.2614 65.5732 25.3259 65.4397 25.441 65.3477C26.1038 64.8138 26.7944 64.5423 27.5171 64.5285Z" fill="var(--fill-0, #4B206D)"/>
<path id="Vector_21" d="M19.2592 67.0501L19.1257 75.9366L13.3852 73.9485C13.2931 73.9209 13.2333 73.8243 13.2471 73.7276C13.7074 70.0598 15.7099 67.8371 19.2592 67.0501Z" fill="var(--fill-0, #4B206D)"/>
<path id="Vector_22" d="M59.8299 75.8032L59.5215 67.317C62.5643 68.0074 64.4425 70.0276 65.1653 73.3825C65.2435 73.7369 65.0363 74.0912 64.6911 74.2063L59.8299 75.8032Z" fill="var(--fill-0, #4B206D)"/>
</g>
</g>
</g>
</svg>
