<svg preserveAspectRatio="none" width="100%" height="100%" overflow="visible" style="display: block;" viewBox="0 0 78 78" fill="none" xmlns="http://www.w3.org/2000/svg">
<g id="Mask group">
<mask id="mask0_0_48" style="mask-type:alpha" maskUnits="userSpaceOnUse" x="0" y="0" width="78" height="78">
<circle id="Ellipse 37" cx="39" cy="39" r="39" fill="var(--fill-0, #D9D9D9)"/>
</mask>
<g mask="url(#mask0_0_48)">
<circle id="Ellipse 43" cx="39" cy="39.0006" r="40.4717" fill="var(--fill-0, white)"/>
<g id="Group 1000005961">
<path id="Vector" d="M23.8956 34.3829C22.779 35.2046 22.2742 36.37 22.3814 37.8748C22.5378 40.0048 23.6187 44.6755 25.6153 45.1577C25.9324 45.2336 26.1558 45.3319 26.2853 45.4524C26.4059 45.5641 26.4818 45.707 26.5042 45.8677C26.8883 48.346 27.7459 50.4848 29.0769 52.2888C29.2467 52.5165 29.336 52.7889 29.336 53.0747V58.3036C29.336 58.701 29.5281 59.0761 29.8541 59.3038C31.0512 60.1522 32.4269 61.0006 33.9813 61.8535C34.5129 62.1437 34.8791 62.3759 35.0712 62.5456C35.2141 62.6706 35.357 62.7689 35.4911 62.8359C36.2191 63.2065 36.974 63.5503 37.7556 63.8718C38.0683 64.0013 38.2068 64.2737 38.1666 64.6889" stroke="var(--stroke-0, #FCDDCB)" stroke-miterlimit="10"/>
<path id="Vector_2" d="M38.1666 64.6888L35.3482 67.7297C35.0623 68.0378 35.031 68.5022 35.2678 68.8505L36.782 71.0519C37.0232 71.4002 37.108 71.8288 37.0231 72.2441L35.8663 77.7722C35.8439 77.8883 35.9333 77.9999 36.0494 77.9999H41.3558C41.5255 77.9999 41.6506 77.8391 41.6059 77.6784L40.2793 72.5299C40.1632 72.0789 40.2302 71.5967 40.4625 71.1948L41.9454 68.6228C42.1285 68.3057 42.0794 67.9038 41.8248 67.6404L38.7964 64.5147" stroke="var(--stroke-0, #8CD5D1)" stroke-miterlimit="10"/>
<path id="Vector_3" d="M38.7965 64.5146L38.9618 64.2065C39.0244 64.077 39.1271 63.9743 39.2522 63.9118C42.2582 62.3356 45.1704 60.9335 47.4439 58.7455C47.6539 58.5401 47.7789 58.2588 47.7879 57.9641C47.7923 57.6604 47.7879 56.419 47.7745 54.2355C47.77 53.463 48.0514 52.5923 48.6187 51.6278C49.7979 49.6318 50.3517 47.9975 50.6242 45.93C50.6555 45.6979 50.8118 45.4969 51.0262 45.4076C52.3081 44.8718 53.2015 43.9028 53.7062 42.5007C54.2467 40.9959 54.5906 39.6027 54.7335 38.3256C54.9211 36.6422 54.4253 35.316 53.2417 34.3381" stroke="var(--stroke-0, #FCDDCB)" stroke-miterlimit="10"/>
<path id="Vector_4" d="M53.2416 34.3383C54.4789 30.4401 54.4342 26.5597 53.0987 22.7062C53.0808 22.6525 53.0585 22.6034 53.0317 22.5543L52.2366 21.2281C52.1205 21.0406 52.0803 20.8128 52.1294 20.594C52.92 16.9638 51.6962 13.9899 48.4579 11.6724C48.3238 11.5786 48.1407 11.659 48.1229 11.8197C47.9442 13.3067 47.3948 14.5972 46.4791 15.6956C46.3585 15.8385 46.1262 15.7715 46.0994 15.584C45.7957 13.2665 44.6121 11.4179 42.544 10.0381C42.41 9.94879 42.2268 10.0247 42.1956 10.181C41.5792 13.204 39.0421 13.8827 36.5766 14.74C36.3175 14.8338 36.0495 14.8963 35.777 14.9276C33.1506 15.2491 30.6359 15.9948 28.2328 17.1603C27.0715 17.7273 26.2675 18.3033 25.8253 18.8928C22.453 23.3581 22.2297 29.1496 23.8957 34.3829" stroke="var(--stroke-0, #AA9996)" stroke-miterlimit="10"/>
<path id="Vector_5" d="M53.2414 34.3383L51.4592 38.1829C51.4234 38.2588 51.3787 38.3213 51.3207 38.3794L51.142 38.5625C51.0259 38.6741 50.8338 38.5848 50.8472 38.4241C51.1643 34.7982 50.8249 31.2349 49.8333 27.7297C49.4224 26.2695 48.462 25.631 46.9478 25.8141C44.1115 26.1534 40.8866 27.1715 39.3367 27.1402C36.277 27.0777 33.6015 26.0194 30.8411 25.6756C26.8033 25.1755 26.6648 27.9351 26.3477 31.284C26.1154 33.7176 26.0573 36.0262 26.1735 38.2142C26.1824 38.3749 26.0707 38.5178 25.9144 38.5536C25.7581 38.5893 25.5973 38.5089 25.5347 38.3571L23.8955 34.3829" stroke="var(--stroke-0, #A77661)" stroke-miterlimit="10"/>
<path id="Vector_6" d="M38.7963 64.5146C38.4479 64.4253 38.2379 64.4834 38.1665 64.6887" stroke="var(--stroke-0, #89B39D)" stroke-miterlimit="10"/>
<path id="Vector_7" d="M47.3991 77.732C53.0405 77.2587 58.2084 76.3745 62.9073 75.084C64.0374 74.7715 65.0245 74.4008 65.8642 73.9677C65.9893 73.9052 66.0563 73.7713 66.0384 73.6328C65.757 71.6011 64.8413 66.6804 62.952 65.8051C58.9856 63.9699 54.8361 62.224 50.5079 60.5584C50.3426 60.4959 50.1639 60.5986 50.1327 60.7728L47.2249 77.5444C47.207 77.6471 47.2919 77.7409 47.3991 77.732ZM26.7944 60.7549C22.9442 62.1704 19.3441 63.6663 15.9985 65.2425C15.0248 65.7025 13.9751 66.149 13.5419 67.0554C12.5816 69.0648 12.0054 71.2796 11.8133 73.7043C11.7999 73.865 11.8937 74.0124 12.0411 74.0704C17.736 76.187 23.574 76.9595 29.7781 77.6739C29.863 77.6829 29.93 77.6069 29.9166 77.5266L27.0714 60.9157C27.049 60.7861 26.9195 60.7102 26.7944 60.7549Z" stroke="var(--stroke-0, #8E94A0)" stroke-miterlimit="10"/>
<path id="Vector_8" d="M47.0819 53.6909C41.9944 58.0759 34.7228 58.2321 29.9702 53.1372C29.8853 53.0479 29.7335 53.106 29.7335 53.231V57.8838C29.7335 58.0892 29.8407 58.2768 30.0193 58.3795C32.0963 59.5583 34.1822 60.5318 36.6434 60.5719C41.5612 60.6434 45.1524 58.433 47.4125 53.9455C47.5152 53.7356 47.2561 53.5391 47.0819 53.6909Z" stroke="var(--stroke-0, #F3AB85)" stroke-miterlimit="10"/>
<path id="Vector_9" d="M53.2416 34.3383L51.4594 38.1829C51.4237 38.2588 51.379 38.3213 51.321 38.3794L51.1423 38.5624C51.0262 38.674 50.8341 38.5848 50.8475 38.424C51.1646 34.7982 50.8251 31.2349 49.8336 27.7296C49.4226 26.2695 48.4623 25.6309 46.9481 25.814C44.1118 26.1534 40.8869 27.1714 39.3369 27.1402C36.2773 27.0777 33.6018 26.0194 30.8414 25.6756C26.8035 25.1754 26.665 27.935 26.3479 31.284C26.1157 33.7176 26.0576 36.0262 26.1737 38.2141C26.1826 38.3749 26.071 38.5178 25.9147 38.5535C25.7583 38.5892 25.5975 38.5088 25.535 38.357L23.8957 34.3829C22.2297 29.1496 22.453 23.3581 25.8253 18.8928C26.2675 18.3033 27.0715 17.7273 28.2328 17.1603C30.6359 15.9948 33.1506 15.2491 35.777 14.9276C36.0495 14.8963 36.3175 14.8338 36.5766 14.74C39.0421 13.8827 41.5792 13.204 42.1956 10.181C42.2268 10.0247 42.41 9.94879 42.544 10.0381C44.6121 11.4179 45.7957 13.2665 46.0994 15.584C46.1262 15.7715 46.3585 15.8385 46.4791 15.6956C47.3948 14.5972 47.9442 13.3067 48.1229 11.8197C48.1407 11.659 48.3238 11.5786 48.4579 11.6724C51.6962 13.9899 52.92 16.9638 52.1294 20.594C52.0803 20.8128 52.1205 21.0406 52.2366 21.2281L53.0317 22.5543C53.0585 22.6034 53.0808 22.6525 53.0987 22.7062C54.4342 26.5597 54.4789 30.4401 53.2416 34.3383Z" fill="var(--fill-0, #F9A33B)"/>
<path id="Vector_10" d="M53.2415 34.3383C54.4252 35.3162 54.921 36.6424 54.7334 38.3258C54.5905 39.6029 54.2465 40.996 53.706 42.5009C53.2013 43.903 52.308 44.8719 51.0261 45.4078C50.8117 45.4971 50.6553 45.698 50.6241 45.9302C50.3516 47.9976 49.7977 49.632 48.6185 51.6279C48.0513 52.5925 47.7699 53.4632 47.7743 54.2357C47.7878 56.4192 47.7922 57.6606 47.7877 57.9642C47.7788 58.2589 47.6537 58.5402 47.4438 58.7456C45.1703 60.9336 42.258 62.3357 39.252 63.912C39.1269 63.9745 39.0242 64.0772 38.9616 64.2067L38.7964 64.5148C38.448 64.4255 38.238 64.4835 38.1666 64.6889C38.2068 64.2737 38.0683 64.0013 37.7556 63.8718C36.974 63.5503 36.2191 63.2065 35.4911 62.8358C35.357 62.7689 35.2141 62.6706 35.0712 62.5456C34.8791 62.3759 34.5129 62.1437 33.9813 61.8535C32.4269 61.0006 31.0512 60.1522 29.8541 59.3038C29.5281 59.0761 29.336 58.701 29.336 58.3036V53.0747C29.336 52.7889 29.2467 52.5165 29.0769 52.2888C27.7459 50.4848 26.8883 48.3459 26.5042 45.8677C26.4818 45.707 26.4059 45.5641 26.2853 45.4524C26.1558 45.3319 25.9324 45.2336 25.6153 45.1577C23.6187 44.6755 22.5378 40.0048 22.3814 37.8748C22.2742 36.37 22.779 35.2046 23.8956 34.3829L25.5349 38.3571C25.5974 38.5089 25.7582 38.5893 25.9146 38.5535C26.0709 38.5178 26.1825 38.3749 26.1736 38.2142C26.0575 36.0262 26.1156 33.7176 26.3478 31.284C26.665 27.9351 26.8034 25.1755 30.8413 25.6756C33.6017 26.0194 36.2772 27.0777 39.3368 27.1402C40.8868 27.1715 44.1117 26.1534 46.948 25.8141C48.4622 25.631 49.4225 26.2695 49.8335 27.7297C50.8251 31.2349 51.1645 34.7982 50.8474 38.4241C50.834 38.5848 51.0261 38.6741 51.1422 38.5625L51.3209 38.3794C51.3789 38.3213 51.4236 38.2588 51.4593 38.1829L53.2415 34.3383ZM47.082 53.6909C41.9945 58.0758 34.7228 58.2321 29.9703 53.1372C29.8854 53.0479 29.7335 53.106 29.7335 53.231V57.8838C29.7335 58.0892 29.8407 58.2768 30.0194 58.3795C32.0964 59.5583 34.1823 60.5318 36.6434 60.5719C41.5612 60.6434 45.1524 58.433 47.4125 53.9454C47.5153 53.7356 47.2562 53.5391 47.082 53.6909Z" fill="var(--fill-0, #F9BA96)"/>
<path id="Vector_11" d="M47.0819 53.6909C47.2561 53.5391 47.5152 53.7356 47.4125 53.9455C45.1524 58.433 41.5612 60.6434 36.6434 60.5719C34.1822 60.5318 32.0963 59.5583 30.0193 58.3795C29.8407 58.2768 29.7335 58.0892 29.7335 57.8838V53.231C29.7335 53.106 29.8853 53.0479 29.9702 53.1372C34.7228 58.2321 41.9944 58.0759 47.0819 53.6909Z" fill="var(--fill-0, #EC9C74)"/>
<path id="Vector_12" d="M47.3995 77.732C47.2923 77.7409 47.2075 77.6471 47.2253 77.5444L50.1331 60.7728C50.1644 60.5986 50.3431 60.4959 50.5083 60.5584C54.8365 62.224 58.986 63.9699 62.9524 65.8051C64.8418 66.6804 65.7574 71.6011 66.0388 73.6328C66.0568 73.7713 65.9897 73.9052 65.8647 73.9677C65.025 74.4008 64.0378 74.7715 62.9077 75.084C58.2088 76.3745 53.0409 77.2587 47.3995 77.732Z" fill="var(--fill-0, #1C2941)"/>
<path id="Vector_13" d="M26.7944 60.7551C26.9195 60.7104 27.049 60.7863 27.0714 60.9158L29.9166 77.5267C29.93 77.6071 29.863 77.683 29.7781 77.6741C23.574 76.9597 17.736 76.1871 12.0411 74.0706C11.8937 74.0125 11.7999 73.8652 11.8133 73.7045C12.0054 71.2798 12.5816 69.065 13.5419 67.0556C13.9751 66.1491 15.0248 65.7026 15.9985 65.2427C19.3441 63.6664 22.9442 62.1706 26.7944 60.7551Z" fill="var(--fill-0, #1C2941)"/>
<path id="Vector_14" d="M38.7964 64.5146L41.8248 67.6403C42.0794 67.9038 42.1285 68.3057 41.9454 68.6227L40.4625 71.1947C40.2302 71.5966 40.1632 72.0789 40.2793 72.5298L41.6059 77.6783C41.6506 77.8391 41.5255 77.9998 41.3558 77.9998H36.0494C35.9333 77.9998 35.8439 77.8882 35.8663 77.7721L37.0231 72.2441C37.108 71.8288 37.0232 71.4001 36.782 71.0518L35.2678 68.8504C35.031 68.5021 35.0623 68.0377 35.3482 67.7297L38.1666 64.6887C38.2381 64.4834 38.448 64.4253 38.7964 64.5146Z" fill="var(--fill-0, #19ABA3)"/>
</g>
</g>
</g>
</svg>
