<svg preserveAspectRatio="none" width="100%" height="100%" overflow="visible" style="display: block;" viewBox="0 0 78 78" fill="none" xmlns="http://www.w3.org/2000/svg">
<g id="Mask group">
<mask id="mask0_0_110" style="mask-type:alpha" maskUnits="userSpaceOnUse" x="0" y="0" width="78" height="78">
<circle id="Ellipse 37" cx="39" cy="39" r="39" fill="var(--fill-0, #D9D9D9)"/>
</mask>
<g mask="url(#mask0_0_110)">
<circle id="Ellipse 43" cx="39" cy="39" r="40.4717" fill="var(--fill-0, white)"/>
<g id="Group 1000005942">
<path id="Vector" d="M23.6765 37.4871C23.2153 37.9076 22.5054 38.2511 22.2703 38.7709C21.3524 40.8186 22.5235 44.3671 23.4866 46.2746C24.088 47.4725 24.9833 48.2319 26.1634 48.5529C26.3352 48.5981 26.4664 48.7427 26.4935 48.9145C26.9276 51.586 27.9404 53.8326 29.5366 55.6497" stroke="var(--stroke-0, #FCDDCB)" stroke-miterlimit="10"/>
<path id="Vector_2" d="M29.5371 55.6495L29.6004 63.6323" stroke="var(--stroke-0, #F6CEBA)" stroke-miterlimit="10"/>
<path id="Vector_3" d="M29.5996 63.6323C29.4775 65.2551 28.6048 66.4123 26.9815 67.0948C24.1012 68.3153 21.0672 69.5855 17.8703 70.9009C17.2644 71.1495 16.7399 71.4524 16.3013 71.8005C16.125 71.9406 16.1611 72.2163 16.3691 72.3022C20.303 73.9612 24.4403 75.3127 28.7811 76.3479C39.7869 78.9787 50.0104 77.0169 60.4238 72.7271C60.7855 72.578 61.0885 72.4062 61.3326 72.2118C61.4909 72.0898 61.4909 71.8547 61.3326 71.7281C60.4419 71.0139 59.4199 70.4444 58.2669 70.024C55.2872 68.9346 52.3571 67.7186 49.4678 66.3761C48.4097 65.8834 47.849 65.0471 47.7902 63.8764C47.65 61.1054 47.5822 59.1662 47.5867 58.0633" stroke="var(--stroke-0, #FCDDCB)" stroke-miterlimit="10"/>
<path id="Vector_4" d="M47.5869 58.0633L47.6276 56.8474" stroke="var(--stroke-0, #F6CEBA)" stroke-miterlimit="10"/>
<path id="Vector_5" d="M47.6279 56.8476C47.759 56.1921 48.1841 55.3061 48.8985 54.1806C49.4818 53.263 50.0832 51.5995 50.7027 49.1902C50.7479 49.0184 50.8474 48.8647 50.9921 48.7562C51.0373 48.7246 51.3719 48.5167 51.9959 48.1415C54.1934 46.808 55.0887 42.7035 55.1113 40.4524C55.1249 39.0557 54.4014 38.0748 53.2574 37.3786" stroke="var(--stroke-0, #FCDDCB)" stroke-miterlimit="10"/>
<path id="Vector_6" d="M53.2574 37.3783C54.2024 34.3723 54.4512 31.2714 53.999 28.071C53.0901 21.6612 48.5503 16.7115 42.6134 14.4559C38.8423 13.023 33.8278 13.1043 29.5232 13.4795C29.3242 13.4976 29.2835 13.7733 29.4689 13.8457L32.1412 14.8718C32.4939 15.0073 32.4306 15.5227 32.0553 15.5679C29.6995 15.8526 25.63 15.6221 23.8304 13.6965C23.7128 13.5699 23.5093 13.597 23.428 13.7507C22.3066 15.9159 21.8047 18.1716 21.9223 20.5176C21.9403 20.8069 21.5876 20.9651 21.3796 20.7572L20.5522 19.93C20.3984 19.7763 20.1362 19.9254 20.195 20.1379C20.7556 22.2082 21.773 24.0299 23.2516 25.603C23.3873 25.7431 23.437 25.9465 23.3828 26.1318C22.2749 29.9967 22.3744 33.7802 23.6766 37.4868" stroke="var(--stroke-0, #FCD19D)" stroke-miterlimit="10"/>
<path id="Vector_7" d="M53.2575 37.3787L51.1323 44.0868C51.1143 44.1411 51.06 44.1727 51.0012 44.1636L50.8655 44.1411C50.7525 44.123 50.6756 44.0145 50.6892 43.9015C51.1097 40.6875 51.2951 38.12 51.2363 36.1898C51.1685 33.9432 50.6756 28.1663 47.1714 28.8986C45.7923 29.1879 44.386 29.5631 42.9526 30.0196C38.7249 31.3667 35.3472 30.4129 30.3507 29.0342C29.6725 28.8488 28.9807 28.7856 28.2753 28.8534C28.1125 28.8715 27.9633 28.9393 27.8412 29.0523C27.068 29.7619 26.6068 30.6751 26.4576 31.7825C26.2134 33.55 26.0733 35.0959 26.0325 36.4113C25.9376 39.5348 25.7568 41.4921 26.331 44.0235C26.3491 44.1049 26.2631 44.1682 26.1908 44.1275C26.0325 44.0371 25.9105 43.8788 25.8246 43.6528C25.0378 41.6277 24.3234 39.571 23.6768 37.4871" stroke="var(--stroke-0, #F9AF69)" stroke-miterlimit="10"/>
<path id="Vector_8" d="M47.6283 56.8474C47.6554 56.7027 47.6238 56.5671 47.5333 56.445C47.461 56.3456 47.3253 56.3275 47.2304 56.3998C46.2763 57.1457 45.5348 57.7333 45.0012 58.1673C42.5369 60.1788 39.9415 60.6218 36.6588 59.9709C33.7965 59.4013 31.4226 57.9593 29.5371 55.6495M47.5876 58.0633C45.7201 59.9483 43.803 61.4716 41.8406 62.6424C38.9241 64.3827 35.7182 64.6946 32.2275 63.5871C31.2463 63.2707 30.4188 62.4977 29.6004 63.6323" stroke="var(--stroke-0, #F3AB85)" stroke-miterlimit="10"/>
<path id="Vector_9" d="M53.2574 37.3783L51.1322 44.0865C51.1142 44.1407 51.0599 44.1724 51.0011 44.1633L50.8654 44.1407C50.7524 44.1226 50.6755 44.0141 50.6891 43.9012C51.1096 40.6872 51.295 38.1197 51.2362 36.1895C51.1684 33.9429 50.6755 28.1659 47.1713 28.8983C45.7922 29.1875 44.3859 29.5627 42.9525 30.0193C38.7248 31.3664 35.3471 30.4126 30.3506 29.0339C29.6724 28.8485 28.9806 28.7853 28.2752 28.853C28.1124 28.8711 27.9632 28.939 27.8411 29.0519C27.0679 29.7616 26.6067 30.6747 26.4575 31.7822C26.2133 33.5496 26.0731 35.0956 26.0324 36.411C25.9375 39.5345 25.7566 41.4918 26.3309 44.0232C26.3489 44.1045 26.263 44.1678 26.1907 44.1272C26.0324 44.0367 25.9104 43.8785 25.8245 43.6525C25.0377 41.6274 24.3233 39.5707 23.6766 37.4868C22.3744 33.7802 22.2749 29.9967 23.3828 26.1318C23.437 25.9465 23.3873 25.7431 23.2516 25.603C21.773 24.0299 20.7556 22.2082 20.195 20.1379C20.1362 19.9254 20.3984 19.7763 20.5522 19.93L21.3796 20.7572C21.5876 20.9651 21.9403 20.8069 21.9223 20.5176C21.8047 18.1716 22.3066 15.9159 23.428 13.7507C23.5093 13.597 23.7128 13.5699 23.8304 13.6965C25.63 15.6221 29.6995 15.8526 32.0553 15.5679C32.4306 15.5227 32.4939 15.0073 32.1412 14.8718L29.4689 13.8457C29.2835 13.7733 29.3242 13.4976 29.5232 13.4795C33.8278 13.1043 38.8423 13.023 42.6134 14.4559C48.5503 16.7115 53.0901 21.6612 53.999 28.071C54.4512 31.2714 54.2024 34.3723 53.2574 37.3783Z" fill="var(--fill-0, #69400F)"/>
<path id="Vector_10" d="M53.2573 37.3787C54.4012 38.0748 55.1247 39.0557 55.1112 40.4525C55.0886 42.7036 54.1933 46.808 51.9957 48.1415C51.3718 48.5167 51.0371 48.7246 50.9919 48.7563C50.8472 48.8647 50.7478 49.0185 50.7025 49.1902C50.0831 51.5995 49.4817 53.263 48.8984 54.1806C48.184 55.3062 47.7589 56.1922 47.6278 56.8476C47.6549 56.703 47.6233 56.5674 47.5328 56.4453C47.4605 56.3458 47.3248 56.3278 47.2299 56.4001C46.2758 57.1459 45.5343 57.7336 45.0007 58.1675C42.5364 60.1791 39.941 60.6221 36.6583 59.9711C33.796 59.4016 31.4221 57.9596 29.5366 55.6497C27.9404 53.8326 26.9276 51.586 26.4935 48.9145C26.4664 48.7427 26.3352 48.5981 26.1634 48.5528C24.9833 48.2319 24.088 47.4725 23.4866 46.2746C22.5235 44.3671 21.3524 40.8186 22.2703 38.7709C22.5054 38.2511 23.2153 37.9075 23.6765 37.4871C24.3231 39.571 25.0375 41.6277 25.8243 43.6528C25.9102 43.8788 26.0323 44.0371 26.1906 44.1275C26.2629 44.1682 26.3488 44.1049 26.3308 44.0235C25.7565 41.4921 25.9374 39.5348 26.0323 36.4113C26.073 35.0959 26.2132 33.55 26.4573 31.7825C26.6066 30.6751 27.0678 29.7619 27.841 29.0523C27.9631 28.9393 28.1123 28.8715 28.2751 28.8534C28.9804 28.7856 29.6722 28.8488 30.3505 29.0342C35.347 30.4129 38.7246 31.3667 42.9524 30.0196C44.3858 29.5631 45.792 29.1879 47.1711 28.8986C50.6754 28.1663 51.1682 33.9432 51.2361 36.1898C51.2949 38.12 51.1095 40.6875 50.689 43.9015C50.6754 44.0145 50.7522 44.123 50.8653 44.1411L51.001 44.1636C51.0598 44.1727 51.114 44.1411 51.1321 44.0868L53.2573 37.3787Z" fill="var(--fill-0, #F9BA96)"/>
<path id="Vector_11" d="M47.6283 56.8474L47.5876 58.0633C45.7201 59.9483 43.803 61.4716 41.8406 62.6424C38.9241 64.3827 35.7182 64.6946 32.2275 63.5871C31.2463 63.2707 30.4188 62.4977 29.6004 63.6323L29.5371 55.6495C31.4226 57.9593 33.7965 59.4013 36.6588 59.9709C39.9415 60.6218 42.5369 60.1788 45.0012 58.1673C45.5348 57.7333 46.2763 57.1457 47.2304 56.3998C47.3253 56.3275 47.461 56.3456 47.5333 56.445C47.6238 56.5671 47.6554 56.7027 47.6283 56.8474Z" fill="var(--fill-0, #EC9C74)"/>
<path id="Vector_12" d="M47.5867 58.0633C47.5822 59.1662 47.65 61.1054 47.7902 63.8764C47.849 65.0471 48.4097 65.8834 49.4678 66.3761C52.3571 67.7186 55.2872 68.9346 58.2669 70.024C59.4199 70.4444 60.4419 71.0139 61.3326 71.7281C61.4909 71.8547 61.4909 72.0898 61.3326 72.2118C61.0885 72.4062 60.7855 72.578 60.4238 72.7271C50.0104 77.0169 39.7869 78.9787 28.7811 76.3479C24.4403 75.3127 20.303 73.9612 16.3691 72.3022C16.1611 72.2163 16.125 71.9406 16.3013 71.8005C16.7399 71.4524 17.2644 71.1495 17.8703 70.9009C21.0672 69.5855 24.1012 68.3153 26.9815 67.0948C28.6048 66.4123 29.4775 65.2551 29.5996 63.6323C30.418 62.4977 31.2454 63.2707 32.2267 63.5871C35.7173 64.6945 38.9232 64.3826 41.8397 62.6423C43.8021 61.4716 45.7193 59.9482 47.5867 58.0633Z" fill="var(--fill-0, #F9BA96)"/>
</g>
</g>
</g>
</svg>
