<svg preserveAspectRatio="none" width="100%" height="100%" overflow="visible" style="display: block;" viewBox="0 0 78 78" fill="none" xmlns="http://www.w3.org/2000/svg">
<g id="Mask group">
<mask id="mask0_0_126" style="mask-type:alpha" maskUnits="userSpaceOnUse" x="0" y="0" width="78" height="78">
<circle id="Ellipse 37" cx="39" cy="39" r="39" fill="var(--fill-0, #D9D9D9)"/>
</mask>
<g mask="url(#mask0_0_126)">
<circle id="Ellipse 43" cx="39" cy="39.0006" r="40.4717" fill="var(--fill-0, white)"/>
<g id="Group 1000005943">
<path id="Vector" d="M24.1687 35.5297C22.8781 35.9298 22.2755 36.8603 22.3699 38.3303C22.5363 40.9691 23.2378 43.2168 24.4789 45.0735C24.8162 45.5724 25.3873 45.9546 26.2012 46.2198C26.3361 46.2648 26.4395 46.3726 26.4755 46.512C26.8982 48.1528 27.15 49.0879 27.231 49.3171C27.8335 51.0479 28.679 52.5763 29.7672 53.9025" stroke="var(--stroke-0, #C0A69D)" stroke-miterlimit="10"/>
<path id="Vector_2" d="M29.7665 53.9014L29.6855 60.7165" stroke="var(--stroke-0, #AA9996)" stroke-miterlimit="10"/>
<path id="Vector_3" d="M29.6849 60.7188C29.6624 61.8606 29.4061 62.7012 28.9249 63.2362C28.4528 63.7622 27.5219 64.2881 26.1279 64.8141" stroke="var(--stroke-0, #C0A69D)" stroke-miterlimit="10"/>
<path id="Vector_4" d="M26.1288 64.8116C22.8641 65.949 19.6354 67.0683 16.4472 68.1697C14.1493 68.9654 12.8363 70.6062 12.5125 73.0967C12.4945 73.2361 12.5664 73.3709 12.6969 73.4294C14.2033 74.1262 15.7412 74.6701 17.3106 75.0702C31.5069 78.671 46.5307 78.5542 60.7855 75.1871C61.7209 74.9668 64.1401 74.1756 65.1519 73.6137C65.3003 73.5328 65.3722 73.3619 65.3318 73.2001C65.0485 72.0852 64.5943 71.0603 63.9647 70.1207C63.3487 69.2036 62.3999 68.5248 61.1093 68.0798C57.7592 66.9335 54.4361 65.7826 51.1309 64.6273" stroke="var(--stroke-0, #8E94A0)" stroke-miterlimit="10"/>
<path id="Vector_5" d="M51.1306 64.6304C49.5163 63.6594 48.6394 63.1964 48.4056 61.2633C48.1672 59.2898 48.0863 56.9342 48.1538 54.2055C48.1627 53.8818 48.2706 53.5716 48.4595 53.3154C49.858 51.4408 50.7439 49.1706 51.1126 46.4959C51.1306 46.343 51.225 46.2081 51.36 46.1362C51.4229 46.1002 51.5308 46.0598 51.6837 46.0148C54.4987 45.1921 55.5105 40.0494 55.3576 37.6218C55.2901 36.6014 54.6606 35.8866 53.4644 35.4821" stroke="var(--stroke-0, #C0A69D)" stroke-miterlimit="10"/>
<path id="Vector_6" d="M53.4639 35.4796C54.2958 32.3372 54.7365 30.1075 54.7769 28.7813C55.2221 14.9624 41.1292 10.1073 30.2155 15.2411C22.2562 18.9813 21.8874 28.2599 24.1673 35.529" stroke="var(--stroke-0, #8E94A0)" stroke-miterlimit="10"/>
<path id="Vector_7" d="M53.4636 35.4797C53.0724 35.9337 52.6092 37.4487 52.065 40.029C52.0426 40.1459 51.9392 40.2268 51.8223 40.2268H51.6918C51.512 40.2268 51.3726 40.065 51.395 39.8852C51.9212 35.8977 51.5525 32.1845 50.2888 28.7545C49.7447 27.2665 49.4974 26.2101 48.4587 25.293C48.0899 24.9693 47.5863 24.8345 47.1051 24.9379L35.8407 27.3204C35.7327 27.3429 35.6383 27.3969 35.5663 27.4778C35.2291 27.8734 34.9818 28.4218 34.8199 29.1231C34.7704 29.3479 34.4646 29.3749 34.3657 29.1681L33.3899 27.0597C33.3854 27.0462 33.3764 27.0327 33.3674 27.0238L32.4321 25.819C32.3511 25.7156 32.2477 25.6346 32.1308 25.5807C30.2287 24.722 28.8616 25.2526 28.0342 27.1721C26.6582 30.3728 25.7094 34.0951 25.9342 37.5925C25.9612 38.0375 26.0242 38.8512 26.1231 40.0245C26.1276 40.1099 26.0691 40.1863 25.9882 40.2043L25.8308 40.2358C25.7948 40.2448 25.7588 40.2223 25.7499 40.1908L24.167 35.5291M51.1297 64.628C50.5631 66.107 49.5334 67.2579 48.036 68.085C42.5139 71.1419 34.8648 71.1284 29.4013 67.9277C28.0972 67.1589 27.0045 66.1205 26.1276 64.8123" stroke="var(--stroke-0, #4E3B3E)" stroke-miterlimit="10"/>
<path id="Vector_8" d="M29.6855 60.7182C32.1138 61.6578 34.5106 62.0848 36.8804 61.9904C39.52 61.887 41.9033 60.9205 44.0213 59.0864C45.5547 57.7602 46.7508 56.6454 47.6097 55.7463C47.8885 55.4541 48.0459 55.0675 48.0459 54.6629V53.8133C48.0459 53.5121 47.6637 53.3817 47.4793 53.6199C45.5637 56.0969 43.4637 57.4725 41.1748 57.7422C38.9129 58.0075 36.8849 57.8097 35.0951 57.1399C34.659 56.9735 33.7731 56.4296 32.4465 55.4991C31.5967 54.9011 30.7063 54.3707 29.7665 53.9032" stroke="var(--stroke-0, #C0A69D)" stroke-miterlimit="10"/>
<path id="Vector_9" d="M53.4639 35.4796C53.0727 35.9336 52.6095 37.4486 52.0654 40.0289C52.0429 40.1458 51.9395 40.2267 51.8226 40.2267H51.6922C51.5123 40.2267 51.3729 40.0649 51.3953 39.8851C51.9215 35.8976 51.5528 32.1844 50.2892 28.7544C49.745 27.2664 49.4977 26.21 48.459 25.2929C48.0902 24.9692 47.5866 24.8344 47.1054 24.9378L35.841 27.3203C35.7331 27.3428 35.6386 27.3967 35.5667 27.4776C35.2294 27.8733 34.9821 28.4217 34.8202 29.123C34.7707 29.3478 34.465 29.3747 34.366 29.1679L33.3902 27.0596C33.3857 27.0461 33.3767 27.0326 33.3677 27.0237L32.4324 25.8188C32.3515 25.7155 32.248 25.6345 32.1311 25.5806C30.229 24.7219 28.8619 25.2525 28.0346 27.172C26.6585 30.3727 25.7097 34.0949 25.9345 37.5924C25.9615 38.0374 26.0245 38.8511 26.1234 40.0244C26.1279 40.1098 26.0694 40.1862 25.9885 40.2042L25.8311 40.2357C25.7952 40.2447 25.7592 40.2222 25.7502 40.1907L24.1673 35.529C21.8874 28.2599 22.2562 18.9813 30.2155 15.2411C41.1292 10.1073 55.2221 14.9624 54.7769 28.7813C54.7365 30.1075 54.2958 32.3372 53.4639 35.4796Z" fill="var(--fill-0, #1C2941)"/>
<path id="Vector_10" d="M53.4652 35.4797C54.6614 35.8842 55.2909 36.599 55.3584 37.6195C55.5113 40.047 54.4995 45.1897 51.6845 46.0124C51.5316 46.0574 51.4237 46.0978 51.3607 46.1338C51.2258 46.2057 51.1314 46.3406 51.1134 46.4935C50.7446 49.1682 49.8588 51.4384 48.4603 53.313C48.2714 53.5692 48.1635 53.8794 48.1545 54.2031C48.0871 56.9318 48.168 59.2874 48.4063 61.2609C48.6402 63.194 49.517 63.657 51.1314 64.628C50.5648 66.107 49.535 67.2579 48.0376 68.085C42.5156 71.1419 34.8665 71.1284 29.4029 67.9277C28.0989 67.1589 27.0061 66.1205 26.1293 64.8123C27.5232 64.2864 28.4541 63.7604 28.9263 63.2344C29.4074 62.6995 29.6637 61.8589 29.6862 60.717C32.1145 61.6565 34.5113 62.0836 36.8811 61.9892C39.5207 61.8858 41.904 60.9193 44.022 59.0851C45.5554 57.759 46.7515 56.6441 47.6104 55.745C47.8892 55.4529 48.0466 55.0662 48.0466 54.6617V53.812C48.0466 53.5108 47.6644 53.3804 47.48 53.6187C45.5644 56.0957 43.4644 57.4713 41.1755 57.741C38.9136 58.0062 36.8856 57.8084 35.0958 57.1386C34.6597 56.9723 33.7738 56.4284 32.4472 55.4978C31.5974 54.8999 30.707 54.3694 29.7672 53.9019C28.679 52.5757 27.8335 51.0473 27.231 49.3166C27.15 49.0873 26.8982 48.1522 26.4755 46.5114C26.4395 46.3721 26.3361 46.2642 26.2012 46.2192C25.3873 45.954 24.8162 45.5719 24.4789 45.0729C23.2378 43.2163 22.5363 40.9686 22.3699 38.3297C22.2755 36.8597 22.8781 35.9292 24.1687 35.5291L25.7515 40.1908C25.7605 40.2223 25.7965 40.2448 25.8325 40.2358L25.9898 40.2043C26.0708 40.1863 26.1293 40.1099 26.1247 40.0245C26.0258 38.8512 25.9629 38.0375 25.9359 37.5925C25.711 34.0951 26.6599 30.3728 28.0359 27.1721C28.8633 25.2526 30.2303 24.722 32.1325 25.5807C32.2494 25.6346 32.3528 25.7156 32.4338 25.819L33.3691 27.0238C33.3781 27.0327 33.3871 27.0462 33.3916 27.0597L34.3674 29.1681C34.4663 29.3749 34.7721 29.3479 34.8215 29.1231C34.9834 28.4218 35.2307 27.8734 35.568 27.4778C35.64 27.3969 35.7344 27.3429 35.8423 27.3204L47.1068 24.9379C47.5879 24.8345 48.0916 24.9693 48.4603 25.293C49.4991 26.2101 49.7464 27.2665 50.2905 28.7545C51.5541 32.1845 51.9228 35.8977 51.3967 39.8852C51.3742 40.065 51.5136 40.2268 51.6935 40.2268H51.8239C51.9409 40.2268 52.0443 40.1459 52.0667 40.029C52.6108 37.4487 53.074 35.9337 53.4652 35.4797Z" fill="var(--fill-0, #F9BA96)"/>
<path id="Vector_11" d="M29.6855 60.7182L29.7665 53.9032C30.7063 54.3707 31.5967 54.9011 32.4465 55.4991C33.7731 56.4296 34.659 56.9735 35.0951 57.1399C36.8849 57.8097 38.9129 58.0075 41.1748 57.7422C43.4637 57.4725 45.5637 56.0969 47.4793 53.6199C47.6637 53.3817 48.0459 53.5121 48.0459 53.8133V54.6629C48.0459 55.0675 47.8885 55.4541 47.6097 55.7463C46.7508 56.6454 45.5547 57.7602 44.0213 59.0864C41.9033 60.9205 39.52 61.887 36.8804 61.9904C34.5106 62.0848 32.1138 61.6578 29.6855 60.7182Z" fill="var(--fill-0, #EC9C74)"/>
<path id="Vector_12" d="M51.1309 64.6273C54.4361 65.7826 57.7592 66.9335 61.1093 68.0798C62.3999 68.5248 63.3487 69.2036 63.9647 70.1207C64.5943 71.0603 65.0485 72.0852 65.3318 73.2001C65.3722 73.3619 65.3003 73.5328 65.1519 73.6137C64.1401 74.1756 61.7209 74.9668 60.7855 75.1871C46.5307 78.5542 31.5069 78.671 17.3106 75.0702C15.7412 74.6701 14.2033 74.1262 12.6969 73.4294C12.5664 73.3709 12.4945 73.2361 12.5125 73.0967C12.8363 70.6062 14.1493 68.9654 16.4472 68.1697C19.6354 67.0683 22.8641 65.949 26.1288 64.8116C27.0056 66.1198 28.0984 67.1582 29.4025 67.927C34.866 71.1277 42.5151 71.1412 48.0371 68.0843C49.5346 67.2571 50.5643 66.1063 51.1309 64.6273Z" fill="var(--fill-0, #179DAC)"/>
</g>
</g>
</g>
</svg>
