<svg width="106" height="106" viewBox="0 0 106 106" fill="none" xmlns="http://www.w3.org/2000/svg">
<mask id="mask0_5177_4333" style="mask-type:alpha" maskUnits="userSpaceOnUse" x="0" y="0" width="106" height="106">
<circle cx="53" cy="53" r="53" fill="#D9D9D9"/>
</mask>
<g mask="url(#mask0_5177_4333)">
<circle cx="53" cy="53" r="55" fill="white"/>
<path d="M20.4573 92.8491C20.2006 93.1608 20.0723 93.4419 20.0723 93.6985C20.0723 93.9612 20.2495 94.2056 20.604 94.4256C21.5147 94.9878 23.0489 95.776 25.2126 96.7842C33.4213 100.622 42.0151 102.766 50.9878 103.225C51.2384 103.237 51.434 103.011 51.3912 102.766L51.055 100.884" stroke="#8E94A0" stroke-miterlimit="10"/>
<path d="M51.0547 100.885L57.2647 100.604" stroke="#FCDDCB" stroke-miterlimit="10"/>
<path d="M57.2653 100.603C57.0881 101.489 57.0453 102.296 57.1431 103.023C57.1675 103.2 57.3203 103.323 57.4976 103.31C68.0167 102.522 77.9246 99.5708 87.2335 94.4564C87.4902 94.3159 87.6002 93.9981 87.4779 93.7293L86.665 91.9512" stroke="#8E94A0" stroke-miterlimit="10"/>
<path d="M86.6648 91.9515C87.8567 88.7802 87.9667 85.6578 87.001 82.5782C86.3531 80.5129 85.0023 78.6065 83.8898 76.6206C81.5489 72.435 83.1992 68.561 83.9937 63.9172C84.7761 59.371 82.7163 55.4726 80.5709 50.0222C80.0453 48.684 79.5257 46.5393 79.0123 43.5758C77.307 33.7687 74.4159 21.4502 64.2452 17.234C56.0488 13.8367 47.9562 14.3132 39.9614 18.6699C34.8333 21.4563 32.3456 25.7274 30.457 31.1656C29.3139 34.4591 28.5133 37.9054 28.0426 41.5105C27.4314 46.2216 26.1417 50.896 24.1675 55.546C23.4707 57.1897 22.9818 59.1694 22.7067 61.4913C22.4011 64.0883 23.1957 67.2351 23.6235 69.4776C24.4304 73.6448 23.2018 76.0035 21.1053 79.5047C20.3901 80.6962 19.8829 81.8022 19.5772 82.8287C18.581 86.1772 18.8743 89.5196 20.4574 92.8497" stroke="#EBA89F" stroke-miterlimit="10"/>
<path d="M86.6647 91.9513C85.4545 89.7943 83.6452 88.2117 81.2371 87.1974C79.2384 86.3542 77.2886 85.8043 75.3877 85.5537" stroke="#7A3D40" stroke-miterlimit="10"/>
<path d="M75.3883 85.5539C72.4911 84.8451 69.7895 83.9469 67.2774 82.8531C65.6332 82.1382 64.6308 80.8856 64.2763 79.1075C63.9524 77.4821 63.6773 75.8751 63.4512 74.2803" stroke="#E8856A" stroke-miterlimit="10"/>
<path d="M63.4512 74.2803L63.5062 69.3615C63.5123 69.1659 63.5734 68.9765 63.6895 68.8238L64.3802 67.9072" stroke="#E27659" stroke-miterlimit="10"/>
<path d="M64.3794 67.9072C66.9404 65.6769 68.4073 62.2795 69.5565 59.1205C69.6175 58.9433 69.7398 58.7844 69.8926 58.6683C70.5038 58.2222 71.17 58.4544 71.7813 57.8678C74.0428 55.6803 76.7077 47.4436 73.7616 45.1033C73.4316 44.8467 72.9487 44.9872 72.8142 45.3844L70.9378 50.9509C70.895 51.0853 70.7605 51.1648 70.62 51.1403C70.4855 51.1159 70.3816 50.9998 70.3816 50.8593V45.8243C70.3816 45.5371 70.1432 45.2988 69.8559 45.2988H59.8136C59.5202 45.2988 59.2696 45.0788 59.2329 44.7856L58.4383 38.0153C58.4139 37.8319 58.2672 37.6975 58.0838 37.6914C57.9004 37.6914 57.7415 37.8259 57.7171 38.003C57.5826 38.8891 57.0997 40.9299 56.2746 44.1318C56.1279 44.7061 55.6084 45.1033 55.0155 45.1033H41.2019C40.8596 45.1033 40.554 44.8772 40.4562 44.5534C39.5577 41.541 39.2277 38.6018 39.4722 35.73C39.4783 35.6506 39.4233 35.5711 39.3438 35.5589C39.2644 35.5406 39.1787 35.5834 39.1543 35.6628C38.1091 38.6813 37.7057 41.7243 37.9563 44.7916C38.0113 45.4699 37.559 45.7021 36.6116 45.4882C36.1777 45.3905 35.7804 45.751 35.8354 46.1909L36.3549 50.6209C36.3672 50.7248 36.3 50.8165 36.2021 50.8409C36.0983 50.8654 36.0004 50.8104 35.9638 50.7126L34.1423 45.5371C33.9406 44.9628 33.1949 44.8345 32.8099 45.3049C32.1925 46.0565 31.8808 46.9853 31.8747 48.0913C31.8441 51.5681 32.8527 54.7393 34.8941 57.6173C35.0958 57.8984 35.4137 58.0817 35.762 58.1123C36.2938 58.155 36.7033 58.2589 37.0028 58.4361C37.2106 58.5583 37.3634 58.7538 37.4368 58.9799C38.7081 63.0922 40.8474 66.5751 43.8607 69.4164" stroke="#E8856A" stroke-miterlimit="10"/>
<path d="M43.8607 69.4165L43.5918 75.3925" stroke="#E27659" stroke-miterlimit="10"/>
<path d="M43.5915 75.3926C43.3409 78.0811 43.2493 80.8919 41.1222 82.1506C39.1235 83.3299 36.6664 84.2281 33.757 84.8392C33.3597 84.9247 33.1336 85.1569 33.0908 85.5419" stroke="#E8856A" stroke-miterlimit="10"/>
<path d="M33.091 85.5417C32.9565 85.285 32.7242 85.1995 32.3942 85.285C30.7989 85.6822 28.7146 86.3482 26.1414 87.2709C23.2381 88.3158 21.3433 90.1794 20.457 92.8496" stroke="#7A3D40" stroke-miterlimit="10"/>
<path d="M63.4503 74.2798C63.3403 73.8582 63.2059 73.5344 63.053 73.3083C62.9553 73.1678 62.7719 73.1311 62.6252 73.2166C58.6278 75.5691 55.9446 77.0723 54.5754 77.7138C52.7112 78.5877 50.7675 78.5754 48.7566 77.6711C47.0758 76.9134 45.3582 76.1557 43.5918 75.392" stroke="#F3AB85" stroke-miterlimit="10"/>
<path d="M75.3872 85.5537C70.198 90.3442 64.4586 93.9677 58.1814 96.4241C57.9613 96.5096 57.8024 96.7112 57.7718 96.9495L57.2645 100.604M51.0546 100.885L50.6817 97.2184C50.6389 96.8212 50.3638 96.4791 49.9849 96.3629C43.3776 94.2976 37.7483 90.6925 33.0908 85.5415" stroke="#8B726C" stroke-miterlimit="10"/>
<path d="M64.379 67.9072C59.1347 71.7323 54.8562 74.7753 49.1291 72.2639C47.0571 71.3534 45.3028 70.4063 43.8604 69.4165" stroke="#F3AB85" stroke-miterlimit="10"/>
<path d="M86.6648 91.9515C85.4546 89.7945 83.6453 88.212 81.2372 87.1976C79.2385 86.3544 77.2887 85.8045 75.3878 85.5539C72.4906 84.8451 69.789 83.9469 67.2769 82.8532C65.6327 82.1383 64.6303 80.8856 64.2758 79.1075C63.9518 77.4822 63.6768 75.8751 63.4506 74.2803L63.5057 69.3615C63.5117 69.1659 63.5729 68.9766 63.689 68.8238L64.3797 67.9072C66.9407 65.677 68.4076 62.2796 69.5568 59.1205C69.6178 58.9433 69.7401 58.7844 69.8929 58.6683C70.5041 58.2223 71.1703 58.4545 71.7816 57.8679C74.0431 55.6804 76.708 47.4437 73.7619 45.1033C73.4319 44.8467 72.949 44.9873 72.8145 45.3844L70.9381 50.951C70.8953 51.0854 70.7608 51.1648 70.6203 51.1404C70.4858 51.1159 70.3819 50.9999 70.3819 50.8593V45.8244C70.3819 45.5372 70.1435 45.2989 69.8562 45.2989H59.8139C59.5205 45.2989 59.2699 45.0789 59.2332 44.7856L58.4386 38.0153C58.4142 37.832 58.2675 37.6976 58.0841 37.6915C57.9007 37.6915 57.7419 37.8259 57.7174 38.0031C57.5829 38.8891 57.1 40.93 56.2749 44.1318C56.1282 44.7062 55.6087 45.1033 55.0158 45.1033H41.2022C40.8599 45.1033 40.5543 44.8773 40.4565 44.5534C39.558 41.541 39.228 38.6019 39.4725 35.7301C39.4786 35.6506 39.4236 35.5712 39.3441 35.559C39.2647 35.5406 39.1791 35.5834 39.1546 35.6629C38.1095 38.6814 37.706 41.7243 37.9566 44.7917C38.0116 45.47 37.5593 45.7022 36.6119 45.4883C36.178 45.3906 35.7807 45.7511 35.8357 46.191L36.3552 50.621C36.3675 50.7249 36.3003 50.8166 36.2025 50.841C36.0986 50.8654 36.0007 50.8104 35.9641 50.7127L34.1426 45.5372C33.9409 44.9628 33.1952 44.8345 32.8102 45.305C32.1928 46.0566 31.8811 46.9854 31.875 48.0913C31.8444 51.5682 32.853 54.7394 34.8944 57.6174C35.0961 57.8985 35.414 58.0817 35.7623 58.1123C36.2941 58.1551 36.7036 58.259 37.0031 58.4361C37.2109 58.5584 37.3638 58.7539 37.4371 58.98C38.7085 63.0923 40.8477 66.5751 43.861 69.4165L43.5921 75.3924C43.3415 78.081 43.2498 80.8918 41.1228 82.1505C39.1241 83.3298 36.6669 84.228 33.7575 84.839C33.3603 84.9246 33.1341 85.1568 33.0914 85.5417C32.9569 85.2851 32.7246 85.1995 32.3945 85.2851C30.7993 85.6822 28.715 86.3483 26.1417 87.2709C23.2385 88.3158 21.3437 90.1795 20.4574 92.8497C18.8743 89.5196 18.581 86.1772 19.5772 82.8287C19.8829 81.8022 20.3901 80.6962 21.1053 79.5047C23.2018 76.0035 24.4304 73.6448 23.6235 69.4776C23.1957 67.2351 22.4011 64.0883 22.7067 61.4913C22.9818 59.1694 23.4707 57.1897 24.1675 55.546C26.1417 50.896 27.4314 46.2216 28.0426 41.5105C28.5133 37.9054 29.3139 34.4591 30.457 31.1656C32.3456 25.7274 34.8333 21.4563 39.9614 18.6699C47.9562 14.3132 56.0488 13.8367 64.2452 17.234C74.4159 21.4502 77.307 33.7687 79.0123 43.5758C79.5257 46.5393 80.0453 48.684 80.5709 50.0222C82.7163 55.4726 84.7761 59.371 83.9937 63.9172C83.1992 68.561 81.5489 72.435 83.8898 76.6206C85.0023 78.6065 86.3531 80.5129 87.001 82.5782C87.9667 85.6578 87.8567 88.7802 86.6648 91.9515Z" fill="#A48A7A"/>
<path d="M64.3794 67.9072C59.1351 71.7322 54.8566 74.7752 49.1294 72.2638C47.0574 71.3534 45.3032 70.4063 43.8607 69.4164C40.8474 66.5751 38.7081 63.0922 37.4368 58.9799C37.3634 58.7538 37.2106 58.5583 37.0028 58.4361C36.7033 58.2589 36.2938 58.155 35.762 58.1123C35.4137 58.0817 35.0958 57.8984 34.8941 57.6173C32.8527 54.7393 31.8441 51.5681 31.8747 48.0913C31.8808 46.9853 32.1925 46.0565 32.8099 45.3049C33.1949 44.8345 33.9406 44.9628 34.1423 45.5371L35.9638 50.7126C36.0004 50.8104 36.0983 50.8654 36.2021 50.8409C36.3 50.8165 36.3672 50.7248 36.3549 50.6209L35.8354 46.1909C35.7804 45.751 36.1777 45.3905 36.6116 45.4882C37.559 45.7021 38.0113 45.4699 37.9563 44.7916C37.7057 41.7243 38.1091 38.6813 39.1543 35.6628C39.1787 35.5834 39.2644 35.5406 39.3438 35.5589C39.4233 35.5711 39.4783 35.6506 39.4722 35.73C39.2277 38.6018 39.5577 41.541 40.4562 44.5534C40.554 44.8772 40.8596 45.1033 41.2019 45.1033H55.0155C55.6084 45.1033 56.1279 44.7061 56.2746 44.1318C57.0997 40.9299 57.5826 38.8891 57.7171 38.003C57.7415 37.8259 57.9004 37.6914 58.0838 37.6914C58.2672 37.6975 58.4139 37.8319 58.4383 38.0153L59.2329 44.7856C59.2696 45.0788 59.5202 45.2988 59.8136 45.2988H69.8559C70.1432 45.2988 70.3816 45.5371 70.3816 45.8243V50.8593C70.3816 50.9998 70.4855 51.1159 70.62 51.1403C70.7605 51.1648 70.895 51.0853 70.9378 50.9509L72.8142 45.3844C72.9487 44.9872 73.4316 44.8467 73.7616 45.1033C76.7077 47.4436 74.0428 55.6803 71.7813 57.8678C71.17 58.4544 70.5038 58.2222 69.8926 58.6683C69.7398 58.7844 69.6175 58.9433 69.5564 59.1205C68.4073 62.2795 66.9404 65.6769 64.3794 67.9072Z" fill="#F9BA96"/>
<path d="M64.3794 67.9072L63.6887 68.8238C63.5726 68.9765 63.5114 69.1659 63.5054 69.3615L63.4503 74.2803C63.3403 73.8587 63.2059 73.5348 63.053 73.3088C62.9553 73.1682 62.7719 73.1315 62.6252 73.2171C58.6278 75.5696 55.9446 77.0728 54.5754 77.7143C52.7112 78.5881 50.7675 78.5759 48.7566 77.6716C47.0758 76.9139 45.3582 76.1562 43.5918 75.3924L43.8607 69.4165C45.3032 70.4063 47.0574 71.3534 49.1294 72.2639C54.8566 74.7753 59.1351 71.7323 64.3794 67.9072Z" fill="#EC9C74"/>
<path d="M63.4501 74.2798C63.6762 75.8747 63.9513 77.4817 64.2753 79.107C64.6297 80.8852 65.6322 82.1378 67.2763 82.8527C69.7884 83.9465 72.4901 84.8446 75.3872 85.5534C70.198 90.344 64.4586 93.9674 58.1814 96.4238C57.9613 96.5093 57.8024 96.711 57.7718 96.9493L57.2645 100.603L51.0546 100.884L50.6817 97.2181C50.6389 96.8209 50.3638 96.4788 49.9849 96.3627C43.3776 94.2974 37.7483 90.6923 33.0908 85.5412C33.1336 85.1563 33.3597 84.9241 33.757 84.8385C36.6664 84.2275 39.1235 83.3293 41.1222 82.15C43.2493 80.8913 43.3409 78.0805 43.5915 75.392C45.3579 76.1557 47.0755 76.9134 48.7564 77.6711C50.7673 78.5754 52.7109 78.5877 54.5752 77.7138C55.9443 77.0723 58.6276 75.5691 62.625 73.2166C62.7716 73.1311 62.955 73.1678 63.0528 73.3083C63.2056 73.5344 63.3401 73.8582 63.4501 74.2798Z" fill="#F9BA96"/>
<path d="M33.0913 85.5417C37.7488 90.6927 43.3781 94.2978 49.9854 96.3631C50.3643 96.4792 50.6394 96.8214 50.6822 97.2186L51.055 100.885L51.3912 102.767C51.434 103.011 51.2384 103.237 50.9878 103.225C42.0151 102.767 33.4213 100.622 25.2126 96.7847C23.0489 95.7765 21.5147 94.9883 20.604 94.4261C20.2495 94.2062 20.0723 93.9617 20.0723 93.699C20.0723 93.4424 20.2006 93.1613 20.4573 92.8496C21.3436 90.1794 23.2384 88.3158 26.1417 87.2709C28.7149 86.3482 30.7992 85.6822 32.3945 85.285C32.7245 85.1995 32.9568 85.285 33.0913 85.5417Z" fill="#7A5590"/>
<path d="M86.665 91.9513L87.4779 93.7294C87.6002 93.9982 87.4902 94.316 87.2335 94.4565C77.9246 99.5709 68.0167 102.522 57.4976 103.31C57.3203 103.323 57.1675 103.2 57.1431 103.023C57.0453 102.296 57.0881 101.49 57.2653 100.604L57.7726 96.9495C57.8032 96.7112 57.9621 96.5096 58.1821 96.4241C64.4594 93.9677 70.1987 90.3443 75.388 85.5537C77.2889 85.8043 79.2387 86.3542 81.2374 87.1974C83.6456 88.2117 85.4548 89.7943 86.665 91.9513Z" fill="#7A5590"/>
</g>
</svg>
