<svg width="106" height="106" viewBox="0 0 106 106" fill="none" xmlns="http://www.w3.org/2000/svg">
<mask id="mask0_5177_4510" style="mask-type:alpha" maskUnits="userSpaceOnUse" x="0" y="0" width="106" height="106">
<circle cx="53" cy="53" r="53" fill="#D9D9D9"/>
</mask>
<g mask="url(#mask0_5177_4510)">
<circle cx="53" cy="53" r="55" fill="white"/>
<path d="M32.1758 50.9438C31.549 51.5152 30.5842 51.982 30.2647 52.6885C29.0173 55.4712 30.6089 60.2935 31.9177 62.8858C32.735 64.5137 33.9516 65.5457 35.5554 65.9819C35.7889 66.0433 35.9671 66.2399 36.004 66.4733C36.5939 70.1038 37.9704 73.1568 40.1395 75.6263" stroke="#FCDDCB" stroke-miterlimit="10"/>
<path d="M40.1396 75.626L40.2257 86.4745" stroke="#F6CEBA" stroke-miterlimit="10"/>
<path d="M40.2253 86.4744C40.0594 88.6797 38.8734 90.2523 36.6675 91.1799C32.7532 92.8385 28.63 94.5647 24.2856 96.3523C23.4622 96.6902 22.7494 97.1017 22.1534 97.5748C21.9137 97.7652 21.9629 98.1399 22.2455 98.2566C27.5916 100.511 33.2141 102.348 39.1131 103.755C54.0696 107.33 67.9631 104.664 82.1146 98.8341C82.6062 98.6314 83.0179 98.3979 83.3497 98.1338C83.5648 97.9679 83.5648 97.6485 83.3497 97.4765C82.1392 96.5059 80.7505 95.7319 79.1835 95.1606C75.1341 93.6801 71.1522 92.0277 67.2257 90.2032C65.7878 89.5336 65.0258 88.3971 64.9459 86.8061C64.7554 83.0405 64.6633 80.4052 64.6694 78.9062" stroke="#FCDDCB" stroke-miterlimit="10"/>
<path d="M64.6699 78.9063L64.7252 77.2539" stroke="#F6CEBA" stroke-miterlimit="10"/>
<path d="M64.7246 77.2542C64.9028 76.3634 65.4804 75.1594 66.4513 73.6298C67.244 72.3828 68.0613 70.1222 68.9031 66.848C68.9646 66.6146 69.0998 66.4057 69.2964 66.2583C69.3578 66.2153 69.8126 65.9327 70.6605 65.4228C73.6469 63.6106 74.8636 58.0328 74.8943 54.9736C74.9128 53.0754 73.9296 51.7424 72.3749 50.7964" stroke="#FCDDCB" stroke-miterlimit="10"/>
<path d="M72.3761 50.796C73.6603 46.7109 73.9984 42.4968 73.3838 38.1476C72.1487 29.4368 65.9793 22.7103 57.9111 19.6449C52.7863 17.6976 45.9717 17.8082 40.1219 18.318C39.8515 18.3426 39.7962 18.7174 40.0481 18.8157L43.6797 20.2101C44.159 20.3944 44.073 21.0947 43.563 21.1561C40.3615 21.5431 34.8311 21.2298 32.3855 18.6129C32.2257 18.4409 31.9492 18.4778 31.8386 18.6867C30.3147 21.6291 29.6326 24.6945 29.7924 27.8827C29.817 28.2758 29.3377 28.4909 29.055 28.2083L27.9305 27.0841C27.7216 26.8752 27.3652 27.0779 27.4451 27.3667C28.207 30.1802 29.5896 32.6558 31.599 34.7935C31.7833 34.9839 31.8509 35.2604 31.7772 35.5122C30.2717 40.7645 30.4069 45.9062 32.1766 50.9434" stroke="#FCD19D" stroke-miterlimit="10"/>
<path d="M72.3753 50.7964L69.4872 59.9126C69.4627 59.9863 69.3889 60.0293 69.309 60.017L69.1246 59.9863C68.971 59.9617 68.8666 59.8143 68.885 59.6608C69.4565 55.2931 69.7084 51.8038 69.6285 49.1808C69.5363 46.1277 68.8666 38.277 64.1044 39.2722C62.2302 39.6653 60.3191 40.1752 58.3712 40.7957C52.6258 42.6263 48.0356 41.3301 41.2455 39.4565C40.3238 39.2046 39.3837 39.1186 38.4251 39.2108C38.2039 39.2353 38.0011 39.3275 37.8352 39.4811C36.7844 40.4455 36.1576 41.6864 35.9548 43.1914C35.623 45.5933 35.4326 47.6942 35.3772 49.4818C35.2483 53.7266 35.0024 56.3865 35.7828 59.8266C35.8074 59.9371 35.6906 60.0232 35.5923 59.9679C35.3772 59.845 35.2114 59.63 35.0946 59.3228C34.0254 56.5708 33.0545 53.7758 32.1758 50.9438" stroke="#F9AF69" stroke-miterlimit="10"/>
<path d="M64.7251 77.2539C64.7619 77.0573 64.719 76.873 64.5961 76.7071C64.4978 76.572 64.3134 76.5474 64.1843 76.6457C62.8878 77.6593 61.88 78.4579 61.155 79.0476C57.806 81.7812 54.2789 82.3832 49.8178 81.4987C45.9281 80.7246 42.702 78.765 40.1396 75.626M64.6698 78.9063C62.132 81.468 59.5266 83.5381 56.8597 85.1291C52.8963 87.4942 48.5396 87.9181 43.7958 86.413C42.4624 85.983 41.3379 84.9326 40.2257 86.4745" stroke="#F3AB85" stroke-miterlimit="10"/>
<path d="M72.3761 50.796L69.488 59.9121C69.4635 59.9859 69.3897 60.0289 69.3098 60.0166L69.1254 59.9859C68.9718 59.9613 68.8674 59.8139 68.8858 59.6603C69.4573 55.2927 69.7092 51.8034 69.6293 49.1804C69.5371 46.1273 68.8674 38.2766 64.1052 39.2718C62.231 39.6649 60.3199 40.1748 58.372 40.7952C52.6266 42.6259 48.0364 41.3297 41.2463 39.4561C40.3246 39.2042 39.3845 39.1182 38.4259 39.2103C38.2047 39.2349 38.0019 39.3271 37.836 39.4806C36.7852 40.4451 36.1584 41.686 35.9556 43.191C35.6238 45.5929 35.4334 47.6938 35.378 49.4814C35.249 53.7262 35.0032 56.3861 35.7836 59.8262C35.8082 59.9367 35.6914 60.0227 35.5931 59.9675C35.378 59.8446 35.2122 59.6296 35.0954 59.3224C34.0262 56.5704 33.0553 53.7753 32.1766 50.9434C30.4069 45.9062 30.2717 40.7645 31.7772 35.5122C31.8509 35.2604 31.7833 34.9839 31.599 34.7935C29.5896 32.6558 28.207 30.1802 27.4451 27.3667C27.3652 27.0779 27.7216 26.8752 27.9305 27.0841L29.055 28.2083C29.3377 28.4909 29.817 28.2758 29.7924 27.8827C29.6326 24.6945 30.3147 21.6291 31.8386 18.6867C31.9492 18.4778 32.2257 18.4409 32.3855 18.6129C34.8311 21.2298 40.3615 21.5431 43.563 21.1561C44.073 21.0947 44.159 20.3944 43.6797 20.2101L40.0481 18.8157C39.7962 18.7174 39.8515 18.3426 40.1219 18.318C45.9717 17.8082 52.7863 17.6976 57.9111 19.6449C65.9793 22.7103 72.1487 29.4368 73.3838 38.1476C73.9984 42.4968 73.6603 46.7109 72.3761 50.796Z" fill="#69400F"/>
<path d="M72.3753 50.7964C73.9299 51.7424 74.9131 53.0755 74.8946 54.9736C74.8639 58.0328 73.6473 63.6107 70.6609 65.4229C69.8129 65.9327 69.3582 66.2153 69.2967 66.2583C69.1001 66.4057 68.9649 66.6146 68.9034 66.848C68.0616 70.1222 67.2443 72.3828 66.4517 73.6299C65.4808 75.1595 64.9031 76.3635 64.7249 77.2542C64.7618 77.0577 64.7188 76.8734 64.5959 76.7075C64.4976 76.5723 64.3132 76.5478 64.1842 76.6461C62.8876 77.6596 61.8799 78.4582 61.1548 79.048C57.8059 81.7816 54.2787 82.3836 49.8176 81.499C45.9279 80.725 42.7018 78.7654 40.1395 75.6263C37.9704 73.1568 36.5939 70.1038 36.004 66.4733C35.9671 66.2398 35.7889 66.0433 35.5554 65.9818C33.9516 65.5457 32.735 64.5137 31.9177 62.8858C30.6089 60.2935 29.0173 55.4712 30.2647 52.6885C30.5842 51.982 31.549 51.5152 32.1758 50.9438C33.0545 53.7758 34.0254 56.5708 35.0946 59.3228C35.2114 59.63 35.3772 59.845 35.5923 59.9679C35.6906 60.0232 35.8074 59.9371 35.7828 59.8266C35.0024 56.3865 35.2483 53.7266 35.3772 49.4818C35.4326 47.6942 35.623 45.5933 35.9548 43.1914C36.1576 41.6864 36.7844 40.4455 37.8352 39.4811C38.0011 39.3275 38.2039 39.2353 38.4251 39.2108C39.3837 39.1186 40.3238 39.2046 41.2455 39.4565C48.0356 41.3301 52.6258 42.6263 58.3712 40.7957C60.3191 40.1752 62.2302 39.6653 64.1044 39.2722C68.8666 38.277 69.5363 46.1277 69.6285 49.1808C69.7084 51.8038 69.4565 55.2931 68.885 59.6608C68.8666 59.8143 68.971 59.9617 69.1246 59.9863L69.309 60.017C69.3889 60.0293 69.4627 59.9863 69.4872 59.9126L72.3753 50.7964Z" fill="#F9BA96"/>
<path d="M64.7251 77.2539L64.6698 78.9063C62.132 81.468 59.5266 83.5381 56.8597 85.1291C52.8963 87.4942 48.5396 87.9181 43.7958 86.413C42.4624 85.983 41.3379 84.9326 40.2257 86.4745L40.1396 75.626C42.702 78.765 45.9281 80.7246 49.8178 81.4987C54.2789 82.3832 57.806 81.7812 61.155 79.0476C61.88 78.4579 62.8878 77.6593 64.1843 76.6457C64.3134 76.5474 64.4978 76.572 64.5961 76.7071C64.719 76.873 64.7619 77.0573 64.7251 77.2539Z" fill="#EC9C74"/>
<path d="M64.6694 78.9062C64.6633 80.4052 64.7554 83.0405 64.9459 86.8061C65.0258 88.3971 65.7878 89.5336 67.2257 90.2032C71.1522 92.0277 75.1341 93.6801 79.1835 95.1606C80.7505 95.7319 82.1392 96.5059 83.3497 97.4765C83.5648 97.6485 83.5648 97.9679 83.3497 98.1338C83.0179 98.3979 82.6062 98.6314 82.1146 98.8341C67.9631 104.664 54.0696 107.33 39.1131 103.755C33.2141 102.348 27.5916 100.511 22.2455 98.2566C21.9629 98.1399 21.9137 97.7652 22.1534 97.5748C22.7494 97.1017 23.4622 96.6902 24.2856 96.3523C28.63 94.5647 32.7532 92.8385 36.6675 91.1799C38.8734 90.2523 40.0594 88.6797 40.2253 86.4744C41.3375 84.9325 42.462 85.983 43.7955 86.413C48.5392 87.918 52.8959 87.4941 56.8594 85.1291C59.5262 83.5381 62.1316 81.4679 64.6694 78.9062Z" fill="#F9BA96"/>
</g>
</svg>
