<svg width="106" height="106" viewBox="0 0 106 106" fill="none" xmlns="http://www.w3.org/2000/svg">
<mask id="mask0_5177_3638" style="mask-type:alpha" maskUnits="userSpaceOnUse" x="0" y="0" width="106" height="106">
<circle cx="53" cy="53" r="53" fill="#D9D9D9"/>
</mask>
<g mask="url(#mask0_5177_3638)">
<circle cx="53" cy="53" r="55" fill="white"/>
<path d="M43.6386 81.4238C43.7452 83.1797 43.5432 84.93 43.027 86.6803C42.4434 88.6605 40.7318 89.6311 38.8071 90.3267C37.3986 90.8372 36.2482 91.2355 35.3447 91.5272" stroke="#C0A69D" stroke-miterlimit="10"/>
<path d="M35.345 91.5273L30.1543 93.2495" stroke="#8E94A0" stroke-miterlimit="10"/>
<path d="M30.1543 93.2495C27.1521 93.962 24.9412 95.5776 23.5158 98.0965C23.3643 98.3657 23.4766 98.708 23.7628 98.837L30.418 101.793" stroke="#C0A69D" stroke-miterlimit="10"/>
<path d="M30.418 101.793C34.722 103.359 39.5312 104.43 44.8453 105.008C55.6082 106.175 65.8661 105.12 75.6246 101.85" stroke="#8E94A0" stroke-miterlimit="10"/>
<path d="M75.624 101.849L81.7911 99.1061C82.1166 98.9603 82.2457 98.5676 82.0661 98.2591C80.6015 95.7514 78.4466 94.1358 75.6016 93.4121" stroke="#C0A69D" stroke-miterlimit="10"/>
<path d="M75.6018 93.4125L68.8623 91.0732" stroke="#8E94A0" stroke-miterlimit="10"/>
<path d="M68.8622 91.0731C67.4649 90.6075 66.0227 89.9455 64.5413 89.0984C63.5088 88.5094 62.8635 87.5838 62.6109 86.3215C62.2574 84.5544 62.1227 82.9332 62.2069 81.4634" stroke="#C0A69D" stroke-miterlimit="10"/>
<path d="M62.2071 81.4629L63.8793 80.7449C64.0084 80.6888 64.1487 80.6664 64.289 80.6832C65.9556 80.8627 67.2126 80.2625 68.0599 78.8768C68.1666 78.7085 68.3293 78.5907 68.5201 78.5458C69.9735 78.2205 71.0733 77.5697 71.8197 76.5992C71.988 76.386 72.2237 76.2402 72.4874 76.1953C73.548 76.0046 74.1092 75.9204 74.7377 75.1014C75.1024 74.6189 75.5794 74.2599 76.163 74.0243C77.4649 73.5025 77.9699 72.6218 79.1259 71.8252C80.0855 71.1576 80.2651 69.9964 79.9845 69.0371C79.934 68.8689 80.0182 68.6893 80.1809 68.6164C82.3133 67.6627 83.7835 65.9573 82.953 63.6068C82.8239 63.2477 82.9698 62.8438 83.3009 62.6531C85.8317 61.1833 86.2638 59.5901 84.586 57.8791C84.3895 57.6828 84.3559 57.3742 84.4962 57.133C84.9956 56.2859 84.8497 55.2818 84.0585 54.1093C83.935 53.9298 83.9967 53.6829 84.1875 53.582C85.1808 53.049 85.944 52.1066 86.477 50.7434C86.5837 50.4797 86.5949 50.1824 86.5107 49.9075C86.2582 49.0829 86.1684 48.4321 86.2357 47.9609C86.5051 46.1265 85.467 45.0662 83.8565 44.696C83.6488 44.6511 83.5422 44.4211 83.6376 44.236C84.2493 43.0523 84.1707 42.0201 83.4019 41.1281C83.2673 40.9766 83.2616 40.7522 83.3907 40.5951C84.715 38.9851 84.1707 35.737 81.6567 35.7258C81.4884 35.7258 81.3705 35.5519 81.4323 35.3892C81.898 34.1831 81.6792 33.2519 80.7757 32.5955C80.5737 32.4496 80.4446 32.2253 80.4166 31.9784C80.2089 30.144 79.0642 29.2969 76.9767 29.4372C76.7298 29.454 76.5334 29.2408 76.5671 28.9996C76.8139 27.2269 76.1406 26.0544 74.5469 25.4878C74.3056 25.3981 74.1148 25.2073 74.0306 24.9605C73.4358 23.227 72.1676 23.4009 71.4493 22.0658C70.5178 20.3268 68.6772 20.2819 67.1621 21.4487C66.6402 21.8526 66.3484 22.0658 66.2979 22.0826C66.1352 22.1331 65.9668 22.0321 65.9388 21.8639C65.7087 20.5175 64.8333 19.4797 63.3238 18.756C63.1442 18.6662 62.9422 18.6214 62.7458 18.627C61.9938 18.6438 61.1689 18.9018 60.2767 19.4011C60.1028 19.4965 59.8951 19.4853 59.7324 19.3731C58.7616 18.6887 58.5147 18.1277 57.1455 18.3353C56.82 18.3857 56.4945 18.3072 56.1691 18.0996C54.9738 17.3423 53.7841 17.5162 52.6057 18.6214C52.415 18.8009 52.1063 18.756 51.9716 18.5316C50.9447 16.8543 49.727 16.5625 48.3241 17.6565C48.167 17.7799 47.9482 17.7967 47.7798 17.6901C45.9336 16.5682 44.5083 16.815 43.5038 18.425C43.3298 18.6943 43.2513 19.2104 43.1222 19.5021C43.0549 19.6536 42.8753 19.7265 42.7238 19.6592C41.9382 19.3114 40.9954 19.2777 40.4174 19.9509C40.2211 20.1809 40.092 20.3155 40.0302 20.3492C39.8956 20.4333 39.7216 20.4445 39.5757 20.3772C37.853 19.5919 37.1403 21.3814 37.0561 22.6044C37.0337 22.9746 36.6465 23.2158 36.2986 23.0812C34.2223 22.2565 32.9653 22.8344 32.5276 24.8146C32.4603 25.1007 32.1628 25.2578 31.8879 25.1568C30.5804 24.6632 29.6545 24.9998 29.1102 26.1722C29.0372 26.3349 29.0092 26.5144 29.026 26.6939L29.1663 27.8888C29.2 28.1862 28.9642 28.4498 28.6668 28.4386C26.6355 28.3769 25.5973 29.2127 25.5524 30.935C25.5469 31.2155 25.3897 31.4735 25.1428 31.6026C23.9532 32.2421 23.7568 33.1789 24.5536 34.4187C24.6715 34.6038 24.6265 34.8507 24.447 34.9853C23.5323 35.6473 23.4257 36.7075 24.1215 38.1661C24.2225 38.3793 24.1047 38.6317 23.8746 38.6822C22.9207 38.8898 21.6412 39.3217 21.3269 40.1913C21.2933 40.281 21.2821 40.382 21.2933 40.483L21.4448 41.7676C21.4673 41.992 21.3606 42.2108 21.1642 42.3286C21.0295 42.4128 20.878 42.4969 20.7153 42.581C18.9757 43.5067 19.9297 45.0999 20.8219 46.2162C20.9678 46.4014 20.9117 46.6762 20.6985 46.7828C18.9925 47.658 18.5717 48.808 19.4359 50.2385C19.5986 50.5078 19.5986 50.8444 19.4415 51.1136C18.2687 53.1108 19.9577 53.7054 20.9791 54.9003C21.0969 55.0405 21.1137 55.2425 21.0183 55.3996C20.9847 55.4613 20.7209 55.7249 20.2327 56.1962C18.7344 57.6435 19.3797 59.4835 21.1642 60.3138C21.3101 60.3811 21.3663 60.5662 21.2821 60.7065L20.8219 61.4694C20.6704 61.7275 20.6311 62.036 20.7209 62.3221C20.7714 62.4848 20.7939 63.0177 20.7882 63.9322C20.777 65.6207 21.6019 66.4734 23.2629 66.479C23.465 66.479 23.6333 66.6305 23.6614 66.8269C23.8128 67.932 24.4414 68.6388 25.5469 68.9474C25.732 68.9979 25.8331 69.1942 25.7769 69.3737C24.8566 72.246 25.7657 73.4745 28.8745 72.9921C29.0484 72.964 29.2168 73.0481 29.301 73.1996C29.7555 74.0243 30.0473 74.8097 31.1416 74.8938C31.3604 74.9106 31.5175 75.1182 31.4726 75.3314C31.265 76.3243 31.4446 77.1097 32.0226 77.6987C32.4491 78.1307 32.8587 78.6132 33.2515 79.1405C34.2223 80.4476 35.5522 80.5037 37.2469 79.3088C37.7127 78.9834 38.0942 78.9722 38.4029 79.2751C39.211 80.0717 39.8844 80.2568 40.6756 80.6159C40.8327 80.6888 41.001 80.7281 41.175 80.7225C41.955 80.7056 42.7799 80.9412 43.6385 81.4237" stroke="#8E94A0" stroke-miterlimit="10"/>
<path d="M62.2075 81.4632C61.6351 79.7129 61.6463 78.0075 62.2467 76.3414C62.3197 76.1395 62.4263 75.9544 62.561 75.7861C64.4409 73.4636 65.8606 70.8718 66.8202 68.0052C67.342 66.4513 68.7449 66.5747 69.5866 65.5144C70.9727 63.7698 71.5114 61.1443 71.5619 58.9228C71.5956 57.6887 70.1422 56.7406 69.5025 58.3226C69.2724 58.8892 69.076 59.3099 68.9132 59.5848C68.6664 60 68.0266 59.8316 68.0154 59.3492C67.9874 58.0758 67.9256 57.2287 67.8358 56.7967C67.6843 56.073 66.9549 55.6691 66.764 55.1082C66.7079 54.9455 66.6742 54.7828 66.6574 54.6201L66.562 53.5767C66.5452 53.3915 66.4274 53.2345 66.259 53.1671L63.3466 51.9274C63.268 51.8937 63.2007 51.8376 63.1559 51.7591L62.5105 50.6483C62.3702 50.4071 62.056 50.3454 61.8371 50.5137C59.2333 52.5388 57.7799 51.933 56.2592 49.2234C56.1414 49.0102 55.8832 48.9205 55.6532 49.0102C54.6206 49.431 53.3356 49.8685 52.4602 49.0215C51.5904 48.1856 51.3435 47.1309 51.7139 45.8687C51.8037 45.5546 51.5736 45.246 51.2481 45.2404C50.2212 45.2348 49.4019 44.7748 48.7903 43.8716C48.678 43.7089 48.476 43.6304 48.2852 43.6865C46.0462 44.2924 44.0261 45.4199 42.2135 47.0692C40.603 48.539 42.0508 51.4225 38.7288 51.7198C38.4481 51.7479 38.2686 52.0283 38.3584 52.292C38.7792 53.5205 38.6558 54.5304 37.9992 55.3101C36.8937 56.6172 37.1463 57.5092 37.3595 59.1248C37.4156 59.5456 36.9611 59.8429 36.5907 59.6297C35.9791 59.2763 35.0588 59.2819 33.8299 59.6465C33.6335 59.7082 33.4988 59.899 33.51 60.1065C33.6222 62.1261 34.5762 65.5201 36.4561 66.3335C36.5739 66.3839 36.6974 66.4232 36.8264 66.4457C37.3427 66.5466 37.6906 66.6476 37.8646 66.7486C38.0329 66.844 38.162 67.001 38.2293 67.1918C39.4022 70.6306 41.1024 73.5141 43.3358 75.8422C43.6501 76.1787 43.824 76.6219 43.8072 77.0764L43.6389 81.424M68.8628 91.0729C68.8067 93.7881 67.9481 95.8357 66.2871 97.2101C65.1872 98.1245 63.0884 99.0052 59.9909 99.8636C54.6768 101.328 49.256 101.092 43.7286 99.1455C41.5569 98.3769 39.8679 97.4008 38.6502 96.2172C38.6221 96.1947 38.5997 96.1667 38.5829 96.1386L35.345 91.5273M75.6022 93.4122C75.0242 96.234 75.0355 99.0445 75.6247 101.849M30.418 101.793C30.7042 98.9491 30.6144 96.1049 30.1543 93.2495" stroke="#4E3B3E" stroke-miterlimit="10"/>
<path d="M62.2071 81.4629C61.6347 79.7127 61.6459 78.0073 62.2463 76.3411C62.3193 76.1392 62.426 75.9541 62.5606 75.7858C64.4405 73.4633 65.8602 70.8715 66.8198 68.0049C67.3417 66.451 68.7445 66.5744 69.5863 65.5142C70.9723 63.7695 71.511 61.1441 71.5615 58.9226C71.5952 57.6884 70.1418 56.7403 69.5021 58.3223C69.272 58.8889 69.0756 59.3096 68.9129 59.5845C68.666 59.9997 68.0263 59.8313 68.0151 59.3489C67.987 58.0755 67.9253 57.2284 67.8355 56.7964C67.6839 56.0728 66.9545 55.6688 66.7637 55.1079C66.7076 54.9452 66.6739 54.7825 66.657 54.6198L66.5617 53.5764C66.5448 53.3912 66.427 53.2342 66.2586 53.1669L63.3462 51.9271C63.2677 51.8934 63.2003 51.8373 63.1555 51.7588L62.5101 50.648C62.3698 50.4068 62.0556 50.3451 61.8367 50.5134C59.2329 52.5386 57.7796 51.9327 56.2589 49.2231C56.141 49.0099 55.8829 48.9202 55.6528 49.0099C54.6203 49.4307 53.3352 49.8683 52.4598 49.0212C51.59 48.1853 51.3431 47.1306 51.7135 45.8684C51.8033 45.5543 51.5732 45.2457 51.2478 45.2401C50.2208 45.2345 49.4015 44.7745 48.7899 43.8713C48.6776 43.7086 48.4756 43.6301 48.2848 43.6862C46.0458 44.2921 44.0257 45.4196 42.2131 47.0689C40.6026 48.5387 42.0504 51.4222 38.7284 51.7195C38.4478 51.7476 38.2682 52.028 38.358 52.2917C38.7789 53.5203 38.6554 54.5301 37.9989 55.3098C36.8934 56.6169 37.1459 57.5089 37.3592 59.1245C37.4152 59.5453 36.9607 59.8426 36.5904 59.6294C35.9787 59.276 35.0584 59.2816 33.8295 59.6462C33.6331 59.7079 33.4984 59.8987 33.5097 60.1062C33.6219 62.1258 34.5758 65.5198 36.4557 66.3332C36.5735 66.3837 36.697 66.4229 36.8261 66.4454C37.3423 66.5463 37.6902 66.6473 37.8642 66.7483C38.0326 66.8437 38.1616 67.0007 38.229 67.1915C39.4018 70.6303 41.102 73.5138 43.3355 75.8419C43.6497 76.1785 43.8236 76.6217 43.8068 77.0761L43.6385 81.4237C42.7799 80.9412 41.955 80.7056 41.175 80.7225C41.001 80.7281 40.8327 80.6888 40.6756 80.6159C39.8844 80.2568 39.211 80.0717 38.4029 79.2751C38.0942 78.9722 37.7127 78.9834 37.2469 79.3088C35.5522 80.5037 34.2223 80.4476 33.2515 79.1405C32.8587 78.6132 32.4491 78.1307 32.0226 77.6987C31.4446 77.1097 31.265 76.3243 31.4726 75.3314C31.5175 75.1182 31.3604 74.9106 31.1416 74.8938C30.0473 74.8097 29.7555 74.0243 29.301 73.1996C29.2168 73.0481 29.0484 72.964 28.8745 72.9921C25.7657 73.4745 24.8566 72.246 25.7769 69.3737C25.8331 69.1942 25.732 68.9979 25.5469 68.9474C24.4414 68.6388 23.8128 67.932 23.6614 66.8269C23.6333 66.6305 23.465 66.479 23.2629 66.479C21.6019 66.4734 20.777 65.6207 20.7882 63.9322C20.7939 63.0177 20.7714 62.4848 20.7209 62.3221C20.6311 62.036 20.6704 61.7275 20.8219 61.4694L21.2821 60.7065C21.3663 60.5662 21.3101 60.3811 21.1642 60.3138C19.3797 59.4835 18.7344 57.6435 20.2327 56.1962C20.7209 55.7249 20.9847 55.4613 21.0183 55.3996C21.1137 55.2425 21.0969 55.0405 20.9791 54.9003C19.9577 53.7054 18.2687 53.1108 19.4415 51.1136C19.5986 50.8444 19.5986 50.5078 19.4359 50.2385C18.5717 48.808 18.9925 47.658 20.6985 46.7828C20.9117 46.6762 20.9678 46.4013 20.8219 46.2162C19.9297 45.0999 18.9757 43.5067 20.7153 42.581C20.878 42.4969 21.0295 42.4128 21.1642 42.3286C21.3606 42.2108 21.4673 41.992 21.4448 41.7676L21.2933 40.483C21.2821 40.382 21.2933 40.281 21.3269 40.1913C21.6412 39.3217 22.9207 38.8898 23.8746 38.6822C24.1047 38.6317 24.2225 38.3793 24.1215 38.1661C23.4257 36.7075 23.5323 35.6473 24.447 34.9853C24.6265 34.8507 24.6715 34.6038 24.5536 34.4187C23.7568 33.1789 23.9532 32.2421 25.1428 31.6026C25.3897 31.4735 25.5469 31.2155 25.5524 30.935C25.5973 29.2127 26.6355 28.3769 28.6668 28.4386C28.9642 28.4498 29.2 28.1862 29.1663 27.8888L29.026 26.6939C29.0092 26.5144 29.0372 26.3349 29.1102 26.1722C29.6545 24.9998 30.5804 24.6632 31.8879 25.1568C32.1628 25.2578 32.4603 25.1007 32.5276 24.8146C32.9653 22.8344 34.2223 22.2565 36.2986 23.0812C36.6465 23.2158 37.0337 22.9746 37.0561 22.6044C37.1403 21.3814 37.853 19.5919 39.5757 20.3772C39.7216 20.4445 39.8956 20.4333 40.0302 20.3492C40.092 20.3155 40.2211 20.1809 40.4174 19.9509C40.9954 19.2777 41.9382 19.3114 42.7238 19.6592C42.8753 19.7265 43.0549 19.6536 43.1222 19.5021C43.2513 19.2104 43.3298 18.6943 43.5038 18.425C44.5083 16.815 45.9336 16.5682 47.7798 17.6901C47.9482 17.7967 48.167 17.7799 48.3241 17.6565C49.727 16.5625 50.9447 16.8543 51.9716 18.5316C52.1063 18.756 52.415 18.8009 52.6057 18.6214C53.7841 17.5162 54.9738 17.3423 56.1691 18.0996C56.4945 18.3072 56.82 18.3857 57.1455 18.3353C58.5147 18.1277 58.7616 18.6887 59.7324 19.3731C59.8951 19.4853 60.1028 19.4965 60.2767 19.4011C61.1689 18.9018 61.9938 18.6438 62.7458 18.627C62.9422 18.6214 63.1442 18.6662 63.3238 18.756C64.8333 19.4797 65.7087 20.5175 65.9388 21.8639C65.9668 22.0321 66.1352 22.1331 66.2979 22.0826C66.3484 22.0658 66.6402 21.8526 67.1621 21.4487C68.6772 20.2819 70.5178 20.3268 71.4493 22.0658C72.1676 23.4009 73.4358 23.227 74.0306 24.9605C74.1148 25.2073 74.3056 25.3981 74.5469 25.4878C76.1406 26.0544 76.8139 27.2269 76.5671 28.9996C76.5334 29.2408 76.7298 29.454 76.9767 29.4372C79.0642 29.2969 80.2089 30.144 80.4166 31.9784C80.4446 32.2252 80.5737 32.4496 80.7757 32.5955C81.6792 33.2519 81.898 34.1831 81.4323 35.3892C81.3705 35.5519 81.4884 35.7258 81.6567 35.7258C84.1707 35.737 84.715 38.9851 83.3907 40.5951C83.2616 40.7522 83.2673 40.9766 83.4019 41.1281C84.1707 42.0201 84.2493 43.0523 83.6376 44.236C83.5422 44.4211 83.6488 44.6511 83.8565 44.696C85.467 45.0662 86.5051 46.1265 86.2357 47.9609C86.1684 48.4321 86.2582 49.0829 86.5107 49.9075C86.5949 50.1824 86.5837 50.4797 86.477 50.7434C85.944 52.1066 85.1808 53.049 84.1875 53.582C83.9967 53.6829 83.935 53.9298 84.0585 54.1093C84.8497 55.2818 84.9956 56.2859 84.4962 57.133C84.3559 57.3742 84.3895 57.6828 84.586 57.8791C86.2638 59.5901 85.8317 61.1833 83.3009 62.6531C82.9698 62.8438 82.8239 63.2477 82.953 63.6068C83.7835 65.9573 82.3133 67.6627 80.1809 68.6164C80.0182 68.6893 79.934 68.8688 79.9845 69.0371C80.2651 69.9964 80.0855 71.1576 79.1259 71.8252C77.9699 72.6218 77.4649 73.5025 76.163 74.0243C75.5794 74.2599 75.1024 74.6189 74.7377 75.1014C74.1092 75.9204 73.548 76.0046 72.4874 76.1953C72.2237 76.2402 71.988 76.386 71.8197 76.5992C71.0733 77.5697 69.9734 78.2205 68.5201 78.5458C68.3293 78.5907 68.1666 78.7085 68.0599 78.8768C67.2126 80.2625 65.9556 80.8627 64.289 80.6832C64.1487 80.6664 64.0084 80.6888 63.8793 80.7449L62.2071 81.4629Z" fill="#1C2941"/>
<path d="M62.2069 81.4632C62.1227 82.933 62.2574 84.5543 62.6109 86.3214C62.8635 87.5836 63.5088 88.5092 64.5413 89.0983C66.0227 89.9454 67.4649 90.6073 68.8622 91.0729C68.8061 93.7881 67.9475 95.8357 66.2865 97.2101C65.1866 98.1245 63.0879 99.0052 59.9903 99.8636C54.6762 101.328 49.2554 101.092 43.728 99.1455C41.5564 98.3769 39.8673 97.4008 38.6496 96.2172C38.6216 96.1947 38.5991 96.1667 38.5823 96.1386L35.3444 91.5273C36.2478 91.2356 37.3982 90.8373 38.8067 90.3268C40.7315 89.6312 42.443 88.6607 43.0266 86.6804C43.5429 84.9302 43.7449 83.1798 43.6383 81.424L43.8066 77.0763C43.8234 76.6219 43.6495 76.1787 43.3352 75.8422C41.1018 73.5141 39.4016 70.6306 38.2287 67.1918C38.1614 67.001 38.0323 66.8439 37.864 66.7486C37.69 66.6476 37.3421 66.5466 36.8258 66.4457C36.6968 66.4232 36.5733 66.3839 36.4555 66.3334C34.5756 65.52 33.6216 62.1261 33.5094 60.1065C33.4982 59.899 33.6329 59.7082 33.8293 59.6465C35.0582 59.2819 35.9785 59.2763 36.5901 59.6297C36.9605 59.8429 37.415 59.5456 37.3589 59.1248C37.1457 57.5092 36.8932 56.6172 37.9987 55.3101C38.6552 54.5303 38.7787 53.5205 38.3578 52.292C38.268 52.0283 38.4476 51.7478 38.7282 51.7198C42.0502 51.4225 40.6024 48.539 42.2129 47.0692C44.0255 45.4199 46.0456 44.2924 48.2846 43.6865C48.4754 43.6304 48.6774 43.7089 48.7897 43.8716C49.4013 44.7748 50.2206 45.2348 51.2475 45.2404C51.573 45.246 51.8031 45.5546 51.7133 45.8687C51.3429 47.1309 51.5898 48.1856 52.4596 49.0214C53.335 49.8685 54.6201 49.4309 55.6526 49.0102C55.8827 48.9205 56.1408 49.0102 56.2586 49.2234C57.7794 51.933 59.2327 52.5388 61.8365 50.5137C62.0554 50.3454 62.3696 50.4071 62.5099 50.6483L63.1553 51.7591C63.2001 51.8376 63.2675 51.8937 63.346 51.9274L66.2584 53.1671C66.4268 53.2345 66.5446 53.3915 66.5615 53.5766L66.6568 54.6201C66.6736 54.7828 66.7074 54.9455 66.7635 55.1081C66.9543 55.6691 67.6837 56.073 67.8352 56.7967C67.9251 57.2287 67.9868 58.0757 68.0149 59.3492C68.0261 59.8316 68.6658 59.9999 68.9127 59.5848C69.0754 59.3099 69.2718 58.8892 69.5019 58.3226C70.1416 56.7406 71.595 57.6887 71.5613 58.9228C71.5108 61.1443 70.9721 63.7698 69.586 65.5144C68.7443 66.5747 67.3415 66.4513 66.8196 68.0052C65.86 70.8718 64.4403 73.4636 62.5604 75.7861C62.4257 75.9544 62.3191 76.1395 62.2461 76.3414C61.6457 78.0075 61.6345 79.7129 62.2069 81.4632Z" fill="#804C3B"/>
<path d="M68.8628 91.0732L75.6022 93.4125C75.0242 96.2343 75.0355 99.0448 75.6247 101.85C65.8662 105.12 55.6083 106.175 44.8453 105.008C39.5312 104.43 34.7221 103.359 30.418 101.794C30.7042 98.9494 30.6144 96.1052 30.1543 93.2498L35.345 91.5276L38.5829 96.1389C38.5997 96.167 38.6221 96.195 38.6502 96.2175C39.8679 97.4011 41.5569 98.3772 43.7286 99.1458C49.256 101.092 54.6768 101.328 59.9909 99.8639C63.0884 99.0055 65.1872 98.1248 66.2871 97.2104C67.9481 95.836 68.8067 93.7884 68.8628 91.0732Z" fill="#B5B70F"/>
<path d="M30.1543 93.2495C30.6144 96.105 30.7042 98.9492 30.418 101.793L23.7628 98.837C23.4766 98.708 23.3643 98.3657 23.5158 98.0965C24.9412 95.5776 27.1521 93.962 30.1543 93.2495Z" fill="#804C3B"/>
<path d="M75.6248 101.849C75.0356 99.0444 75.0243 96.2339 75.6023 93.4121C78.4474 94.1358 80.6022 95.7514 82.0669 98.2591C82.2464 98.5676 82.1174 98.9603 81.7919 99.1061L75.6248 101.849Z" fill="#804C3B"/>
</g>
</svg>
