<svg width="106" height="106" viewBox="0 0 106 106" fill="none" xmlns="http://www.w3.org/2000/svg">
<mask id="mask0_5177_3809" style="mask-type:alpha" maskUnits="userSpaceOnUse" x="0" y="0" width="106" height="106">
<circle cx="53" cy="53" r="53" fill="#D9D9D9"/>
</mask>
<g mask="url(#mask0_5177_3809)">
<circle cx="53" cy="53" r="55" fill="white"/>
<path d="M32.8442 48.2842C31.0903 48.8279 30.2714 50.0925 30.3998 52.0902C30.6259 55.6763 31.5791 58.7308 33.2658 61.254C33.7241 61.932 34.5002 62.4514 35.6063 62.8118C35.7897 62.8729 35.9302 63.0195 35.9791 63.2089C36.5535 65.4387 36.8958 66.7095 37.0058 67.021C37.8247 69.3731 38.9735 71.4501 40.4524 73.2524" stroke="#C0A69D" stroke-miterlimit="10"/>
<path d="M40.4518 73.2524L40.3418 82.514" stroke="#AA9996" stroke-miterlimit="10"/>
<path d="M40.3417 82.5137C40.3111 84.0654 39.9628 85.2078 39.3089 85.9348C38.6672 86.6496 37.4022 87.3644 35.5078 88.0791" stroke="#C0A69D" stroke-miterlimit="10"/>
<path d="M35.5079 88.0796C31.0713 89.6252 26.6836 91.1464 22.3509 92.6431C19.2281 93.7244 17.4437 95.9543 17.0037 99.3388C16.9793 99.5282 17.077 99.7115 17.2542 99.7909C19.3015 100.738 21.3914 101.477 23.5242 102.021C42.8167 106.914 63.2336 106.755 82.6055 102.18C83.8766 101.88 87.1643 100.805 88.5393 100.041C88.741 99.9314 88.8387 99.6992 88.7838 99.4793C88.3987 97.9642 87.7816 96.5713 86.926 95.2945C86.0888 94.0482 84.7994 93.1257 83.0455 92.5209C78.4928 90.9631 73.9768 89.3992 69.4852 87.8291" stroke="#8E94A0" stroke-miterlimit="10"/>
<path d="M69.4848 87.8292C67.2909 86.5096 66.0993 85.8803 65.7815 83.2534C65.4576 80.5714 65.3476 77.3702 65.4393 73.662C65.4515 73.2221 65.5982 72.8005 65.8549 72.4523C67.7554 69.9048 68.9592 66.8197 69.4603 63.1848C69.4848 62.977 69.6131 62.7937 69.7965 62.696C69.882 62.6471 70.0287 62.5921 70.2364 62.531C74.062 61.413 75.4369 54.4242 75.2291 51.1252C75.1375 49.7385 74.2819 48.7671 72.6564 48.2173" stroke="#C0A69D" stroke-miterlimit="10"/>
<path d="M72.6567 48.2169C73.7872 43.9466 74.3861 40.9164 74.4411 39.1142C75.0461 20.3346 55.8942 13.7367 41.0627 20.7134C30.2462 25.7962 29.7451 38.4055 32.8434 48.2841" stroke="#8E94A0" stroke-miterlimit="10"/>
<path d="M72.6561 48.2167C72.1244 48.8337 71.495 50.8925 70.7555 54.3992C70.725 54.558 70.5845 54.668 70.4256 54.668H70.2483C70.0039 54.668 69.8145 54.448 69.845 54.2037C70.56 48.7849 70.0589 43.7387 68.3417 39.0774C67.6023 37.0552 67.2662 35.6196 65.8545 34.3733C65.3534 33.9334 64.669 33.7502 64.0151 33.8907L48.707 37.1285C48.5603 37.1591 48.432 37.2324 48.3342 37.3423C47.8759 37.88 47.5398 38.6253 47.3198 39.5783C47.2526 39.8838 46.837 39.9204 46.7026 39.6394L45.3765 36.7742C45.3704 36.7559 45.3581 36.7375 45.3459 36.7254L44.0749 35.0881C43.9648 34.9476 43.8243 34.8376 43.6654 34.7643C41.0804 33.5974 39.2227 34.3184 38.0983 36.9269C36.2283 41.2767 34.9388 46.3351 35.2444 51.088C35.2811 51.6928 35.3666 52.7986 35.5011 54.3931C35.5072 54.5091 35.4277 54.613 35.3177 54.6374L35.1038 54.6802C35.055 54.6924 35.0061 54.6619 34.9939 54.6191L32.8428 48.2839M69.4845 87.8286C68.7145 89.8385 67.315 91.4025 65.2801 92.5265C57.7757 96.6808 47.3809 96.6624 39.956 92.3127C38.1838 91.268 36.6988 89.8568 35.5072 88.0791" stroke="#4E3B3E" stroke-miterlimit="10"/>
<path d="M40.3418 82.5136C43.6417 83.7904 46.8989 84.3708 50.1194 84.2425C53.7066 84.102 56.9454 82.7885 59.8237 80.2959C61.9075 78.4938 63.5331 76.9787 64.7003 75.7568C65.0791 75.3598 65.293 74.8343 65.293 74.2846V73.1299C65.293 72.7206 64.7736 72.5434 64.5231 72.8672C61.9198 76.2334 59.0659 78.1028 55.9554 78.4693C52.8815 78.8297 50.1255 78.5609 47.6933 77.6507C47.1005 77.4246 45.8967 76.6855 44.0939 75.4209C42.939 74.6083 41.7289 73.8874 40.4518 73.2521" stroke="#6A3F34" stroke-miterlimit="10"/>
<path d="M72.6567 48.2169C72.125 48.8339 71.4956 50.8927 70.7561 54.3994C70.7256 54.5582 70.5851 54.6682 70.4262 54.6682H70.249C70.0045 54.6682 69.8151 54.4482 69.8456 54.2039C70.5606 48.785 70.0596 43.7389 68.3423 39.0775C67.6029 37.0554 67.2668 35.6198 65.8551 34.3734C65.354 33.9336 64.6696 33.7503 64.0157 33.8909L48.7076 37.1287C48.561 37.1593 48.4326 37.2326 48.3348 37.3425C47.8765 37.8801 47.5404 38.6255 47.3204 39.5785C47.2532 39.884 46.8376 39.9206 46.7032 39.6396L45.3771 36.7743C45.371 36.7561 45.3587 36.7377 45.3466 36.7255L44.0755 35.0882C43.9655 34.9478 43.8249 34.8377 43.666 34.7644C41.0811 33.5976 39.2233 34.3185 38.0989 36.9271C36.2289 41.2769 34.9395 46.3352 35.245 51.0881C35.2817 51.693 35.3673 52.7988 35.5017 54.3932C35.5078 54.5093 35.4283 54.6131 35.3183 54.6376L35.1045 54.6804C35.0556 54.6926 35.0067 54.662 34.9945 54.6193L32.8434 48.2841C29.7451 38.4055 30.2462 25.7962 41.0627 20.7134C55.8942 13.7367 75.0461 20.3346 74.4411 39.1142C74.3861 40.9164 73.7872 43.9466 72.6567 48.2169Z" fill="#1C2941"/>
<path d="M72.6574 48.2167C74.283 48.7665 75.1385 49.7379 75.2302 51.1246C75.438 54.4236 74.063 61.4125 70.2375 62.5305C70.0297 62.5916 69.8831 62.6466 69.7975 62.6954C69.6141 62.7932 69.4858 62.9765 69.4614 63.1842C68.9602 66.8191 67.7564 69.9043 65.8559 72.4518C65.5992 72.8 65.4526 73.2215 65.4404 73.6614C65.3487 77.3697 65.4587 80.5709 65.7826 83.2528C66.1003 85.8798 67.292 86.509 69.4858 87.8286C68.7159 89.8385 67.3164 91.4025 65.2815 92.5265C57.7771 96.6808 47.3823 96.6624 39.9574 92.3127C38.1852 91.268 36.7002 89.8568 35.5086 88.0791C37.4029 87.3643 38.668 86.6495 39.3096 85.9347C39.9635 85.2077 40.3118 84.0654 40.3424 82.5136C43.6423 83.7904 46.8995 84.3708 50.12 84.2425C53.7072 84.102 56.946 82.7885 59.8243 80.2959C61.9082 78.4938 63.5337 76.9787 64.7009 75.7568C65.0798 75.3598 65.2936 74.8343 65.2936 74.2846V73.1299C65.2936 72.7206 64.7743 72.5434 64.5237 72.8672C61.9204 76.2334 59.0665 78.1028 55.956 78.4693C52.8822 78.8298 50.1261 78.561 47.6939 77.6507C47.1012 77.4247 45.8973 76.6855 44.0945 75.4209C42.9396 74.6083 41.7296 73.8874 40.4524 73.2521C38.9735 71.4499 37.8247 69.3728 37.0058 67.0207C36.8958 66.7092 36.5535 65.4384 35.9791 63.2086C35.9302 63.0192 35.7897 62.8726 35.6063 62.8115C34.5003 62.4511 33.7241 61.9317 33.2658 61.2537C31.5791 58.7305 30.6259 55.676 30.3998 52.0899C30.2714 50.0922 31.0903 48.8276 32.8442 48.2839L34.9952 54.6191C35.0074 54.6619 35.0564 54.6924 35.1052 54.6802L35.3191 54.6374C35.4291 54.613 35.5086 54.5091 35.5024 54.3931C35.368 52.7986 35.2824 51.6928 35.2458 51.088C34.9402 46.3351 36.2297 41.2767 38.0997 36.9269C39.224 34.3184 41.0818 33.5974 43.6668 34.7643C43.8257 34.8376 43.9662 34.9476 44.0762 35.0881L45.3473 36.7254C45.3595 36.7375 45.3717 36.7559 45.3779 36.7742L46.7039 39.6394C46.8384 39.9204 47.2539 39.8838 47.3211 39.5783C47.5411 38.6253 47.8772 37.88 48.3356 37.3423C48.4334 37.2324 48.5617 37.1591 48.7084 37.1285L64.0165 33.8907C64.6704 33.7502 65.3548 33.9334 65.8559 34.3733C67.2676 35.6196 67.6036 37.0552 68.3431 39.0774C70.0603 43.7387 70.5614 48.7849 69.8464 54.2037C69.8158 54.448 70.0053 54.668 70.2497 54.668H70.4269C70.5859 54.668 70.7264 54.558 70.7569 54.3992C71.4963 50.8925 72.1258 48.8337 72.6574 48.2167Z" fill="#F9BA96"/>
<path d="M40.3418 82.5136L40.4518 73.2521C41.7289 73.8874 42.939 74.6083 44.0939 75.4209C45.8967 76.6855 47.1005 77.4246 47.6933 77.6507C50.1255 78.5609 52.8815 78.8297 55.9554 78.4693C59.0659 78.1028 61.9198 76.2334 64.5231 72.8672C64.7736 72.5434 65.293 72.7206 65.293 73.1299V74.2846C65.293 74.8343 65.0791 75.3598 64.7003 75.7568C63.5331 76.9787 61.9075 78.4938 59.8237 80.2959C56.9454 82.7885 53.7066 84.102 50.1194 84.2425C46.8989 84.3708 43.6417 83.7904 40.3418 82.5136Z" fill="#EC9C74"/>
<path d="M69.4852 87.8291C73.9768 89.3992 78.4928 90.9631 83.0455 92.5209C84.7994 93.1257 86.0888 94.0482 86.926 95.2945C87.7816 96.5713 88.3987 97.9642 88.7838 99.4793C88.8387 99.6992 88.741 99.9314 88.5393 100.041C87.1643 100.805 83.8766 101.88 82.6055 102.18C63.2336 106.755 42.8167 106.914 23.5242 102.021C21.3914 101.477 19.3015 100.738 17.2542 99.7909C17.077 99.7115 16.9793 99.5282 17.0037 99.3388C17.4437 95.9543 19.2281 93.7244 22.3509 92.6431C26.6836 91.1464 31.0713 89.6252 35.5079 88.0796C36.6995 89.8573 38.1845 91.2685 39.9567 92.3132C47.3816 96.6629 57.7764 96.6813 65.2808 92.527C67.3157 91.403 68.7152 89.8391 69.4852 87.8291Z" fill="#179DAC"/>
</g>
</svg>
