<svg width="106" height="106" viewBox="0 0 106 106" fill="none" xmlns="http://www.w3.org/2000/svg">
<mask id="mask0_5177_3978" style="mask-type:alpha" maskUnits="userSpaceOnUse" x="0" y="0" width="106" height="106">
<circle cx="53" cy="53" r="53" fill="#D9D9D9"/>
</mask>
<g mask="url(#mask0_5177_3978)">
<circle cx="53" cy="53" r="55" fill="white"/>
<path d="M39.2866 72.0747C39.582 73.4854 39.5579 74.9323 39.2142 76.4093C39.1599 76.6264 39.2805 76.8494 39.4855 76.9278C39.7931 77.0424 40.1247 77.1087 40.4745 77.1147C40.9449 77.1268 41.3067 77.5307 41.2585 77.9949L40.8665 82.0704" stroke="#F6CEBA" stroke-miterlimit="10"/>
<path d="M40.8655 82.0708L40.0635 85.4227" stroke="#FCDDCB" stroke-miterlimit="10"/>
<path d="M40.0641 85.4227C39.2318 82.0648 36.5603 84.9525 36.0417 86.321C35.8849 86.731 35.5532 87.0445 35.1371 87.171C29.0764 89.0158 25.9707 89.9624 25.8139 90.0106C22.5816 91.0234 20.0789 91.5539 18.722 94.5141C17.8777 96.3649 17.3048 98.1795 17.0093 99.958C16.955 100.302 17.142 100.645 17.4677 100.778C19.4155 101.58 21.6528 102.279 24.1857 102.876C32.6224 104.859 41.1496 105.89 49.7732 105.975" stroke="#8E94A0" stroke-miterlimit="10"/>
<path d="M49.7734 105.975L56.4251 106.011" stroke="#FCDDCB" stroke-miterlimit="10"/>
<path d="M56.4248 106.011C64.8736 105.812 73.0932 104.841 81.0957 103.087C83.8035 102.49 86.2881 101.73 88.5435 100.808C88.7606 100.718 88.8872 100.488 88.851 100.259C88.5013 98.0046 87.8077 95.8825 86.7645 93.8931C85.6729 91.8131 83.1884 90.8304 81.0957 90.1793C77.4412 89.0339 74.0461 87.9909 70.9162 87.0504C70.3554 86.8756 69.891 86.4717 69.6559 85.9291C68.8779 84.1506 67.8406 83.4272 66.538 83.7467" stroke="#8E94A0" stroke-miterlimit="10"/>
<path d="M66.5388 83.747C65.6945 82.2398 65.2302 80.6 65.1518 78.8336C65.1458 78.5804 65.2061 78.3332 65.3387 78.1161C65.5438 77.7846 65.8574 77.453 66.2735 77.1335C66.4483 77.0009 66.569 76.8079 66.6052 76.5849C66.6956 75.994 66.563 75.4213 66.2071 74.8667" stroke="#FCDDCB" stroke-miterlimit="10"/>
<path d="M66.2073 74.8659C66.2676 74.6187 66.2434 74.3836 66.1289 74.1484" stroke="#F6CEBA" stroke-miterlimit="10"/>
<path d="M66.129 74.1486C65.8576 72.7198 66.0506 72.2194 66.6958 72.6595" stroke="#FCDDCB" stroke-miterlimit="10"/>
<path d="M66.696 72.6598L67.9746 75.6319C68.1796 76.1143 68.7284 76.3614 69.2228 76.1866L73.0583 74.8362C73.4985 74.6795 73.6312 74.1188 73.2995 73.7872L71.8039 72.2921C71.6954 72.1836 71.6833 72.0147 71.7738 71.8942C71.8703 71.7736 72.0331 71.7374 72.1657 71.8158L74.3307 73.0638C74.771 73.317 75.3137 73.2989 75.7358 73.0095L80.8015 69.5249C81.0488 69.3561 81.1693 69.0487 81.109 68.7593L78.8235 57.9558C78.7813 57.7629 78.7089 57.576 78.6064 57.4072L77.7802 56.0748C77.6415 55.8518 77.6235 55.5684 77.738 55.3212C81.3322 47.5442 76.8756 38.9352 73.6855 31.556C71.9306 27.5108 69.6329 23.9598 65.7553 21.9824C59.785 18.9319 52.7414 18.0276 46.4154 20.1798C46.1801 20.2582 45.9389 20.3125 45.6917 20.3426C39.1124 21.054 34.3543 25.1174 31.8335 31.0858C30.3198 34.6608 28.975 37.9284 27.8051 40.8825C26.5809 43.9571 25.7004 49.9376 27.3347 53.6694C27.5699 54.2119 27.7448 54.6581 27.8533 55.0017C27.9196 55.2127 27.8835 55.4418 27.7508 55.6166C27.1538 56.3943 26.8342 56.943 26.7799 57.2685C26.0803 61.3982 25.2481 65.2083 24.2893 68.6929C24.2109 68.9763 24.3315 69.2717 24.5848 69.4164L30.3078 72.7201C30.947 73.0879 31.7491 72.9794 32.2737 72.4609L33.9623 70.7668C34.1553 70.5739 34.4749 70.7668 34.4025 71.0261C34.1191 72.063 33.5341 73.0517 32.6355 73.9922C32.4064 74.2394 32.4969 74.6433 32.8105 74.7578C34.3844 75.3486 37.2308 77.0849 38.1655 74.5167C38.2922 74.173 38.6661 73.3592 39.2873 72.0751" stroke="#FCD19D" stroke-miterlimit="10"/>
<path d="M66.6957 72.6596L69.1622 64.768C69.3009 64.3279 69.6568 63.9963 70.103 63.8818C71.689 63.4899 72.8348 62.4289 73.5283 60.7047C74.3666 58.6127 74.9456 56.9005 75.2651 55.5742C75.8079 53.3014 75.5486 51.9027 74.4751 50.1182C73.8118 49.0029 72.2318 49.437 71.9061 50.6488C71.4839 52.2102 71.0558 53.6571 70.6276 54.9834C70.6156 55.0196 70.5734 55.0437 70.5372 55.0377L70.3865 55.0256C70.2055 55.0075 70.0729 54.8508 70.0849 54.6699C70.2236 52.2645 70.0487 49.9012 69.5723 47.5922C69.4999 47.2365 69.114 47.0496 68.7883 47.2003C62.5527 50.1002 54.5925 47.6525 48.4835 44.5959C44.841 42.7753 42.1816 39.3148 40.3724 35.9447C40.2639 35.7458 39.9684 35.7639 39.89 35.9809C39.2929 37.5785 38.6356 39.6041 38.4607 41.666C38.2738 43.8303 37.5984 46.3081 36.4345 49.0994C35.8013 50.6126 35.747 52.5056 36.2656 54.7784C36.2837 54.8628 36.2355 54.9472 36.1511 54.9653L35.9942 55.0075C35.8676 55.0377 35.747 54.9653 35.7108 54.8387L34.4685 50.0278C34.2936 49.3345 33.5519 48.9426 32.8765 49.1898C31.6945 49.6239 31.0673 50.6608 30.9889 52.3006C30.8322 55.6043 32.0261 63.3935 36.3319 63.8155C36.7963 63.8637 37.1763 64.2134 37.2607 64.6776C37.6587 66.9323 38.3763 69.0786 39.4135 71.1102" stroke="#F9AF69" stroke-miterlimit="10"/>
<path d="M39.4127 71.1108L39.2861 72.0755" stroke="#F3A058" stroke-miterlimit="10"/>
<path d="M66.2058 74.8668C66.5074 76.3016 65.9224 77.1577 64.4449 77.441C64.2942 77.4712 64.1615 77.5435 64.053 77.652L61.2668 80.4312C61.1884 80.5096 61.104 80.5699 61.0135 80.6242C57.2505 82.686 55.0674 83.8254 54.4644 84.0364C51.1657 85.2241 47.8669 85.1819 44.5562 83.9098C43.2657 83.4095 42.0355 82.8006 40.8655 82.0711M66.1275 74.1493C65.9224 73.866 65.7053 73.6911 65.4822 73.6188C65.247 73.5404 65.0058 73.6309 64.7585 73.8841C62.6961 75.976 60.501 77.6339 58.1792 78.8517C52.2994 81.9264 47.7463 78.6467 43.0727 75.2043C42.6143 74.8668 42.2043 74.4689 41.8425 74.0348L39.4121 71.1108" stroke="#F3AB85" stroke-miterlimit="10"/>
<path d="M66.5376 83.7466C64.252 87.828 61.7132 91.7648 58.921 95.5508C58.318 96.3647 57.9259 97.275 57.745 98.2698C57.2867 100.808 56.8465 103.388 56.4243 106.011M49.7727 105.974L48.1143 97.8779C47.9333 97.0097 47.5534 96.1959 47.0047 95.5086C44.502 92.3918 42.1923 89.0277 40.0635 85.4226" stroke="#8B726C" stroke-miterlimit="10"/>
<path d="M66.696 72.6599L69.1625 64.7682C69.3012 64.3281 69.6571 63.9966 70.1033 63.882C71.6894 63.4902 72.8352 62.4291 73.5287 60.7049C74.3669 58.6129 74.9459 56.9008 75.2654 55.5745C75.8082 53.3016 75.5489 51.903 74.4754 50.1185C73.8121 49.0032 72.2321 49.4372 71.9064 50.649C71.4843 52.2104 71.0561 53.6573 70.628 54.9836C70.6159 55.0198 70.5737 55.0439 70.5375 55.0379L70.3868 55.0258C70.2058 55.0077 70.0732 54.851 70.0852 54.6701C70.2239 52.2647 70.0491 49.9014 69.5726 47.5924C69.5003 47.2367 69.1143 47.0498 68.7887 47.2005C62.5531 50.1004 54.5928 47.6527 48.4838 44.5962C44.8414 42.7755 42.1819 39.315 40.3727 35.945C40.2642 35.746 39.9687 35.7641 39.8903 35.9811C39.2933 37.5787 38.6359 39.6044 38.4611 41.6662C38.2742 43.8305 37.5987 46.3083 36.4348 49.0996C35.8016 50.6128 35.7473 52.5058 36.2659 54.7787C36.284 54.8631 36.2358 54.9475 36.1514 54.9656L35.9946 55.0077C35.8679 55.0379 35.7473 54.9656 35.7112 54.839L34.4689 50.028C34.294 49.3347 33.5522 48.9428 32.8768 49.19C31.6948 49.6241 31.0676 50.661 30.9892 52.3008C30.8325 55.6046 32.0265 63.3937 36.3323 63.8157C36.7966 63.8639 37.1766 64.2136 37.261 64.6778C37.659 66.9326 38.3766 69.0788 39.4139 71.1105L39.2873 72.0751C38.6661 73.3592 38.2922 74.1731 38.1655 74.5167C37.2308 77.0849 34.3844 75.3486 32.8105 74.7578C32.4969 74.6433 32.4064 74.2393 32.6355 73.9922C33.5341 73.0517 34.1191 72.063 34.4025 71.0261C34.4749 70.7668 34.1553 70.5739 33.9623 70.7668L32.2737 72.4609C31.7491 72.9794 30.947 73.0879 30.3078 72.7201L24.5848 69.4164C24.3315 69.2717 24.2109 68.9763 24.2893 68.693C25.2481 65.2084 26.0803 61.3982 26.7799 57.2685C26.8342 56.943 27.1538 56.3943 27.7508 55.6166C27.8835 55.4418 27.9196 55.2127 27.8533 55.0017C27.7448 54.6581 27.5699 54.2119 27.3347 53.6694C25.7004 49.9376 26.5809 43.9571 27.8051 40.8825C28.975 37.9284 30.3198 34.6608 31.8335 31.0858C34.3543 25.1174 39.1124 21.054 45.6917 20.3426C45.9389 20.3125 46.1801 20.2582 46.4154 20.1798C52.7414 18.0276 59.785 18.9319 65.7553 21.9824C69.6329 23.9598 71.9306 27.5108 73.6855 31.556C76.8756 38.9352 81.3322 47.5442 77.738 55.3212C77.6235 55.5684 77.6415 55.8518 77.7802 56.0748L78.6064 57.4072C78.7089 57.576 78.7813 57.7629 78.8235 57.9558L81.109 68.7593C81.1693 69.0487 81.0488 69.3561 80.8015 69.5249L75.7358 73.0095C75.3137 73.2989 74.771 73.317 74.3307 73.0638L72.1657 71.8158C72.0331 71.7374 71.8703 71.7736 71.7738 71.8942C71.6833 72.0148 71.6954 72.1836 71.8039 72.2921L73.2995 73.7872C73.6312 74.1188 73.4985 74.6795 73.0583 74.8362L69.2228 76.1866C68.7284 76.3615 68.1796 76.1143 67.9746 75.632L66.696 72.6599Z" fill="#F9A33B"/>
<path d="M66.6957 72.6596C66.0505 72.2195 65.8575 72.7199 66.1289 74.1487C65.9238 73.8654 65.7067 73.6905 65.4836 73.6182C65.2484 73.5398 65.0072 73.6302 64.7599 73.8834C62.6975 75.9754 60.5024 77.6333 58.1806 78.8511C52.3008 81.9257 47.7478 78.6461 43.0741 75.2037C42.6158 74.8661 42.2057 74.4682 41.8439 74.0342L39.4135 71.1102C38.3763 69.0786 37.6587 66.9323 37.2607 64.6776C37.1763 64.2134 36.7963 63.8637 36.3319 63.8155C32.0261 63.3935 30.8322 55.6043 30.9889 52.3006C31.0673 50.6608 31.6945 49.6239 32.8765 49.1898C33.5519 48.9426 34.2936 49.3345 34.4685 50.0278L35.7108 54.8387C35.747 54.9653 35.8676 55.0377 35.9942 55.0075L36.1511 54.9653C36.2355 54.9472 36.2837 54.8628 36.2656 54.7784C35.747 52.5056 35.8013 50.6126 36.4345 49.0994C37.5984 46.3081 38.2738 43.8303 38.4607 41.666C38.6356 39.6041 39.2929 37.5785 39.89 35.9809C39.9684 35.7639 40.2639 35.7458 40.3724 35.9447C42.1816 39.3148 44.841 42.7753 48.4835 44.5959C54.5925 47.6525 62.5527 50.1002 68.7883 47.2003C69.114 47.0496 69.4999 47.2365 69.5723 47.5922C70.0487 49.9012 70.2236 52.2645 70.0849 54.6699C70.0729 54.8508 70.2055 55.0075 70.3865 55.0256L70.5372 55.0377C70.5734 55.0437 70.6156 55.0196 70.6276 54.9834C71.0558 53.6571 71.4839 52.2102 71.9061 50.6488C72.2318 49.437 73.8118 49.0029 74.4751 50.1182C75.5486 51.9027 75.8079 53.3014 75.2651 55.5742C74.9456 56.9005 74.3666 58.6127 73.5283 60.7047C72.8348 62.4289 71.689 63.4899 70.103 63.8818C69.6568 63.9963 69.3009 64.3279 69.1622 64.768L66.6957 72.6596Z" fill="#F9BA96"/>
<path d="M66.1285 74.1493C66.243 74.3845 66.2672 74.6196 66.2068 74.8668C66.5084 76.3016 65.9234 77.1577 64.4459 77.441C64.2952 77.4712 64.1625 77.5435 64.054 77.6521L61.2678 80.4313C61.1894 80.5096 61.105 80.5699 61.0145 80.6242C57.2515 82.686 55.0684 83.8254 54.4654 84.0364C51.1667 85.2241 47.868 85.1819 44.5572 83.9099C43.2667 83.4095 42.0365 82.8006 40.8665 82.0711L41.2585 77.9957C41.3067 77.5315 40.9449 77.1275 40.4745 77.1155C40.1247 77.1095 39.7931 77.0431 39.4855 76.9286C39.2805 76.8502 39.1599 76.6272 39.2142 76.4101C39.5579 74.9331 39.582 73.4862 39.2866 72.0755L39.4131 71.1108L41.8435 74.0348C42.2053 74.4689 42.6153 74.8668 43.0737 75.2043C47.7473 78.6467 52.3004 81.9264 58.1802 78.8517C60.502 77.6339 62.6971 75.976 64.7595 73.8841C65.0068 73.6309 65.248 73.5404 65.4832 73.6188C65.7063 73.6911 65.9234 73.866 66.1285 74.1493Z" fill="#EC9C74"/>
<path d="M66.5376 83.747C64.252 87.8284 61.7132 91.7652 58.921 95.5512C58.318 96.3651 57.9259 97.2754 57.745 98.2702C57.2867 100.808 56.8465 103.389 56.4243 106.011L49.7727 105.975L48.1143 97.8783C47.9333 97.0101 47.5534 96.1963 47.0047 95.509C44.502 92.3922 42.1923 89.0281 40.0635 85.423L40.8655 82.071C42.0355 82.8005 43.2657 83.4094 44.5562 83.9098C47.867 85.1818 51.1657 85.224 54.4644 84.0364C55.0675 83.8253 57.2505 82.6859 61.0136 80.6241C61.1041 80.5698 61.1885 80.5095 61.2669 80.4312L64.053 77.652C64.1616 77.5434 64.2942 77.4711 64.445 77.4409C65.9225 77.1576 66.5074 76.3015 66.2059 74.8667C66.5617 75.4213 66.6943 75.994 66.6039 76.5849C66.5677 76.8079 66.4471 77.0009 66.2722 77.1335C65.8561 77.453 65.5425 77.7846 65.3375 78.1161C65.2049 78.3332 65.1445 78.5804 65.1505 78.8336C65.2289 80.6 65.6933 82.2398 66.5376 83.747Z" fill="#F9BA96"/>
<path d="M56.4248 106.011C56.8469 103.388 57.2872 100.808 57.7455 98.2699C57.9264 97.2751 58.3184 96.3648 58.9215 95.5509C61.7136 91.7649 64.2524 87.8281 66.538 83.7467C67.8406 83.4272 68.8779 84.1506 69.6559 85.9291C69.891 86.4717 70.3554 86.8756 70.9162 87.0504C74.0461 87.9909 77.4412 89.0339 81.0957 90.1793C83.1884 90.8304 85.6729 91.8131 86.7645 93.8931C87.8077 95.8825 88.5013 98.0046 88.851 100.259C88.8872 100.488 88.7606 100.718 88.5435 100.808C86.2881 101.73 83.8035 102.49 81.0957 103.087C73.0932 104.841 64.8736 105.812 56.4248 106.011Z" fill="#4B206D"/>
<path d="M40.0641 85.4227C42.1929 89.0279 44.5026 92.3919 47.0052 95.5088C47.554 96.196 47.9339 97.0099 48.1148 97.878L49.7732 105.975C41.1496 105.89 32.6224 104.859 24.1857 102.876C21.6528 102.279 19.4155 101.58 17.4677 100.778C17.142 100.645 16.955 100.302 17.0093 99.958C17.3048 98.1795 17.8777 96.3649 18.722 94.5141C20.0789 91.5539 22.5816 91.0234 25.8139 90.0106C25.9707 89.9624 29.0764 89.0158 35.1371 87.171C35.5532 87.0445 35.8849 86.731 36.0417 86.321C36.5603 84.9525 39.2318 82.0648 40.0641 85.4227Z" fill="#4B206D"/>
</g>
</svg>
