<svg width="106" height="106" viewBox="0 0 106 106" fill="none" xmlns="http://www.w3.org/2000/svg">
<mask id="mask0_5177_4154" style="mask-type:alpha" maskUnits="userSpaceOnUse" x="0" y="0" width="106" height="106">
<circle cx="53" cy="53" r="53" fill="#D9D9D9"/>
</mask>
<g mask="url(#mask0_5177_4154)">
<circle cx="53" cy="53" r="55" fill="white"/>
<path d="M26.173 91.1191C21.3496 92.1886 18.6283 95.2093 18.0027 100.194C17.9839 100.325 18.0653 100.456 18.1904 100.494L25.9915 103.196" stroke="#EBA89F" stroke-miterlimit="10"/>
<path d="M25.9912 103.196L34.1927 104.816" stroke="#8E94A0" stroke-miterlimit="10"/>
<path d="M34.1924 104.816C45.2967 106.198 56.5511 106.355 67.9494 105.291C69.7198 105.123 71.4089 104.891 73.0167 104.597" stroke="#EBA89F" stroke-miterlimit="10"/>
<path d="M73.0176 104.597L81.3067 103.015" stroke="#8E94A0" stroke-miterlimit="10"/>
<path d="M81.3068 103.014L87.9131 100.844C88.3822 100.688 88.6638 100.206 88.5574 99.7247C87.5752 95.1655 85.0228 92.42 80.8877 91.4819" stroke="#EBA89F" stroke-miterlimit="10"/>
<path d="M80.8872 91.4823C80.5494 80.0311 80.1678 68.4986 79.7424 56.8849C79.5422 51.5377 78.9854 46.4969 78.0658 41.7564C76.7833 35.1021 74.0745 27.3095 69.0885 22.7753C61.181 15.5832 48.9694 15.3893 39.7107 20.6365C30.9274 25.6084 28.2435 36.553 27.4303 45.7902C26.1979 59.7993 26.2291 72.6326 26.1729 91.1195" stroke="#8E94A0" stroke-miterlimit="10"/>
<path d="M80.8876 91.4823L81.3067 103.015M73.0176 104.597L72.3044 89.3747C72.2982 89.1745 72.2106 88.9869 72.0605 88.8493C71.5162 88.349 70.7905 88.0613 69.8896 87.98" stroke="#7A3D40" stroke-miterlimit="10"/>
<path d="M69.8898 87.9799C66.0048 86.9918 63.8153 85.397 63.5212 81.1255C63.3523 78.6176 63.2835 76.4787 63.3273 74.6963" stroke="#8B726C" stroke-miterlimit="10"/>
<path d="M63.3274 74.6967C63.1085 73.2145 63.365 72.0825 64.1094 71.3008" stroke="#84635B" stroke-miterlimit="10"/>
<path d="M64.1096 71.3001C66.7308 68.7297 68.5451 65.6214 69.5585 61.9753C69.6148 61.7877 69.765 61.6376 69.9589 61.5813C71.5041 61.1623 72.6802 60.0365 73.4998 58.1979C74.6822 55.5524 76.1585 49.8487 73.8188 47.8787C73.4935 47.6035 72.993 47.7286 72.8304 48.1226C72.3612 49.2921 71.8357 50.9432 71.2601 53.0695C71.1913 53.326 70.9098 53.4573 70.6909 53.3385C70.6283 53.3072 70.5908 53.2322 70.5845 53.1259C70.5407 52.6818 70.5407 51.3372 70.572 49.092C70.5782 48.8669 70.3968 48.6792 70.1716 48.673C68.226 48.6167 66.4806 48.6167 64.9416 48.6604C62.4956 48.7292 60.7439 48.698 59.6992 48.5541C53.8937 47.7598 47.4751 43.357 44.71 38.2475C43.6277 36.2462 43.0834 35.2393 43.0709 35.2331C42.9646 35.1392 42.7957 35.2268 42.8082 35.3706C43.2023 40.2425 46.7807 43.9762 50.3591 46.5466C50.4967 46.6467 50.3966 46.8593 50.234 46.8217C45.8798 45.8399 40.481 42.6066 39.2048 38.0787C38.8857 36.9342 38.5291 35.7084 38.1413 34.4075C38.085 34.2261 37.8347 34.2261 37.7784 34.4075C35.8954 40.4176 35.1634 46.5028 35.5701 52.6568C35.5763 52.7756 35.495 52.8819 35.3762 52.9007C35.2635 52.9195 35.1509 52.8444 35.1196 52.7319C34.7881 51.4185 34.1562 48.4728 33.1553 47.5472C32.8675 47.2783 32.4046 47.3221 32.1731 47.6411C29.7521 50.9619 31.7727 57.2222 33.931 60.2679C34.444 60.9997 35.1884 61.3561 36.1581 61.3374C36.4584 61.3311 36.7212 61.5313 36.7962 61.819C37.9035 66.0592 40.1119 69.6928 43.4213 72.7198" stroke="#8B726C" stroke-miterlimit="10"/>
<path d="M43.4212 72.7202L43.3086 78.4489" stroke="#84635B" stroke-miterlimit="10"/>
<path d="M43.3083 78.4487C43.0706 80.4062 42.8329 81.9697 42.6014 83.1455C42.0196 86.0849 39.7737 86.6102 37.3965 87.6922" stroke="#8B726C" stroke-miterlimit="10"/>
<path d="M37.3958 87.6924C36.4136 87.7111 35.4752 88.0801 34.5743 88.8056C34.4179 88.9307 34.3304 89.112 34.3304 89.3122L34.1927 104.816M25.9912 103.196L26.1726 91.1196" stroke="#7A3D40" stroke-miterlimit="10"/>
<path d="M69.8899 87.98C70.0463 91.4511 69.8023 93.9839 69.1454 95.5662C68.3009 97.6175 66.7619 98.9934 64.5223 99.7001C59.2423 101.364 53.7934 101.839 48.1693 101.12C44.7786 100.688 41.9134 99.7752 39.5674 98.3742C38.2537 97.5862 37.6969 96.6419 37.4279 95.191C36.9524 92.6518 36.9399 90.1502 37.3966 87.6924" stroke="#E8856A" stroke-miterlimit="10"/>
<path d="M63.3276 74.6967C63.0335 74.4278 62.7645 74.4841 62.5143 74.8718C62.0764 75.541 61.7761 75.9788 61.6072 76.1727C60.356 77.5986 59.1987 78.6742 58.1351 79.406C55.1073 81.4885 52.73 83.0583 49.2705 81.6699C47.6502 81.0133 45.6608 79.9438 43.3086 78.4491M64.1096 71.3008C59.5553 74.7405 56.4961 77.067 50.9596 76.2227C48.3071 75.8162 45.7922 74.6529 43.4212 72.7204" stroke="#F3AB85" stroke-miterlimit="10"/>
<path d="M80.887 91.4822L81.3061 103.015L73.017 104.597L72.3038 89.3746C72.2976 89.1745 72.21 88.9869 72.0599 88.8493C71.5156 88.349 70.7899 88.0612 69.889 87.98C66.0041 86.9918 63.8146 85.397 63.5205 81.1256C63.3516 78.6177 63.2828 76.4788 63.3266 74.6964C63.1076 73.2142 63.3641 72.0822 64.1086 71.3005C66.7298 68.73 68.544 65.6217 69.5575 61.9757C69.6138 61.788 69.7639 61.6379 69.9579 61.5817C71.5031 61.1626 72.6792 60.0369 73.4987 58.1982C74.6811 55.5528 76.1575 49.8491 73.8178 47.8791C73.4925 47.6039 72.992 47.729 72.8293 48.123C72.3601 49.2925 71.8346 50.9436 71.2591 53.0699C71.1903 53.3263 70.9088 53.4577 70.6898 53.3389C70.6272 53.3076 70.5897 53.2325 70.5835 53.1262C70.5397 52.6822 70.5397 51.3376 70.5709 49.0924C70.5772 48.8672 70.3958 48.6796 70.1706 48.6733C68.2249 48.617 66.4796 48.617 64.9406 48.6608C62.4945 48.7296 60.7429 48.6983 59.6981 48.5545C53.8927 47.7602 47.4741 43.3574 44.7089 38.2479C43.6267 36.2465 43.0824 35.2397 43.0699 35.2334C42.9635 35.1396 42.7946 35.2271 42.8071 35.371C43.2013 40.2429 46.7797 43.9766 50.358 46.547C50.4957 46.647 50.3956 46.8596 50.2329 46.8221C45.8788 45.8402 40.4799 42.6069 39.2037 38.079C38.8846 36.9345 38.5281 35.7087 38.1402 34.4079C38.0839 34.2265 37.8337 34.2265 37.7774 34.4079C35.8943 40.418 35.1624 46.5032 35.569 52.6572C35.5753 52.776 35.4939 52.8823 35.3751 52.9011C35.2625 52.9198 35.1499 52.8448 35.1186 52.7322C34.787 51.4189 34.1552 48.4732 33.1542 47.5476C32.8665 47.2787 32.4035 47.3224 32.172 47.6414C29.751 50.9623 31.7717 57.2226 33.93 60.2683C34.4429 61 35.1874 61.3565 36.1571 61.3378C36.4574 61.3315 36.7201 61.5316 36.7952 61.8193C37.9025 66.0595 40.1108 69.6931 43.4202 72.7201L43.3076 78.4488C43.0699 80.4063 42.8321 81.9698 42.6007 83.1456C42.0189 86.085 39.773 86.6103 37.3958 87.6923C36.4136 87.711 35.4752 88.08 34.5743 88.8055C34.4179 88.9306 34.3304 89.1119 34.3304 89.3121L34.1927 104.816L25.9912 103.196L26.1726 91.1195C26.2289 72.6326 26.1976 59.7992 27.4301 45.7902C28.2433 36.553 30.9271 25.6084 39.7104 20.6365C48.9692 15.3893 61.1808 15.5832 69.0883 22.7753C74.0742 27.3095 76.7831 35.1021 78.0655 41.7564C78.9852 46.4969 79.5419 51.5377 79.7421 56.8849C80.1675 68.4986 80.5491 80.0311 80.887 91.4822Z" fill="#1C2941"/>
<path d="M64.1096 71.3001C59.5553 74.7398 56.4961 77.0663 50.9596 76.222C48.3071 75.8155 45.7923 74.6523 43.4213 72.7198C40.1119 69.6928 37.9035 66.0592 36.7962 61.819C36.7212 61.5313 36.4584 61.3311 36.1581 61.3374C35.1884 61.3561 34.444 60.9997 33.931 60.2679C31.7727 57.2222 29.7521 50.9619 32.1731 47.6411C32.4046 47.3221 32.8675 47.2783 33.1553 47.5472C34.1562 48.4728 34.7881 51.4185 35.1196 52.7319C35.1509 52.8444 35.2635 52.9195 35.3762 52.9007C35.495 52.8819 35.5763 52.7756 35.5701 52.6568C35.1634 46.5028 35.8954 40.4176 37.7784 34.4075C37.8347 34.2261 38.085 34.2261 38.1413 34.4075C38.5291 35.7084 38.8857 36.9342 39.2048 38.0787C40.481 42.6066 45.8798 45.8399 50.234 46.8217C50.3966 46.8593 50.4967 46.6467 50.3591 46.5466C46.7807 43.9762 43.2023 40.2425 42.8082 35.3706C42.7957 35.2268 42.9646 35.1392 43.0709 35.2331C43.0834 35.2393 43.6277 36.2462 44.71 38.2475C47.4751 43.357 53.8937 47.7598 59.6992 48.5541C60.7439 48.698 62.4956 48.7292 64.9416 48.6604C66.4806 48.6167 68.226 48.6167 70.1716 48.673C70.3968 48.6792 70.5782 48.8669 70.572 49.092C70.5407 51.3372 70.5407 52.6818 70.5845 53.1259C70.5908 53.2322 70.6283 53.3072 70.6909 53.3385C70.9098 53.4573 71.1913 53.326 71.2601 53.0695C71.8357 50.9432 72.3612 49.2921 72.8304 48.1226C72.993 47.7286 73.4935 47.6036 73.8188 47.8787C76.1585 49.8487 74.6822 55.5524 73.4998 58.1979C72.6802 60.0365 71.5041 61.1623 69.9589 61.5813C69.765 61.6376 69.6148 61.7877 69.5585 61.9753C68.5451 65.6214 66.7308 68.7297 64.1096 71.3001Z" fill="#F9BA96"/>
<path d="M64.1096 71.3008C63.3651 72.0825 63.1086 73.2145 63.3276 74.6967C63.0335 74.4278 62.7645 74.4841 62.5143 74.8718C62.0764 75.541 61.7761 75.9788 61.6072 76.1727C60.356 77.5986 59.1987 78.6742 58.1351 79.406C55.1073 81.4885 52.73 83.0583 49.2705 81.6699C47.6502 81.0133 45.6608 79.9438 43.3086 78.4491L43.4212 72.7204C45.7922 74.6529 48.3071 75.8162 50.9596 76.2227C56.4961 77.067 59.5553 74.7405 64.1096 71.3008Z" fill="#EC9C74"/>
<path d="M63.3274 74.6966C63.2836 76.479 63.3524 78.6179 63.5213 81.1258C63.8154 85.3973 66.005 86.9921 69.8899 87.9802C70.0463 91.4512 69.8023 93.9841 69.1454 95.5663C68.3009 97.6177 66.7619 98.9936 64.5223 99.7003C59.2423 101.364 53.7934 101.839 48.1693 101.12C44.7786 100.688 41.9134 99.7753 39.5674 98.3744C38.2537 97.5864 37.6969 96.642 37.4279 95.1911C36.9524 92.652 36.9399 90.1503 37.3966 87.6925C39.7738 86.6106 42.0197 86.0852 42.6015 83.1458C42.833 81.97 43.0707 80.4066 43.3084 78.4491C45.6607 79.9438 47.6501 81.0132 49.2704 81.6699C52.7299 83.0583 55.1071 81.4885 58.135 79.4059C59.1985 78.6742 60.3559 77.5985 61.607 76.1726C61.776 75.9787 62.0762 75.5409 62.5141 74.8717C62.7644 74.484 63.0334 74.4277 63.3274 74.6966Z" fill="#F9BA96"/>
<path d="M37.3954 87.6924C36.9387 90.1502 36.9512 92.6518 37.4267 95.191C37.6957 96.6419 38.2525 97.5862 39.5662 98.3742C41.9122 99.7752 44.7774 100.688 48.1681 101.12C53.7922 101.839 59.2411 101.364 64.5211 99.7001C66.7607 98.9934 68.2997 97.6175 69.1442 95.5662C69.8011 93.9839 70.0451 91.4511 69.8887 87.98C70.7896 88.0613 71.5153 88.349 72.0595 88.8494C72.2097 88.987 72.2973 89.1746 72.3035 89.3747L73.0167 104.597C71.4089 104.891 69.7198 105.122 67.9494 105.291C56.5511 106.354 45.2967 106.198 34.1924 104.816L34.33 89.3122C34.33 89.112 34.4176 88.9307 34.574 88.8056C35.4748 88.0801 36.4132 87.7111 37.3954 87.6924Z" fill="#4B206D"/>
<path d="M26.173 91.1191L25.9915 103.196L18.1904 100.494C18.0653 100.456 17.9839 100.325 18.0027 100.194C18.6283 95.2093 21.3496 92.1886 26.173 91.1191Z" fill="#4B206D"/>
<path d="M81.3068 103.014L80.8877 91.4819C85.0228 92.42 87.5752 95.1655 88.5574 99.7247C88.6638 100.206 88.3822 100.688 87.9131 100.844L81.3068 103.014Z" fill="#4B206D"/>
</g>
</svg>
